<?xml version="1.0" standalone="no"?>
<!DOCTYPE svg PUBLIC "-//W3C//DTD SVG 1.1//EN" "http://www.w3.org/Graphics/SVG/1.1/DTD/svg11.dtd" >
<svg xmlns="http://www.w3.org/2000/svg">
<metadata></metadata>
<defs>
<font id="pf_handbook_proextra_thin" horiz-adv-x="880" >
<font-face units-per-em="2048" ascent="1536" descent="-512" />
<missing-glyph horiz-adv-x="389" />
<glyph horiz-adv-x="2048" />
<glyph horiz-adv-x="2048" />
<glyph unicode="&#xd;" horiz-adv-x="2048" />
<glyph unicode=" "  horiz-adv-x="389" />
<glyph unicode="&#x09;" horiz-adv-x="389" />
<glyph unicode="&#xa0;" horiz-adv-x="389" />
<glyph unicode="!" horiz-adv-x="487" d="M197 41q0 20 14 34.5t37 14.5t37 -13t14 -36t-14.5 -37t-36.5 -14q-23 0 -37 14t-14 37zM213 1247q0 6 2 10.5t12 4.5h31q14 0 14 -15l-8 -975q0 -12 -10 -12h-12q-12 0 -13 12z" />
<glyph unicode="&#x22;" horiz-adv-x="372" d="M92 874v379q0 10 12 11h21q10 0 10 -11v-379q0 -10 -10 -10h-21q-12 0 -12 10zM236 874v379q0 10 12 11h20q10 0 11 -11v-379q0 -10 -11 -10h-20q-12 0 -12 10z" />
<glyph unicode="#" d="M49 412l4 20q4 12 19 12h121q14 0 16 15l76 362q4 16 -9 17h-145q-10 0 -8 10l4 20q4 12 12 13h148q12 0 14 14l51 246q2 8 15 8h20q12 0 8 -12l-51 -242q-2 -14 10 -14h269q10 0 14 12l51 248q2 8 14 8h21q12 0 8 -12l-51 -240q-2 -16 14 -16h127q12 0 8 -13l-4 -20 q-2 -10 -12 -10h-129q-18 0 -20 -15l-76 -362q-4 -16 10 -17h156q10 0 6 -12l-4 -20q-2 -10 -13 -11h-155q-10 0 -12.5 -3t-4.5 -9l-63 -299q-2 -8 -12 -8h-19q-14 0 -10 12l63 295q0 6 -1 9t-11 3h-266q-14 0 -16 -12l-64 -299q-2 -8 -12 -8h-19q-14 0 -10 12l62 293 q2 14 -9 14h-127q-10 0 -8 11zM250 457q-2 -12 12 -13h268q12 0 15 17l78 364q2 12 -13 13h-264q-16 0 -18 -17z" />
<glyph unicode="$" d="M102 930q0 63 25 115.5t64.5 89t93 59.5t108.5 29q10 2 10 16v117q0 10 13 10h20q10 0 10 -10v-117q0 -14 17 -14q145 -6 252 -76q8 -8 2 -19l-17 -20q-8 -6 -16 2q-57 41 -120.5 56.5t-125.5 15.5q-49 0 -100 -14.5t-92 -46t-67.5 -81t-26.5 -116.5q0 -61 28.5 -103.5 t72.5 -71t96 -48t100 -33.5q61 -18 119.5 -46t104.5 -66t74.5 -89t28.5 -117q0 -72 -24.5 -126t-67.5 -91t-100.5 -58.5t-120.5 -27.5q-16 0 -17 -16v-144q0 -10 -10 -10h-20q-12 0 -13 10v144q0 14 -18 14q-76 4 -141.5 22.5t-124.5 59.5q-10 6 -2 16l18 21q6 4 17 -2 q51 -37 117.5 -56.5t140.5 -19.5q59 0 116.5 15.5t102.5 46t72.5 78.5t27.5 114q0 68 -28.5 115t-70.5 78.5t-89 52t-86 33.5q-53 16 -116 37.5t-115 57.5t-87 87t-35 127z" />
<glyph unicode="%" horiz-adv-x="1269" d="M94 674v407q0 86 56.5 137.5t154.5 51.5t156.5 -50.5t58.5 -138.5v-407q0 -90 -55 -139.5t-158 -49.5q-100 0 -156.5 51.5t-56.5 137.5zM139 676q0 -66 45 -110t123 -44q74 0 123 39t49 115v403q0 66 -46 109t-128 43q-78 0 -122 -43t-44 -109v-403zM322 -51l585 1366 q4 10 13 10h20q12 0 8 -10l-586 -1366q-4 -10 -14 -10h-18q-14 0 -8 10zM750 180v408q0 86 56 137t155 51q98 0 156.5 -50t58.5 -138v-408q0 -90 -55.5 -139t-157.5 -49q-100 0 -156.5 51t-56.5 137zM795 182q0 -66 45 -109.5t123 -43.5q74 0 123 38.5t49 114.5v404 q0 66 -46.5 108.5t-127.5 42.5q-78 0 -122 -43t-44 -108v-404z" />
<glyph unicode="&#x26;" horiz-adv-x="1167" d="M152 324v479q0 63 24.5 119.5t68.5 98.5t105.5 65.5t136.5 23.5h297q14 0 15 -12v-17q0 -14 -13 -14h-299q-63 0 -116.5 -19.5t-91 -55.5t-59 -85t-21.5 -108v-471q0 -59 20.5 -114.5t58 -96.5t92 -65.5t119.5 -24.5h48q72 0 126 24.5t91 65.5t55 96t18 115v270q0 4 -2 9 t-16 5h-313q-14 0 -15 15v14q0 14 15 14h383q84 0 148.5 14.5t135.5 67.5q8 4 13 0l14 -18q4 -8 0 -12q-2 -4 -4 -5q-57 -51 -140 -70.5t-155 -19.5q-12 0 -14.5 -4t-2.5 -14v-270q0 -70 -23.5 -131.5t-66.5 -107.5t-105.5 -72.5t-141.5 -26.5h-48q-76 0 -138 26.5 t-106 72.5t-68.5 107.5t-24.5 131.5z" />
<glyph unicode="'" horiz-adv-x="292" d="M121 874v379q0 10 12 11h21q10 0 10 -11v-379q0 -10 -10 -10h-21q-12 0 -12 10z" />
<glyph unicode="(" horiz-adv-x="585" d="M154 543q0 121 29.5 243.5t75.5 236.5t102.5 211t109.5 165q8 8 14 2l9 -4q6 -4 2 -15q-61 -90 -114.5 -190t-91.5 -207.5t-59.5 -219.5t-21.5 -222q0 -121 24.5 -234.5t65.5 -218t93.5 -198t107.5 -171.5q4 -10 -2 -14l-13 -10q-10 -6 -18 2q-59 72 -115.5 167 t-100.5 205.5t-70.5 230.5t-26.5 241z" />
<glyph unicode=")" horiz-adv-x="585" d="M133 -279q55 78 108.5 171.5t94.5 198t66.5 218t25.5 234.5q0 111 -22.5 222.5t-61.5 219t-92 207.5t-115 190q-4 10 2 15l8 4q6 6 15 -2q53 -68 109.5 -165t102.5 -211t75.5 -236.5t29.5 -243.5t-26.5 -241t-70.5 -230.5t-100.5 -205.5t-115.5 -167q-8 -8 -19 -2l-12 10 q-6 4 -2 14z" />
<glyph unicode="*" horiz-adv-x="702" d="M92 1112l10 33q6 18 23 10l201 -84q10 -6 10 8l-14 217q0 18 16 19h33q18 0 18 -19l-16 -217q-4 -16 8 -8l203 82q16 6 22 -8l10 -33q6 -18 -12 -22l-209 -52q-14 -2 -6 -14l139 -164q12 -14 -2 -22l-26 -21q-18 -12 -25 2l-113 187q-6 10 -16 -2l-113 -183 q-10 -16 -24 -4l-27 21q-10 4 -9 11t5 11l141 164q8 8 -6 14l-209 54q-18 2 -12 20z" />
<glyph unicode="+" d="M57 471v27q0 12 11 12h329q10 0 11 14v355q0 10 12 10h26q10 0 11 -10v-357q0 -12 14 -12h338q12 0 12 -12v-27q0 -10 -12 -10h-338q-14 0 -14 -12v-355q0 -10 -11 -10h-26q-12 0 -12 10v355q0 12 -15 12h-325q-10 0 -11 10z" />
<glyph unicode="," horiz-adv-x="294" d="M92 -190l17 280q0 12 16 12h57q20 0 15 -18l-64 -277q-2 -14 -14 -14h-17q-10 0 -10 17z" />
<glyph unicode="-" horiz-adv-x="569" d="M127 471v35q0 12 10 12h299q10 0 10 -12v-35q0 -10 -10 -10h-299q-10 0 -10 10z" />
<glyph unicode="." horiz-adv-x="288" d="M94 41q0 20 14.5 34.5t34.5 14.5q25 0 39.5 -13t14.5 -36t-14.5 -37t-39.5 -14q-20 0 -34.5 14t-14.5 37z" />
<glyph unicode="/" horiz-adv-x="561" d="M6 -127l506 1495q2 10 12 10h15q14 0 10 -10l-506 -1495q-2 -4 -3 -7t-7 -3h-15q-14 0 -12 10z" />
<glyph unicode="0" d="M119 293v680q0 137 86 221t233 84t235.5 -82t88.5 -223v-680q0 -145 -84 -226t-238 -81t-237.5 84t-83.5 223zM166 297q0 -119 74.5 -194.5t199.5 -75.5q117 0 196 67.5t79 202.5v672q0 117 -73 191.5t-204 74.5q-123 0 -197.5 -75t-74.5 -191v-672z" />
<glyph unicode="1" d="M211 1073v31q0 12 3 14l15 10l205 125q4 4 10.5 7.5t10.5 3.5h26q10 0 11 -11v-1243q0 -10 -11 -10h-24q-12 0 -13 10v1184q-4 6 -12 0l-207 -125q-14 -10 -14 4z" />
<glyph unicode="2" d="M82 12v17q0 10 2 17t4 11l444 592q90 119 131.5 206t41.5 140q0 57 -20.5 102.5t-56.5 76t-84 46t-104 15.5q-74 0 -143.5 -26.5t-106.5 -73.5q-8 -14 -22 -5l-16 13q-10 8 0 18q43 55 119.5 86t164.5 31q63 0 121.5 -15.5t101.5 -49t69 -86t26 -126.5q0 -29 -7.5 -62.5 t-27 -78.5t-56 -103.5t-94.5 -135.5l-424 -564q-10 -12 9 -12h587q10 0 11.5 -4t1.5 -8v-21q0 -12 -11 -12h-649q-12 0 -12 12z" />
<glyph unicode="3" d="M64.5 114.5q-1.5 4.5 9.5 12.5l16 10q8 4 10 4t15 -14q41 -51 104.5 -75.5t130.5 -24.5q61 0 115.5 23.5t94.5 64.5t62.5 96t22.5 121v76q0 51 -16.5 99t-47 85t-76.5 58.5t-108 21.5h-139q-10 0 -10 10v23q0 12 10 12h139q49 0 92 18.5t77 51t53.5 78.5t19.5 104 q0 53 -16.5 101t-49 85t-84 58.5t-120.5 21.5q-76 0 -140.5 -26.5t-101.5 -73.5q-8 -14 -23 -5l-16 13q-10 8 0 18q43 55 115.5 86t161.5 31q150 0 236.5 -82t86.5 -223q0 -57 -17.5 -105.5t-44 -83t-57 -57t-57.5 -29.5q-8 -2 -8 -6t8 -6q49 -12 84 -42t56.5 -68.5 t30.5 -81.5t9 -80v-74q0 -78 -24.5 -142.5t-68.5 -111.5t-107.5 -73.5t-143.5 -26.5q-92 0 -164.5 29.5t-113.5 86.5q-4 8 -5.5 12.5z" />
<glyph unicode="4" d="M84 340v20q0 20 10 37l453 848q6 12 11 15.5t13 3.5h19q16 0 8 -19l-463 -862q-10 -14 6 -14h445q10 0 11 4t1 12v399q0 10 14 11h19q10 0 10 -11v-399q0 -16 18 -16h172q10 0 11 -13v-20q0 -10 -11 -10h-174q-14 0 -14 -11v-305q0 -10 -10 -10h-21q-14 0 -14 10v305 q0 10 -12 11h-484q-18 0 -18 14z" />
<glyph unicode="5" d="M136 114.5q-1 4.5 9 12.5l17 10q8 4 10 4t14 -14q41 -51 104.5 -75.5t131.5 -24.5q125 0 204 70.5t79 201.5v182q0 61 -21.5 111.5t-58.5 86.5t-87.5 54.5t-107.5 18.5q-37 0 -86 -16.5t-82 -39.5q-12 -10 -21.5 -11t-15.5 3l-32 25q-10 6 -12.5 12t-2.5 18v508 q0 12 15 13h524q10 0 10 -13v-20q0 -10 -10 -10h-477q-12 0 -13 -11v-467q0 -16 19 -4q51 35 98 46.5t88 11.5q150 0 235 -86t85 -222v-182q0 -156 -86 -238.5t-246 -82.5q-92 0 -165 29.5t-114 86.5q-4 8 -5 12.5z" />
<glyph unicode="6" d="M131 299v659q0 70 24.5 129.5t68.5 101.5t104.5 65.5t132.5 23.5q88 0 158.5 -30.5t113.5 -86.5q10 -10 0 -18l-16 -13q-14 -10 -23 5q-37 47 -95 73.5t-132 26.5q-66 0 -119 -21.5t-91 -60.5t-58.5 -90t-20.5 -113v-315q0 -16 10 -2q53 66 119 99.5t158 33.5 q80 0 139.5 -24.5t100 -66.5t61 -97.5t20.5 -116.5v-162q0 -147 -86 -230t-243 -83q-145 0 -235.5 82t-90.5 231zM178 307q0 -125 75 -202.5t204 -77.5q143 0 212.5 78.5t69.5 201.5v146q0 127 -78.5 197.5t-205.5 70.5q-55 0 -105.5 -21.5t-88.5 -59.5t-60.5 -88 t-22.5 -106v-139z" />
<glyph unicode="7" d="M127 1085v168q0 10 14 11h611q14 0 14 -13v-18q0 -10 -3 -17.5t-5 -11.5l-514 -1190q-4 -12 -9.5 -13t-15.5 -1h-24q-16 0 -11 14l523 1196q4 10 -0.5 10.5t-8.5 0.5h-508q-16 0 -16 -15v-121q0 -10 -10 -10h-25q-12 0 -12 10z" />
<glyph unicode="8" d="M92 334q0 66 17.5 121t46 98t64.5 71.5t75 43.5q6 2 6 7t-8 9q-96 41 -138 119t-42 155q0 70 22.5 128.5t65.5 101.5t103.5 66.5t137.5 23.5q160 0 246 -89t86 -226q0 -88 -49 -166t-135 -117q-4 -2 -6 -5t6 -7q94 -47 147.5 -125t53.5 -207q0 -88 -29 -153.5t-78 -109.5 t-114.5 -65.5t-139.5 -21.5q-72 0 -134.5 22.5t-107.5 65.5t-70.5 108.5t-25.5 151.5zM145 332q0 -74 22.5 -131.5t61.5 -95t91.5 -58t111.5 -20.5q57 0 112.5 17t98.5 54t69.5 94.5t26.5 137.5q0 76 -23.5 136t-64.5 101t-96.5 62.5t-116.5 21.5q-59 0 -112.5 -20.5 t-93 -60.5t-63.5 -100t-24 -138zM164 956q0 -57 22.5 -104t61.5 -82t88 -54.5t104 -19.5t106.5 18.5t89.5 52.5t61.5 82t23.5 107q0 123 -73 201t-208 78q-125 0 -200.5 -78t-75.5 -201z" />
<glyph unicode="9" d="M104 803v149q0 147 90.5 236.5t247.5 89.5q145 0 231.5 -88t86.5 -238v-628q0 -84 -29 -146.5t-76 -105.5t-108.5 -64.5t-126.5 -21.5q-88 0 -159 30.5t-114 85.5q-10 10 0 19l17 12q14 10 22 -4q37 -47 95.5 -73.5t132.5 -26.5q59 0 113.5 19.5t95.5 58t65.5 95 t24.5 130.5v297q0 16 -11 2q-53 -66 -118.5 -99.5t-157.5 -33.5q-80 0 -139.5 24.5t-100.5 66.5t-61.5 97t-20.5 117zM152 811q0 -127 78.5 -197.5t205.5 -70.5q55 0 105.5 21.5t88.5 59.5t60.5 88t22.5 105v127q0 61 -18.5 115.5t-52.5 93.5t-85 61.5t-115 22.5 q-72 0 -126 -22.5t-91 -62.5t-55 -93t-18 -115v-133z" />
<glyph unicode=":" horiz-adv-x="288" d="M94 41q0 20 14.5 34.5t34.5 14.5q25 0 39.5 -13t14.5 -36t-14.5 -37t-39.5 -14q-20 0 -34.5 14t-14.5 37zM94 717q0 20 14.5 34.5t34.5 14.5q25 0 39.5 -13t14.5 -36t-14.5 -37t-39.5 -14q-20 0 -34.5 15t-14.5 36z" />
<glyph unicode=";" horiz-adv-x="315" d="M96 -190l17 280q0 12 16 12h57q20 0 15 -18l-64 -277q-2 -14 -14 -14h-17q-10 0 -10 17zM111 717q0 20 14 34.5t35 14.5q25 0 39 -13t14 -36t-14.5 -37t-38.5 -14q-20 0 -34.5 15t-14.5 36z" />
<glyph unicode="&#x3c;" d="M51 518q0 12 9.5 20.5t17.5 12.5l731 399q20 10 20 -8v-18q0 -10 -22 -25l-676 -375q-4 -2 -4 -6q0 -2 4 -4l676 -369q12 -6 17 -10t5 -14v-23q0 -10 -5 -10t-15 4l-731 395q-10 4 -18.5 11.5t-8.5 19.5z" />
<glyph unicode="=" d="M63 307v19q0 12 11 12h731q10 0 10 -12v-19q0 -10 -10 -10h-731q-10 0 -11 10zM63 688v19q0 12 11 12h731q10 0 10 -12v-19q0 -10 -10 -10h-731q-10 0 -11 10z" />
<glyph unicode="&#x3e;" d="M51 98v23q0 10 5 14t18 10l676 369q4 2 4 4q0 4 -4 6l-676 375q-23 14 -23 25v18q0 18 21 8l731 -399q8 -4 17 -12.5t9 -20.5t-8 -19t-18 -12l-731 -395q-10 -4 -15.5 -4t-5.5 10z" />
<glyph unicode="?" horiz-adv-x="856" d="M156 1143q-10 8 0 18q43 55 116.5 86t165.5 31q66 0 122 -19.5t97 -56.5t64.5 -92t23.5 -125q0 -76 -49 -158t-157 -153q-49 -33 -86 -62.5t-61.5 -62.5t-36 -71t-11.5 -87v-121q0 -10 -10 -10h-25q-12 0 -12 10v125q0 76 35 144.5t110 117.5q45 31 91.5 65t82 73t58 85 t22.5 105q0 33 -10 76t-40 82t-81 65.5t-131 26.5q-76 0 -139.5 -26.5t-99.5 -73.5q-8 -14 -23 -5zM266 41q0 20 14.5 34.5t36.5 14.5q23 0 37.5 -13t14.5 -36t-14.5 -37t-37.5 -14t-37 14t-14 37z" />
<glyph unicode="@" horiz-adv-x="1423" d="M106 596q0 139 45.5 259t127 208t198.5 138t262 50q123 0 230.5 -36.5t187.5 -107.5t127 -175.5t47 -239.5q0 -215 -85 -325.5t-216 -110.5q-8 0 -25.5 2t-37 9t-39 20.5t-31.5 36.5q-4 6 -6 8t-10 -6q-39 -45 -88.5 -61.5t-85.5 -16.5q-47 0 -88 16.5t-73 47t-50.5 71.5 t-18.5 90q0 45 17.5 84t48 68.5t71.5 47t88 17.5q111 0 170 -65q4 -4 9.5 -3t5.5 11v31q0 31 -7.5 65.5t-28 64t-58 50t-99.5 20.5q-35 0 -75.5 -10t-73.5 -23q-16 -12 -21 5l-6 20q-2 4 -2 7t10 9q35 14 82 25.5t90 11.5q123 0 178.5 -63.5t55.5 -171.5v-268 q0 -39 17.5 -72t78.5 -33q68 0 117 34t80.5 89t47 124.5t15.5 143.5q0 129 -47 226.5t-124 162t-174 97t-195 32.5q-133 0 -244 -45t-189.5 -126t-121.5 -193.5t-43 -249.5q0 -143 46 -258t126.5 -195t193.5 -123t248 -43q100 0 186 17.5t148 46.5q16 6 22 -6l6 -15 q6 -12 0 -16t-16 -8q-86 -31 -168 -46.5t-170 -15.5q-147 0 -270 46.5t-211 132.5t-136.5 208.5t-48.5 274.5zM524 473q0 -74 52.5 -127t125.5 -53q92 0 137.5 53t45.5 127t-48.5 125t-134.5 51q-37 0 -68.5 -13t-56 -38t-39 -56.5t-14.5 -68.5z" />
<glyph unicode="A" horiz-adv-x="899" d="M22 1q-1 0 -2 2q0 3 3 9l385 1241q4 10 10 11h55q12 0 14 -11l387 -1237q2 -5 2 -9q0 -7 -8 -7h-28q-8 0 -10.5 1t-6.5 11l-98 314q-2 8 -6 9t-8 1h-529q-8 0 -10 -8l-96 -316q-4 -12 -15 -12h-30q-5 0 -9 1zM192 380q3 -1 7 -1h499q10 0 9 10l-170 549l-86 274 q-2 8 -4.5 8t-4.5 -8l-86 -282l-163 -539q-2 -6 -2 -8q0 -3 1 -3z" />
<glyph unicode="B" horiz-adv-x="962" d="M131 12v1239q0 12 10 13h383q135 0 223.5 -76t88.5 -225q0 -41 -9.5 -82t-31 -79t-57.5 -69t-87 -47q-6 -2 -6 -5t6 -5q57 -16 98.5 -50t68 -78t39.5 -97.5t13 -104.5q0 -76 -22.5 -139.5t-65.5 -109.5t-103.5 -71.5t-135.5 -25.5h-402q-10 0 -10 12zM178 53q0 -8 4 -8 h11h350q66 0 118 23.5t87.5 64.5t54 95.5t18.5 115.5q0 68 -21.5 125t-61.5 99t-94 65.5t-118 23.5h-336q-12 0 -12 -12v-592zM178 713q0 -6 1 -8.5t11 -2.5h338q113 0 186.5 68t73.5 191q0 117 -67.5 188.5t-196.5 71.5h-334q-12 0 -12 -11v-497z" />
<glyph unicode="C" horiz-adv-x="827" d="M119 317v641q0 63 25.5 122t71.5 103t112.5 69.5t146.5 25.5q88 0 167 -30.5t122 -86.5q10 -10 0 -18l-16 -13q-14 -10 -23 5q-37 47 -106.5 73.5t-143.5 26.5q-68 0 -124 -21.5t-97 -59.5t-64.5 -89t-23.5 -111v-632q0 -59 20.5 -112.5t60.5 -93.5t97 -63.5t133 -23.5 q68 0 139.5 23.5t112.5 74.5q12 14 16.5 14t8.5 -4l10 -8q10 -8 10 -13.5t-6 -11.5q-101 -118 -288 -118h-3q-86 0 -152.5 25.5t-112.5 70.5t-69.5 105.5t-23.5 129.5z" />
<glyph unicode="D" horiz-adv-x="950" d="M127 12v1239q0 12 10 13h391q319 0 320 -310v-630q0 -154 -85 -239t-237 -85h-389q-10 0 -10 12zM174 53q0 -10 14 -10h336q125 0 200 68.5t75 212.5v614q0 57 -10.5 108.5t-41 90.5t-84 61.5t-139.5 22.5h-336q-14 0 -14 -11v-1157z" />
<glyph unicode="E" horiz-adv-x="866" d="M127 12v1239q0 12 10 13h623q10 0 10 -13v-20q0 -10 -10 -10h-572q-14 0 -14 -11v-528q0 -6 1 -8t11 -2h510q10 0 11 -13v-20q0 -10 -11 -10h-510q-12 0 -12 -13v-563q0 -10 14 -10h607q10 0 10 -10v-21q0 -12 -10 -12h-658q-10 0 -10 12z" />
<glyph unicode="F" horiz-adv-x="806" d="M129 10v1241q0 12 14 13h643q10 0 11 -13v-20q0 -10 -11 -10h-593q-14 0 -15 -11v-528q0 -6 1 -8t11 -2h502q10 0 10 -13v-20q0 -10 -10 -10h-502q-12 0 -12 -13l-2 -606q0 -10 -10 -10h-25q-12 0 -12 10z" />
<glyph unicode="G" horiz-adv-x="925" d="M119 309v654q0 63 26.5 120.5t73.5 100.5t111.5 68.5t142.5 25.5q88 0 170 -29.5t125 -85.5q10 -10 0 -18l-16 -15q-14 -10 -23 5q-37 47 -109.5 73.5t-146.5 26.5q-66 0 -122 -21.5t-97 -58.5t-64.5 -87t-23.5 -110v-645q0 -68 24.5 -120t67.5 -88.5t99.5 -56 t119.5 -19.5q66 0 122 18.5t98 55t65.5 90t23.5 122.5v301q0 12 -12 13h-194q-10 0 -11 10v20q0 12 11 13h239q14 0 15 -13v-346q0 -72 -26 -131t-72 -103t-111.5 -68.5t-147.5 -24.5q-78 0 -143.5 22.5t-113.5 65.5t-74.5 102.5t-26.5 132.5z" />
<glyph unicode="H" horiz-adv-x="999" d="M123 10v1243q0 10 12 11h25q10 0 10 -11v-571q0 -6 1 -8t11 -2h635q10 0 11 2t1 8v571q0 10 13 11h24q10 0 11 -11v-1243q0 -10 -11 -10h-24q-12 0 -13 10v606q0 12 -12 13h-635q-12 0 -12 -13v-606q0 -10 -10 -10h-25q-12 0 -12 10z" />
<glyph unicode="I" horiz-adv-x="372" d="M162 10v1243q0 10 12 11h25q10 0 10 -11v-1243q0 -10 -10 -10h-25q-12 0 -12 10z" />
<glyph unicode="J" horiz-adv-x="421" d="M-74 -176q4 2 11 4l38 12q74 23 118 56.5t67.5 82t31 113t7.5 150.5v1009q0 10 10 11h27q12 0 12 -11v-1003q0 -90 -8.5 -162t-35 -127t-76.5 -96t-134 -68l-43 -14q-4 -2 -7 -2q-8 0 -12 12l-6 21q-2 5 -2 8t2 4z" />
<glyph unicode="K" horiz-adv-x="931" d="M123 12v1235q0 8 1 12.5t11 4.5h25q10 0 10 -17v-635q0 -14 10 -14q6 0 13 8l579 643q12 12 23 13h26q10 0 9 -5.5t-5 -9.5l-467 -520q-20 -27 9 -16q29 10 66.5 13t66.5 3q98 0 161.5 -30.5t100.5 -79t52 -105.5t20 -111l26 -389q0 -12 -12 -12h-21q-10 0 -12 14 l-27 365q-4 47 -14 100t-41 99.5t-90 76t-158 29.5q-96 0 -156.5 -29.5t-96 -74.5t-49 -98.5t-13.5 -100.5v-367q0 -14 -10 -14h-25q-12 0 -12 12z" />
<glyph unicode="L" horiz-adv-x="776" d="M109 12v1241q0 10 12 11h24q10 0 11 -11v-1198q0 -10 14 -10h586q10 0 10 -10v-23q0 -12 -10 -12h-633q-14 0 -14 12z" />
<glyph unicode="M" horiz-adv-x="1222" d="M113 12v1231q0 4 3 12.5t15 8.5h31q14 0 18 -11l426 -1136q4 -16 10 0l426 1136q4 10 19 11h31q14 0 16 -8.5t2 -12.5v-1231q0 -12 -10 -12h-27q-12 0 -12 12v1123q0 4 -2 5t-6 -5l-408 -1067q-8 -14 -18 -15h-29q-16 0 -20 13l-408 1069q-4 6 -6 5t-2 -5v-1123 q0 -12 -12 -12h-27q-10 0 -10 12z" />
<glyph unicode="N" horiz-adv-x="995" d="M115 12v1237q0 14 14 15h33q12 0 18 -11l643 -1163q4 -6 6 -5t2 5v1161q0 12 13 13h26q10 0 11 -13v-1235q0 -16 -17 -16h-30q-12 0 -19 10l-643 1157q-4 6 -6 5t-2 -5v-1155q0 -12 -12 -12h-27q-10 0 -10 12z" />
<glyph unicode="O" horiz-adv-x="954" d="M119 338v604q0 68 24.5 129.5t70.5 107.5t111.5 72.5t149.5 26.5q86 0 153.5 -25.5t113.5 -71.5t70 -107.5t24 -131.5v-618q0 -72 -24 -134.5t-69 -107.5t-111.5 -70.5t-154.5 -25.5q-96 0 -163.5 28.5t-110.5 77.5t-63.5 112.5t-20.5 133.5zM166 342q0 -59 16.5 -115.5 t53 -100.5t96 -70.5t145.5 -26.5q150 0 230.5 82t80.5 217v610q0 57 -17 110.5t-56 94.5t-98.5 65.5t-141.5 24.5q-78 0 -135 -24.5t-96 -64.5t-58.5 -94.5t-19.5 -111.5v-596z" />
<glyph unicode="P" horiz-adv-x="899" d="M133 10v1239q0 14 17 15h403q72 0 129 -23.5t97 -65.5t61.5 -99.5t21.5 -127.5q0 -145 -84 -232t-225 -87h-358q-14 0 -15 -15v-604q0 -10 -10 -10h-25q-12 0 -12 10zM180 688q0 -16 15 -16h358q133 0 198.5 77.5t65.5 198.5q0 117 -70.5 195t-193.5 78h-354 q-12 0 -15.5 -3.5t-3.5 -9.5v-520z" />
<glyph unicode="Q" horiz-adv-x="954" d="M119 319v637q0 68 27.5 127.5t76.5 102.5t113.5 67.5t138.5 24.5q76 0 142.5 -23.5t114.5 -66.5t76 -102.5t28 -129.5v-645q0 -135 -85 -222t-235 -101q-10 -2 -12 -6.5t-2 -8.5q0 -37 3 -71.5t17.5 -61t41 -43t75.5 -16.5q29 0 56.5 4t66.5 18q10 6 14 -6l6 -20 q4 -10 1 -12.5t-7 -4.5q-63 -24 -132 -24h-5q-61 0 -97 18.5t-55.5 51t-24.5 75.5t-5 90q0 8 -1 11.5t-12 3.5q-76 4 -136 31.5t-102 73.5t-64.5 104.5t-22.5 123.5zM166 324q0 -63 21.5 -116.5t61.5 -93.5t97 -62.5t131 -22.5q66 0 122 19.5t98 56t66.5 90t24.5 120.5v637 q0 57 -21.5 108.5t-62 90.5t-99 61.5t-130.5 22.5q-68 0 -124 -22.5t-98 -60.5t-64.5 -90t-22.5 -110v-628z" />
<glyph unicode="R" horiz-adv-x="933" d="M123 10v1235q0 16 20 17h373q164 0 250 -92.5t86 -239.5q0 -129 -61.5 -215t-145.5 -131q-8 -6 0 -21l256 -551q2 -4 2 -6q0 -6 -10 -6h-27q-12 0 -16 12l-248 533q-6 16 -13 21t-24 5h-381q-14 0 -14 -14v-547q0 -10 -10 -10h-25q-12 0 -12 10zM170 629q0 -16 14 -17 h402q23 0 31 3t12 8q78 41 127 117.5t49 181.5q0 49 -12.5 102t-47 97t-95 72t-156.5 28h-301q-23 0 -23 -17v-575z" />
<glyph unicode="S" horiz-adv-x="847" d="M66 115q0 2 6 8l16 12q10 6 13 4t10 -8q18 -25 50 -43t69.5 -31.5t78.5 -20.5t78 -7q72 0 133.5 17t107.5 52t72.5 88.5t26.5 124.5q0 74 -21.5 124t-59.5 87t-89 62.5t-111 50.5q-59 25 -123.5 52.5t-117.5 64t-89 88t-36 125.5q0 78 29.5 137t78 98t108.5 58.5 t122 19.5q86 0 163.5 -22.5t137.5 -67.5q8 -6 2 -17l-16 -22q-6 -6 -17 0q-59 47 -131 66.5t-135 19.5q-49 0 -101.5 -15.5t-95.5 -47t-69.5 -83t-26.5 -122.5q0 -59 29.5 -102.5t75 -76t100.5 -57t106 -45.5q76 -31 138.5 -62.5t105.5 -73.5t66.5 -97.5t23.5 -130.5 q0 -86 -30.5 -148.5t-84 -103.5t-123 -60.5t-149.5 -19.5q-43 0 -90 7t-90 22.5t-79 36t-56 48.5q-6 6 -6 11z" />
<glyph unicode="T" horiz-adv-x="800" d="M20 1231v20q0 12 11 13h739q10 0 10 -13v-20q0 -10 -10 -10h-334q-14 0 -14 -11v-1200q0 -10 -10 -10h-23q-14 0 -14 10v1200q0 10 -13 11h-331q-10 0 -11 10z" />
<glyph unicode="U" horiz-adv-x="962" d="M123 324v929q0 10 12 11h25q10 0 10 -11v-921q0 -63 19.5 -118.5t58.5 -96.5t98.5 -64.5t138.5 -23.5q76 0 133.5 23.5t96.5 64.5t58.5 94t19.5 115v927q0 10 12 11h24q10 0 11 -11v-929q0 -74 -26 -136.5t-72 -107.5t-111.5 -69.5t-147.5 -24.5q-92 0 -159.5 26.5 t-111.5 72.5t-66.5 107.5t-22.5 131.5z" />
<glyph unicode="V" horiz-adv-x="831" d="M17 1262q3 2 10 2h28q10 0 15 -13l211 -737l131 -463q4 -16 8 0l131 463l209 737q4 10 6 11.5t10 1.5h29q8 0 8 -8q0 -4 -2 -9l-356 -1237q-2 -10 -15 -10h-55q-6 0 -10 10l-357 1241q-2 6 -2 9q0 1 1 2z" />
<glyph unicode="W" horiz-adv-x="1275" d="M-1 1262q3 2 9 2h27q10 0 14 -13l182 -841l78 -361q4 -16 8 0l80 359l193 843q2 12 16 13h39q12 0 14 -17l213 -876l76 -322q4 -16 8 0l68 330l180 872q4 10 6 11.5t11 1.5h30q6 0 6 -11v-6l-264 -1237q-2 -10 -14 -10h-55q-6 0 -11 10l-211 867l-73 313q-2 4 -4 4t-2 -4 l-72 -320l-199 -860q-2 -10 -14 -10h-55q-6 0 -11 10l-272 1241q-2 6 -2 9q0 1 1 2z" />
<glyph unicode="X" horiz-adv-x="808" d="M10 5q-1 2 -1 3q0 3 3 6l357 631q8 12 6 16.5t-4 8.5l-326 579q-8 14 6 15h29q12 0 14 -4l301 -541q4 -6 7.5 -5t5.5 5l303 541q2 4 14 4h29q12 0 6 -15l-324 -575q-8 -12 -5 -18.5t5 -10.5l359 -631q3 -3 3 -6q0 -2 -1 -3q-2 -5 -9 -5h-26h-7t-7 4l-338 598q-4 8 -7.5 6 t-5.5 -4l-338 -600q-4 -4 -7 -4h-7h-27q-6 0 -8 5z" />
<glyph unicode="Y" horiz-adv-x="792" d="M24 1262q3 2 9 2h30q6 0 8.5 -4.5t6.5 -8.5l315 -690q4 -8 8 0l316 690q4 8 6 10.5t10 2.5h29q9 0 9 -7q0 -4 -3 -10l-338 -725q-8 -16 -8 -27.5v-21.5v-463q0 -10 -10 -10h-25q-12 0 -12 10v447q0 16 -1 28.5t-9 28.5l-340 737q-2 6 -2 9q0 2 1 2z" />
<glyph unicode="Z" horiz-adv-x="776" d="M20 12v17q0 10 2.5 17t4.5 11l663 1153q4 8 2 9.5t-10 1.5h-619q-14 0 -14 12v18q0 12 12 13h676q12 0 13 -13v-16q0 -14 -5 -23l-661 -1155q-8 -12 8 -12h651q10 0 11.5 -4t1.5 -8v-21q0 -12 -11 -12h-712q-12 0 -13 12z" />
<glyph unicode="[" horiz-adv-x="600" d="M184 -274v1640q0 12 11 12h233q10 0 10 -12v-16q0 -10 -10 -11h-182q-14 0 -15 -10v-1567q0 -10 15 -10h182q10 0 10 -10v-16q0 -12 -10 -13h-233q-10 0 -11 13z" />
<glyph unicode="\" horiz-adv-x="561" d="M12 1368q-4 10 11 10h14q10 0 12 -10l506 -1495q2 -10 -12 -10h-15q-6 0 -7 3t-3 7z" />
<glyph unicode="]" horiz-adv-x="612" d="M113 -258q0 10 10 10h182q14 0 14 10v1567q0 10 -14 10h-182q-10 0 -10 11v16q0 12 10 12h233q10 0 11 -12v-1640q0 -12 -11 -13h-233q-10 0 -10 13v16z" />
<glyph unicode="^" horiz-adv-x="970" d="M133 809l311 457q4 10 23 10h18q6 0 9.5 -3t7.5 -7l327 -467q6 -8 -6 -19l-12 -8q-4 -4 -10 1t-10 9l-316 418q-4 6 -8 0l-299 -414q-10 -16 -23 -8l-10 8q-12 10 -2 23z" />
<glyph unicode="_" horiz-adv-x="1024" d="M-10 -172q0 12 12 12h1022q10 0 10 -12v-18q0 -10 -10 -11h-1022q-10 0 -10 11z" />
<glyph unicode="`" horiz-adv-x="788" d="M278 1268.5q1 7.5 13 13.5l31 14q18 8 24 -6l133 -254q6 -12 -4 -18l-10 -6q-10 -6 -19 6l-165 239q-4 4 -3 11.5z" />
<glyph unicode="a" horiz-adv-x="727" d="M45 274q0 61 19.5 115.5t57.5 95.5t94 65.5t130 24.5q84 0 147.5 -34.5t94.5 -91.5q4 -8 7 -5.5t3 9.5v147q0 43 -9 89t-35 83t-74 60.5t-128 23.5q-51 0 -114.5 -11t-104.5 -30q-10 -8 -16 4l-8 19q-2 8 8 16q49 23 115.5 34t121.5 11q152 0 221.5 -74.5t69.5 -220.5 v-594q0 -10 -12 -10h-25q-10 0 -10 10v103q0 12 -4 12t-8 -8q-39 -59 -103.5 -93t-152.5 -34q-135 0 -210 77.5t-75 206.5zM90 276q0 -53 13.5 -98t43 -78.5t76.5 -53t115 -19.5q55 0 103 20.5t82 55t53.5 81t19.5 99.5q0 51 -18.5 98t-51 81t-79 54.5t-101.5 20.5 q-61 0 -109.5 -21.5t-81 -56.5t-49 -83t-16.5 -100z" />
<glyph unicode="b" horiz-adv-x="802" d="M102 10v1284q0 10 13 11h24q10 0 11 -11v-518q0 -27 14 -6q47 63 114.5 95t145.5 32q90 0 150.5 -30.5t96.5 -79t51 -107.5t15 -117v-262q0 -66 -20.5 -123t-59.5 -99t-98 -65.5t-135 -23.5t-147.5 28.5t-112.5 96.5q-6 10 -10 8t-4 -12v-101q0 -10 -11 -10h-24 q-12 0 -13 10zM147 301q0 -59 19.5 -109.5t55.5 -86t86 -56t112 -20.5q131 0 201.5 75.5t70.5 202.5v262q0 55 -16.5 107.5t-49 92.5t-85 63.5t-121.5 23.5q-59 0 -109.5 -22.5t-86.5 -61.5t-56.5 -90t-20.5 -109v-272z" />
<glyph unicode="c" horiz-adv-x="727" d="M92 307v275q0 70 23.5 128t66.5 99t101.5 64.5t128.5 23.5q82 0 148.5 -29.5t107.5 -83.5q4 -5 4 -9t-4 -7l-21 -16q-8 -8 -16 2q-37 49 -95.5 75.5t-123.5 26.5q-61 0 -111.5 -21.5t-86.5 -58.5t-56.5 -87t-20.5 -109v-271q0 -131 75 -204.5t202 -73.5q72 0 129 23.5 t90 70.5q12 14 20 8l15 -10q7 -4 7 -10q0 -4 -3 -9q-37 -59 -105.5 -86.5t-154.5 -27.5q-154 0 -237 88t-83 229z" />
<glyph unicode="d" horiz-adv-x="823" d="M100 301v266q0 57 17.5 115.5t56.5 107t98.5 78t145.5 29.5q78 0 147.5 -34t108.5 -95q6 -10 10 -8t4 14v520q0 10 10 11h25q12 0 12 -11v-1284q0 -10 -12 -10h-25q-10 0 -10 10v101q0 20 -14 4q-47 -66 -114.5 -95.5t-143.5 -29.5q-78 0 -136.5 23.5t-98.5 65.5 t-60.5 99.5t-20.5 122.5zM145 307q0 -123 71 -200.5t202 -77.5q61 0 111.5 20.5t86 56t55 86t19.5 109.5v272q0 57 -20.5 108.5t-56 90.5t-86 61.5t-109.5 22.5q-70 0 -121 -23.5t-85 -63.5t-50.5 -92t-16.5 -108v-262z" />
<glyph unicode="e" horiz-adv-x="804" d="M98 305v270q0 78 24.5 137.5t67.5 100.5t100.5 62.5t123.5 21.5t124 -19.5t101 -59.5t68.5 -103.5t25.5 -151.5v-84q0 -29 -22 -28h-547q-20 0 -21 -21v-127q0 -119 70 -196.5t207 -77.5q86 0 135 26.5t86 69.5q8 10 11 11t7 -3l15 -10q12 -6 4 -19q-49 -66 -112.5 -90 t-149.5 -24q-152 0 -235 86t-83 229zM143 516q0 -22 19 -22h2h506q18 0 18 22v62q0 123 -74.5 200.5t-199.5 77.5q-57 0 -106.5 -20.5t-86.5 -57.5t-57.5 -87t-20.5 -109v-66z" />
<glyph unicode="f" horiz-adv-x="509" d="M33 856v18q0 12 10 13h102q14 0 15 16v152q0 143 73.5 204.5t186.5 61.5q29 0 66.5 -5t66.5 -16q8 -2 6 -12l-4 -18q-4 -12 -14 -10q-23 8 -52.5 14t-60.5 6q-63 0 -105 -16.5t-68 -48t-37 -76.5t-11 -101v-135q0 -16 12 -16h277q10 0 10 -13v-18q0 -10 -8 -10h-283 q-8 -2 -8 -17v-819q0 -10 -10 -10h-27q-12 0 -12 10v819q0 14 -8 17h-107q-10 0 -10 10z" />
<glyph unicode="g" horiz-adv-x="845" d="M104 592q0 59 21.5 114.5t61.5 97.5t98.5 67.5t130.5 25.5q41 0 96 -13.5t102 -54.5q16 -14 21.5 -9t11.5 9q33 25 77 44.5t91 23.5q3 1 5 1q11 0 11 -17v-39q0 -14 -12 -15q-35 -2 -80 -12t-61 -20q-10 -6 -8 -13.5t12 -23.5q23 -33 33 -77t10 -83q0 -76 -26.5 -134 t-69.5 -99t-99.5 -62.5t-117.5 -21.5q-20 0 -39 1t-39 5q-16 4 -22.5 2t-14.5 -8q-23 -14 -46.5 -37t-44 -50.5t-32.5 -58.5t-12 -59q0 -25 5 -41.5t28 -11.5q63 12 134.5 21t139.5 9q74 0 142.5 -13t120.5 -43t83 -75t31 -106q0 -66 -37 -125.5t-100 -93.5q-4 -3 -8 -3 q-5 0 -9 5l-14 20q-6 10 6 21q43 29 77 70.5t34 99.5q0 57 -29 95t-74 60.5t-103.5 32.5t-115.5 10q-66 0 -149.5 -11t-161.5 -22q-27 -4 -37 20.5t-10 90.5q0 35 33.5 99.5t105.5 119.5q14 6 -2 19q-72 39 -110 111.5t-38 156.5zM152 592q0 -49 17 -97.5t51 -86t82 -61 t110 -23.5q63 0 113 23.5t84 62.5t51.5 88t17.5 100t-18.5 98t-52.5 82t-83 55.5t-110 20.5q-59 0 -107.5 -21.5t-82.5 -57.5t-53 -84t-19 -99z" />
<glyph unicode="h" horiz-adv-x="839" d="M106 10v1284q0 10 13 11h24q10 0 11 -11v-516q0 -27 14 -6q47 63 114.5 94t145.5 31q90 0 150.5 -29.5t97.5 -78t52 -107.5t15 -119v-553q0 -10 -10 -10h-24q-12 0 -13 10v559q0 55 -17 107.5t-51 92.5t-85 64.5t-119 24.5q-59 0 -109.5 -22.5t-86 -61.5t-55 -91 t-19.5 -110v-563q0 -10 -11 -10h-24q-12 0 -13 10z" />
<glyph unicode="i" horiz-adv-x="327" d="M123 1137q0 18 13.5 30.5t29.5 12.5t27.5 -12.5t11.5 -30.5t-11.5 -30.5t-27.5 -12.5t-29.5 12t-13.5 31zM139 10v867q0 10 13 10h24q10 0 10 -10v-867q0 -10 -10 -10h-24q-12 0 -13 10z" />
<glyph unicode="j" horiz-adv-x="280" d="M-127 -336l6 25q2 8 12 6q16 -4 42 -9t44 -5q76 0 109 44t33 136v1016q0 10 10 10h27q12 0 12 -10v-1014q0 -123 -47 -174t-146 -51q-57 0 -96 14q-8 2 -6 12zM102 1137q0 18 13.5 30.5t29.5 12.5t27.5 -12.5t11.5 -30.5t-11 -30.5t-28 -12.5q-16 0 -29.5 12t-13.5 31z " />
<glyph unicode="k" horiz-adv-x="798" d="M102 10v1284q0 10 13 11h24q10 0 11 -11v-858q0 -16 6 -14t12 6l471 449q8 6 12 8t15 2h34q12 0 5 -13l-340 -321q-10 -10 -9.5 -15.5t11.5 -2.5q10 2 24.5 3t24.5 1q92 0 151.5 -29t93 -74t47 -101t15.5 -110l10 -215q0 -10 -12 -10h-25q-10 0 -10 10l-10 215 q-2 49 -15.5 98.5t-43 87.5t-79 61.5t-124.5 23.5q-55 0 -104.5 -21.5t-84.5 -57.5t-55 -80t-20 -89v-238q0 -10 -11 -10h-24q-12 0 -13 10z" />
<glyph unicode="l" horiz-adv-x="372" d="M152 156v1138q0 10 8 11h24q12 0 13 -11v-1126q0 -57 17 -95t85 -38h18q10 2 12.5 -2t2.5 -8v-25q0 -8 -15 -10q-14 -1 -26 -1q-37 0 -61 9q-32 12 -50 35.5t-23 55.5t-5 67z" />
<glyph unicode="m" horiz-adv-x="1320" d="M102 10v594q0 70 22.5 124t62.5 92t95.5 57.5t118.5 19.5q68 0 135.5 -33t118.5 -125q8 -16 19 0q43 78 116.5 118t141.5 40q154 0 221.5 -77t67.5 -216v-594q0 -10 -11 -10h-24q-12 0 -12 10v594q0 111 -55.5 181.5t-192.5 70.5q-47 0 -90 -19.5t-76 -53t-53.5 -80 t-20.5 -99.5v-594q0 -10 -10 -10h-25q-12 0 -12 10v594q0 53 -19.5 99.5t-53.5 80t-77 53t-88 19.5q-111 0 -181 -70.5t-70 -181.5v-594q0 -10 -11 -10h-24q-12 0 -13 10z" />
<glyph unicode="n" horiz-adv-x="839" d="M106 10v867q0 10 13 10h24q10 0 11 -10v-99q0 -27 14 -6q47 63 114.5 94t145.5 31q90 0 150.5 -29.5t97.5 -78t52 -107.5t15 -119v-553q0 -10 -10 -10h-24q-12 0 -13 10v559q0 55 -17 107.5t-51 92.5t-85 63.5t-119 23.5q-59 0 -109.5 -22.5t-86 -61.5t-55 -90 t-19.5 -109v-563q0 -10 -11 -10h-24q-12 0 -13 10z" />
<glyph unicode="o" horiz-adv-x="835" d="M102 307v275q0 70 22.5 127t64.5 99t101.5 65.5t131.5 23.5q147 0 231 -86t84 -231v-269q0 -154 -82 -237.5t-233 -83.5q-158 0 -239 88t-81 229zM147 309q0 -131 72 -205.5t205 -74.5t200.5 74.5t67.5 209.5v265q0 121 -67.5 199.5t-202.5 78.5q-59 0 -109.5 -21.5 t-87.5 -58.5t-57.5 -87t-20.5 -109v-271z" />
<glyph unicode="p" horiz-adv-x="841" d="M113 -358v1235q0 10 12 10h25q10 0 10 -10v-93q0 -20 14 -4q41 57 112.5 87t147.5 30t135.5 -23.5t98.5 -65.5t59.5 -99.5t20.5 -122.5v-262q0 -57 -15.5 -117t-52.5 -108t-97.5 -78.5t-148.5 -30.5q-78 0 -145.5 29.5t-114.5 93.5q-14 20 -14 -7v-464q0 -10 -10 -11h-25 q-12 0 -12 11zM158 313q0 -57 20.5 -108t56 -90t86 -61.5t109.5 -22.5q68 0 119 22.5t85 61.5t51 91t17 111v263q0 127 -70.5 202.5t-201.5 75.5q-61 0 -111.5 -20.5t-86 -56.5t-55 -86t-19.5 -109v-273z" />
<glyph unicode="q" horiz-adv-x="821" d="M78 324v262q0 66 20.5 123t59.5 99t97 65.5t136 23.5q76 0 147.5 -28.5t112.5 -86.5q14 -16 15 4v91q0 10 10 10h24q12 0 13 -10v-1235q0 -10 -13 -11h-24q-10 0 -10 11v462q0 27 -15 7q-47 -63 -114.5 -92t-145.5 -29q-90 0 -149.5 30.5t-96 78.5t-52 107.5t-15.5 117.5 zM123 317q0 -55 17.5 -107t51 -92t85 -63.5t118.5 -23.5q59 0 109.5 22.5t86.5 61.5t56.5 90t20.5 108v273q0 59 -19.5 109t-55.5 86t-86 56.5t-112 20.5q-131 0 -201.5 -75.5t-70.5 -202.5v-263z" />
<glyph unicode="r" horiz-adv-x="483" d="M113 10v867q0 10 12 10h25q10 0 10 -10v-101q0 -25 14 -4q37 55 94.5 92t126.5 37h29.5t30.5 -4q14 -2 12 -14l-8 -29q-2 -14 -21 -10q-10 2 -23.5 3t-23.5 1q-104 0 -167.5 -78t-63.5 -197v-563q0 -10 -10 -10h-25q-12 0 -12 10z" />
<glyph unicode="s" horiz-adv-x="651" d="M39 131q-3 4 -3 8q0 6 9 11l16 8q12 8 17 -6q33 -53 98.5 -89t136.5 -36q111 0 176.5 49t65.5 137q0 49 -21.5 85t-53 61.5t-70.5 43t-74 29.5q-43 16 -92 35.5t-90 47.5t-68 68t-27 95t23.5 96t61.5 68.5t85 41t95 13.5q80 0 145.5 -25.5t105.5 -66.5q10 -10 3 -19 l-17 -18q-10 -6 -18 2q-39 39 -98.5 62.5t-120.5 23.5q-25 0 -63 -8t-71.5 -28.5t-58.5 -54.5t-25 -85q0 -49 27 -83t67 -58.5t85 -42t82 -29.5q45 -16 88 -37.5t75.5 -51.5t52 -70t19.5 -95q0 -41 -16.5 -81t-50 -71.5t-88 -52t-130.5 -20.5q-82 0 -159.5 35.5 t-118.5 107.5z" />
<glyph unicode="t" horiz-adv-x="542" d="M37 858v19q0 10 10 10h129q10 2 10 14v227q0 8 13 13l24 6h3q7 0 7 -10v-236q0 -12 9 -14h247q10 0 11 -10v-19q0 -12 -11 -12h-243q-12 0 -13 -17v-593q0 -113 38 -159t118 -46q31 0 71 5t62 13q10 2 15 -10l4 -19q2 -10 -6 -12q-29 -10 -77 -14t-77 -4q-61 0 -99 19.5 t-59.5 52t-29 76.5t-7.5 93v598q0 16 -14 17h-125q-10 0 -10 12z" />
<glyph unicode="u" horiz-adv-x="845" d="M106 324v553q0 10 11 10h24q12 0 13 -10v-560q0 -55 17 -107t51 -91t85 -62.5t119 -23.5q59 0 109.5 22.5t86 60.5t55 89t19.5 108v564q0 10 11 10h24q12 0 12 -10v-867q0 -10 -12 -10h-24q-10 0 -11 10v99q0 27 -14 6q-47 -61 -114.5 -93t-145.5 -32q-90 0 -150.5 29.5 t-97.5 77.5t-52.5 107.5t-15.5 119.5z" />
<glyph unicode="v" horiz-adv-x="724" d="M23 874q-1 3 -1 5q0 7 11 8h20q10 0 13.5 -3t7.5 -14l184 -524l98 -285q6 -16 13 0l96 283l184 526q4 10 7 13.5t14 3.5h20q11 0 11 -5q0 -3 -1 -8l-307 -860q-4 -14 -16 -14h-25q-12 0 -15 1t-7 11z" />
<glyph unicode="w" horiz-adv-x="1114" d="M20 874q-1 3 -1 5q0 8 12 8h16q16 0 21 -17l135 -524l71 -291q4 -10 7.5 -9t5.5 9l80 279l159 536q4 10 6.5 13.5t12.5 3.5h22q10 0 12.5 -3t6.5 -14l166 -538l79 -271q4 -10 7.5 -9t5.5 9l67 269l140 540q4 16 20 17h14q9 0 11 -3q1 -1 1 -3q0 -3 -1 -7l-226 -860 q-4 -14 -16 -14h-27q-12 0 -15 1t-7 11l-168 543l-78 256q0 4 -3 6t-5 -6l-74 -260l-164 -537q-4 -14 -16 -14h-27q-12 0 -15 1t-7 11z" />
<glyph unicode="x" horiz-adv-x="665" d="M16 12l275 437q8 12 9 18t-9 20l-242 387q-8 12 8 13h23q10 0 15 -2t11 -13l220 -354q4 -10 12 2l219 352q6 10 11 12.5t16 2.5h22q16 0 8 -13l-243 -391q-8 -12 -6 -18t6 -12l278 -441q3 -4 3 -7q0 -5 -11 -5h-23q-16 0 -26 14l-252 404q-8 14 -16 0l-250 -404 q-10 -14 -27 -14h-22q-11 0 -11 6q0 2 2 6z" />
<glyph unicode="y" horiz-adv-x="688" d="M8 877q-2 10 10 10h25q8 0 12 -10l275 -826q2 -6 5 -7t7 7l281 826q4 10 12 10h24q12 0 11 -10l-418 -1242q-2 -10 -14 -10h-25q-8 0 -8 10l119 359v2q0 4 -5 4h-8q-12 0 -14 10z" />
<glyph unicode="z" horiz-adv-x="628" d="M37 12v17q0 14 4 22l491 783q8 12 -8 12h-458q-14 0 -15 12v16q0 12 12 13h515q12 0 12 -13v-16q0 -14 -4 -22l-492 -783q-8 -12 8 -12h494q14 0 14 -12v-17q0 -12 -12 -12h-549q-12 0 -12 12z" />
<glyph unicode="{" horiz-adv-x="579" d="M94 549v22q0 10 4 13.5t8 5.5q96 41 124 111.5t28 160.5v283q0 137 49 198.5t178 59.5h37q10 0 10 -12v-17q0 -10 -10 -10h-47q-96 0 -136 -47t-40 -154v-338q0 -35 -9 -74.5t-27.5 -75.5t-47.5 -64.5t-70 -43.5q-16 -6 0 -10q76 -27 115 -97.5t39 -172.5v-350 q0 -106 40 -153.5t136 -47.5h47q10 0 10 -10v-17q0 -12 -10 -12h-37q-129 -2 -178 59.5t-49 198.5v307q0 43 -5 84t-20.5 76t-44 63.5t-77.5 46.5q-16 6 -17 17z" />
<glyph unicode="|" horiz-adv-x="372" d="M160 -217v1587q0 10 12 10h25q10 0 10 -10v-1587q0 -10 -10 -10h-25q-12 0 -12 10z" />
<glyph unicode="}" horiz-adv-x="579" d="M72 -274q0 10 10 10h47q96 0 136 47t40 154v358q0 102 39 173t115 97q16 4 0 10q-41 14 -70 43t-47 65t-27.5 76t-9.5 75v329q0 106 -40 153.5t-136 47.5h-47q-10 0 -10 10v17q0 12 10 12h37q129 2 178 -59.5t49 -198.5v-275q0 -90 27.5 -160.5t124.5 -111.5q4 -2 8 -5 t4 -13v-23q0 -10 -16 -16q-49 -18 -78 -47t-44.5 -64t-20.5 -76t-5 -84v-315q0 -137 -49 -198.5t-178 -59.5h-37q-10 0 -10 12v17z" />
<glyph unicode="~" d="M37 575q37 55 93 84t116 29q51 0 100 -22.5t96 -49t94.5 -49t94.5 -22.5q51 0 94 31.5t72 70.5q6 10 10 10t8 -2l25 -18q8 -6 2 -16q-37 -63 -93.5 -96t-115.5 -33t-112.5 20t-100.5 47q-39 23 -87 48.5t-91 25.5q-45 0 -88 -23.5t-76 -68.5q-6 -8 -11.5 -5t-9.5 7 l-16 12q-12 8 -4 20z" />
<glyph unicode="&#xa2;" d="M147 307v275q0 127 75 212t196 101q6 0 6 10v148q0 12 12 12h23q12 0 12 -12v-146q0 -10 10 -10q162 -4 242 -113q8 -10 0 -16l-23 -16q-8 -8 -16 2q-41 55 -102 77.5t-133 22.5q-59 0 -106.5 -22.5t-80.5 -60.5t-51 -88t-18 -103v-271q0 -119 64.5 -198.5t186.5 -79.5 q78 0 134.5 21.5t103.5 72.5q12 14 20 8l21 -10q8 -4 7 -9t-3 -10q-82 -111 -250 -114q-6 0 -6 -6v-166q0 -10 -8 -11h-29q-10 0 -10 11v168q0 6 -8 6q-135 10 -202 99t-67 216z" />
<glyph unicode="&#xa3;" d="M68 633v20q0 12 10 13h106q4 0 9 6v301q0 63 24.5 119.5t68.5 97.5t105.5 64.5t136.5 23.5q88 0 161 -30.5t116 -86.5q10 -10 0 -18l-17 -13q-14 -10 -22 5q-37 47 -100.5 73.5t-137.5 26.5q-61 0 -114.5 -19.5t-91 -54.5t-60 -84t-22.5 -108v-293q0 -10 8 -10h278 q10 0 11 -13v-20q0 -12 -11 -12h-278q-8 0 -8 -11v-241q0 -90 -7.5 -171t-62.5 -141q-10 -12 8 -12h567q10 0 11.5 -4t1.5 -8v-21q0 -12 -10 -12h-664q-12 0 -12 12v19q0 12 6 14t16 8q47 33 73 95.5t26 189.5v276q-4 6 -11 7h-104q-10 0 -10 12z" />
<glyph unicode="&#xa5;" d="M87 1262.5q3 1.5 9 1.5h29q6 0 8 -4.5t6 -8.5l297 -579q4 -8 8 0l295 579q4 8 6.5 10.5t10.5 2.5h28q14 0 7 -17l-312 -604q-4 -8 -6 -15l-4 -14q-4 -16 14 -16h291q10 0 10 -10v-17q0 -12 -10 -12h-653q-10 0 -10 12v17q0 10 10 10h278q16 0 13 14q0 6 -4 15l-320 624 q-4 10 -1 11.5zM111 444v17q0 10 10 10h653q10 0 10 -10v-17q0 -12 -10 -12h-291q-8 0 -13 -3t-5 -15v-404q0 -10 -10 -10h-25q-12 0 -12 10v404q0 6 -2 12t-13 6h-282q-10 0 -10 12z" />
<glyph unicode="&#xa8;" horiz-adv-x="784" d="M223 1165q0 18 12.5 30.5t28.5 12.5t28.5 -11.5t12.5 -31.5q0 -18 -12 -30.5t-29 -12.5q-16 0 -28.5 13.5t-12.5 29.5zM528 1165q0 18 12.5 30.5t28.5 12.5t29.5 -12.5t13.5 -30.5q0 -16 -13 -29.5t-30 -13.5q-16 0 -28.5 13.5t-12.5 29.5z" />
<glyph unicode="&#xa9;" horiz-adv-x="1427" d="M135 485v293q0 111 42 201t118 152.5t183.5 97.5t238.5 35t239.5 -33t185.5 -95.5t120 -152.5t43 -205v-293q0 -115 -43 -205t-120 -152t-185.5 -95t-239.5 -33t-238.5 35t-183.5 97.5t-118 152.5t-42 200zM168 479q0 -90 36 -172t104.5 -143.5t171 -97t235.5 -35.5 q131 0 234.5 34.5t175 96t109.5 143.5t38 174v305q0 94 -38 177t-109.5 142.5t-175 94.5t-234.5 35q-133 0 -235.5 -36t-171 -96.5t-104.5 -142t-36 -174.5v-305zM463 514v201q0 53 19.5 99t54 80t83 53.5t107.5 19.5q72 0 129 -26t92 -71q6 -12 -2 -16l-12 -8 q-10 -10 -19 2q-29 39 -79 61.5t-109 22.5q-49 0 -90 -16.5t-71.5 -45t-48 -69.5t-17.5 -90v-193q0 -49 18.5 -90t49 -71.5t72.5 -47t89 -16.5q53 0 104.5 21.5t81.5 62.5q10 12 12.5 12t8.5 -4l12 -8q10 -6 9 -10.5t-5 -10.5q-35 -47 -92 -71.5t-131 -24.5 q-121 0 -193.5 69.5t-72.5 184.5z" />
<glyph unicode="&#xab;" horiz-adv-x="882" d="M164 387q-10 14 0 27l268 325q6 8 9 9.5t14 1.5h28q16 0 6 -15l-270 -327q-4 -6 -4 -8.5t4 -6.5l270 -338q6 -8 3 -11t-9 -3h-28h-11.5t-11.5 8zM430 387q-10 14 0 27l268 325q6 8 9.5 9.5t13.5 1.5h29q16 0 6 -15l-271 -327q-4 -6 -4 -8.5t4 -6.5l271 -338q6 -8 3 -11 t-9 -3h-29h-11t-12 8z" />
<glyph unicode="&#xad;" horiz-adv-x="569" d="M127 471v35q0 12 10 12h299q10 0 10 -12v-35q0 -10 -10 -10h-299q-10 0 -10 10z" />
<glyph unicode="&#xae;" horiz-adv-x="817" d="M90 893v164q0 113 82 189.5t234 76.5q147 0 232 -74.5t85 -191.5v-164q0 -115 -75.5 -190.5t-241.5 -75.5q-76 0 -134.5 20.5t-98.5 57t-61.5 85t-21.5 103.5zM119 895q0 -109 75.5 -174.5t211.5 -65.5q135 0 211.5 64.5t76.5 175.5v160q0 111 -76.5 174t-211.5 63 t-211 -65.5t-76 -171.5v-160zM301 797v354q0 4 3 8t11 4h107q55 0 85 -30.5t30 -75.5q0 -31 -17.5 -56.5t-44.5 -35.5q-6 -4 -11 -9.5t-1 -13.5l2 -4l70 -139q4 -4 4 -9.5t-9 -5.5h-18q-6 0 -10 13q-10 18 -23.5 43.5t-23.5 48.5q-14 27 -27 57q-6 10 -18 10h-66 q-12 0 -12 -10v-149q0 -12 -8 -13h-11q-12 0 -12 13zM332 991q0 -10 12 -10h80q35 0 57.5 21.5t22.5 56.5q0 33 -22.5 54.5t-57.5 21.5h-80q-12 0 -12 -9v-135z" />
<glyph unicode="&#xb4;" horiz-adv-x="788" d="M352 1036l133 254q6 14 25 6l31 -14q12 -6 13 -13t-3 -12l-166 -239q-8 -14 -18 -6l-11 6q-10 6 -4 18z" />
<glyph unicode="&#xb8;" horiz-adv-x="727" d="M287 -336l8 12q4 10 12 2q27 -16 56.5 -25t58.5 -9q137 0 137 100q0 31 -22.5 63.5t-94.5 32.5h-73q-10 0 -17.5 4t-3.5 21l37 135q2 4 3 8t7 4h23q6 0 5 -4t-1 -6l-27 -106q-6 -18 13 -19h26q74 0 120 -33.5t46 -99.5q0 -59 -47 -96t-125 -37q-35 0 -78 12t-63 29 q-6 6 0 12z" />
<glyph unicode="&#xbb;" horiz-adv-x="882" d="M138 44q-3 3 3 11l271 338q4 4 4 6t-4 9l-271 327q-10 14 6 15h29q10 0 13.5 -1t9.5 -10l268 -325q10 -12 0 -27l-268 -338q-6 -8 -11.5 -8h-11.5h-29q-6 0 -9 3zM404.5 44q-3.5 3 3.5 11l270 338q4 4 4 6t-4 9l-270 327q-10 14 6 15h28q10 0 13.5 -1t9.5 -10l268 -325 q10 -12 0 -27l-268 -338q-6 -8 -11 -8h-12h-28q-6 0 -9.5 3z" />
<glyph unicode="&#x2c6;" horiz-adv-x="835" d="M186 1035q0 1 4 7l191 240q12 14 27 14h43q12 0 24 -14l191 -233q8 -10 0 -17l-11 -10q-8 -8 -16 2l-205 211q-10 10 -16 0l-199 -213q-10 -10 -16 -4l-13 10q-4 6 -4 7z" />
<glyph unicode="&#x2da;" horiz-adv-x="727" d="M262 1153q0 55 35 93t90 38q53 0 91 -38t38 -93t-38 -93t-91 -38q-55 0 -90 38t-35 93zM301 1153q0 -39 24.5 -65.5t61.5 -26.5q35 0 61.5 26.5t26.5 65.5t-26.5 65.5t-61.5 26.5q-37 0 -61.5 -26.5t-24.5 -65.5z" />
<glyph unicode="&#x2dc;" horiz-adv-x="727" d="M137 1118q23 41 56.5 57.5t78.5 16.5q29 0 56.5 -9t54.5 -20.5t52.5 -20.5t51.5 -9q68 0 109 55q8 10 16 6l21 -8q10 -4 4 -17q-29 -47 -70 -62t-78 -15q-31 0 -60.5 9t-57 20.5t-54 20.5t-55.5 9q-59 0 -88 -49q-8 -12 -18 -6l-17 6q-10 4 -2 16z" />
<glyph unicode="&#x401;" horiz-adv-x="866" d="M127 12v1239q0 12 10 13h623q10 0 10 -13v-20q0 -10 -10 -10h-572q-14 0 -14 -11v-528q0 -6 1 -8t11 -2h510q10 0 11 -13v-20q0 -10 -11 -10h-510q-12 0 -12 -13v-563q0 -10 14 -10h607q10 0 10 -10v-21q0 -12 -10 -12h-658q-10 0 -10 12zM244 1446q0 18 13 30.5t30 12.5 q16 0 27.5 -12.5t11.5 -30.5t-11.5 -30.5t-27.5 -12.5t-29.5 12t-13.5 31zM551 1446q0 18 12 30.5t29 12.5q16 0 29.5 -12.5t13.5 -30.5t-13.5 -30.5t-29.5 -12.5t-28.5 12t-12.5 31z" />
<glyph unicode="&#x402;" horiz-adv-x="1169" d="M41 1231v20q0 12 10 13h885q10 0 10 -13v-20q0 -10 -10 -10h-520q-14 0 -15 -11l-2 -493q0 -20 15 -6q74 70 155.5 98.5t163.5 28.5q98 0 166 -30t108 -81t57 -116.5t17 -135.5v-162q0 -57 -17 -116.5t-56 -107.5t-99.5 -78.5t-148.5 -30.5l-41 2q-12 0 -8 14l2 16 q0 12 14 13l35 -2q68 0 119 22.5t84.5 61t51 91t17.5 109.5v158q0 70 -16.5 130t-53 104t-96 69t-145.5 25q-98 0 -176 -40t-131 -106q-10 -14 -13.5 -24.5t-3.5 -20.5v-592q0 -10 -10 -10h-20q-14 0 -15 10v1200q0 10 -12 11h-291q-10 0 -10 10z" />
<glyph unicode="&#x403;" horiz-adv-x="800" d="M129 10v1241q0 12 14 13h637q10 0 11 -13v-20q0 -10 -11 -10h-587q-14 0 -15 -11v-249v-162.5v-107.5v-79v-77.5t-1 -107.5t-1 -166v-251q0 -10 -10 -10h-25q-12 0 -12 10zM340 1331q-10 10 4 21l215 190q12 10 25 -4l24 -25q10 -10 7 -16t-7 -10l-239 -164q-12 -8 -21 0 z" />
<glyph unicode="&#x404;" horiz-adv-x="827" d="M119 317v641q0 63 25.5 122t71.5 103t112.5 69.5t146.5 25.5q88 0 167 -30.5t122 -86.5q10 -10 0 -18l-16 -13q-14 -10 -23 5q-37 47 -106.5 73.5t-143.5 26.5q-68 0 -124 -21.5t-97 -59.5t-64.5 -89t-23.5 -111v-270q0 -8 10 -8h428q10 0 10 -12v-21q0 -10 -10 -10h-428 q-10 0 -10 -8v-303q0 -59 20.5 -112.5t60.5 -93.5t97 -63.5t133 -23.5q68 0 139.5 23.5t112.5 74.5q12 14 16.5 14t8.5 -4l10 -8q10 -8 10 -13.5t-6 -11.5q-102 -119 -291 -118q-86 0 -152.5 25.5t-112.5 70.5t-69.5 105.5t-23.5 129.5z" />
<glyph unicode="&#x405;" horiz-adv-x="847" d="M66 115q0 2 6 8l16 12q10 6 13 4t10 -8q18 -25 50 -43t69.5 -31.5t78.5 -20.5t78 -7q72 0 133.5 17t107.5 52t72.5 88.5t26.5 124.5q0 74 -21.5 124t-59.5 87t-89 62.5t-111 50.5q-59 25 -123.5 52.5t-117.5 64t-89 88t-36 125.5q0 78 29.5 137t78 98t108.5 58.5 t122 19.5q86 0 163.5 -22.5t137.5 -67.5q8 -6 2 -17l-16 -22q-6 -6 -17 0q-59 47 -131 66.5t-135 19.5q-49 0 -101.5 -15.5t-95.5 -47t-69.5 -83t-26.5 -122.5q0 -59 29.5 -102.5t75 -76t100.5 -57t106 -45.5q76 -31 138.5 -62.5t105.5 -73.5t66.5 -97.5t23.5 -130.5 q0 -86 -30.5 -148.5t-84 -103.5t-123 -60.5t-149.5 -19.5q-43 0 -90 7t-90 22.5t-79 36t-56 48.5q-6 6 -6 11z" />
<glyph unicode="&#x406;" horiz-adv-x="372" d="M162 10v1243q0 10 12 11h25q10 0 10 -11v-1243q0 -10 -10 -10h-25q-12 0 -12 10z" />
<glyph unicode="&#x407;" horiz-adv-x="372" d="M-10 1446q0 18 13 30.5t30 12.5q16 0 27.5 -12.5t11.5 -30.5t-11.5 -30.5t-27.5 -12.5t-29.5 12t-13.5 31zM162 10v1243q0 10 12 11h25q10 0 10 -11v-1243q0 -10 -10 -10h-25q-12 0 -12 10zM297 1446q0 18 12.5 30.5t28.5 12.5t29.5 -12.5t13.5 -30.5t-13.5 -30.5 t-29.5 -12.5t-28.5 12t-12.5 31z" />
<glyph unicode="&#x408;" horiz-adv-x="421" d="M-74 -176q4 2 11 4l38 12q74 23 118 56.5t67.5 82t31 113t7.5 150.5v1009q0 10 10 11h27q12 0 12 -11v-1003q0 -90 -8.5 -162t-35 -127t-76.5 -96t-134 -68l-43 -14q-14 -6 -19 10l-6 21q-4 10 0 12z" />
<glyph unicode="&#x409;" horiz-adv-x="1527" d="M8 8q-4 10 10 17q63 25 108.5 79t72 163.5t39 288.5t12.5 456v241q0 10 12 11h526q10 0 11 -11v-565q0 -14 14 -14h369q76 0 134 -25.5t97 -71t58.5 -107.5t19.5 -134q0 -70 -21.5 -130.5t-61.5 -106.5t-97.5 -72.5t-128.5 -26.5h-414q-16 0 -16 14v1196q0 10 -13 11 h-430q-12 0 -12 -13v-196q0 -295 -14.5 -482.5t-45 -301t-82 -168t-124.5 -80.5q-12 -4 -17 8zM799 55q0 -6 3 -9t15 -3h365q61 0 110 23.5t83 64.5t52.5 93.5t18.5 111.5t-17.5 113.5t-51.5 94.5t-83 63.5t-112 23.5h-369q-14 0 -14 -17v-559z" />
<glyph unicode="&#x40a;" horiz-adv-x="1517" d="M123 10v1243q0 10 12 11h25q10 0 10 -11v-569q0 -6 1 -8t11 -2h547q10 0 11 4t1 10v565q0 10 13 11h24q10 0 10 -11v-565q0 -14 15 -14h368q70 0 127.5 -25.5t98.5 -71t62.5 -107.5t21.5 -134q0 -70 -21.5 -130.5t-61.5 -106.5t-97.5 -72.5t-129.5 -26.5h-413 q-16 0 -17 14v604q-4 12 -12 13h-547q-12 0 -12 -13v-608q0 -10 -10 -10h-25q-12 0 -12 10zM788 55q0 -6 3.5 -9t15.5 -3h364q61 0 110.5 23.5t83.5 64.5t52.5 93.5t18.5 111.5t-17.5 113.5t-51.5 94.5t-83 63.5t-113 23.5h-368q-14 0 -15 -17v-559z" />
<glyph unicode="&#x40b;" horiz-adv-x="1204" d="M41 1231v20q0 12 10 13h885q10 0 10 -13v-20q0 -10 -10 -10h-520q-14 0 -15 -11l-2 -493q0 -20 15 -6q74 70 155.5 98.5t163.5 28.5q98 0 166 -30t108 -81t57 -116.5t17 -135.5v-465q0 -10 -10 -10h-24q-12 0 -13 10v455q0 70 -16.5 130t-53 104t-96 69t-145.5 25 q-98 0 -176 -40t-131 -106q-10 -14 -13.5 -24.5t-3.5 -20.5v-592q0 -10 -10 -10h-20q-14 0 -15 10v1200q0 10 -12 11h-291q-10 0 -10 10z" />
<glyph unicode="&#x40c;" horiz-adv-x="931" d="M123 12v1235q0 8 1 12.5t11 4.5h25q10 0 10 -17v-635q0 -14 10 -14q6 0 13 8l579 643q12 12 23 13h26q10 0 9 -5.5t-5 -9.5l-467 -520q-20 -27 9 -16q29 10 66.5 13t66.5 3q98 0 161.5 -30.5t100.5 -79t52 -105.5t20 -111l26 -389q0 -12 -12 -12h-21q-10 0 -12 14 l-27 365q-4 47 -14 100t-41 99.5t-90 76t-158 29.5q-96 0 -156.5 -29.5t-96 -74.5t-49 -98.5t-13.5 -100.5v-367q0 -14 -10 -14h-25q-12 0 -12 12zM344 1337q-10 10 4 21l215 190q12 10 25 -4l24 -24q10 -10 7 -16.5t-7 -10.5l-239 -164q-12 -8 -21 0z" />
<glyph unicode="&#x40e;" horiz-adv-x="815" d="M18 1251q-4 12 9 13h28q10 0 15 -13l348 -884q4 -8 8 0l309 884q4 8 6 10.5t11 2.5h28q14 0 6 -17l-372 -1054q-23 -61 -41.5 -101.5t-42 -63t-54 -31.5t-75.5 -9h-29q-8 0 -8 10v27q0 12 8 12h47q49 0 79 31.5t48 83.5l27 69q8 27 12 44.5t3 32.5t-6 29.5t-13 37.5z M201 1501q0 8 8 8h18q8 0 13 -18q10 -72 62 -114t118 -42q68 0 122 42t64 114q2 8 3 13t7 5h19q8 0 8 -8q0 -49 -20.5 -89t-53 -66.5t-71.5 -41t-78 -14.5t-78 14.5t-70.5 42t-51 66.5t-19.5 88z" />
<glyph unicode="&#x40f;" horiz-adv-x="999" d="M123 10v1243q0 10 12 11h25q10 0 10 -11v-1198q0 -12 12 -12h635q12 0 12 12v1198q0 10 13 11h24q10 0 11 -11v-1243q0 -10 -11 -10h-327q-12 0 -13 -10v-264q0 -16 -10 -17h-35q-10 0 -10 17v264q0 10 -12 10h-324q-12 0 -12 10z" />
<glyph unicode="&#x410;" horiz-adv-x="899" d="M21.5 1q-3.5 1 1.5 11l385 1241q4 10 10 11h55q12 0 14 -11l387 -1237q6 -16 -6 -16h-28q-8 0 -10.5 1t-6.5 11l-98 314q-2 8 -6 9t-8 1h-529q-8 0 -10 -8l-96 -316q-4 -12 -15 -12h-30q-6 0 -9.5 1zM192 380q3 -1 7 -1h499q10 0 9 10l-170 549l-86 274q-4 16 -9 0 l-86 -282l-163 -539q-4 -10 -1 -11z" />
<glyph unicode="&#x411;" d="M104 14v1233q0 6 3.5 11.5t17.5 5.5h620q10 0 11 -11v-22q0 -10 -11 -10h-585q-8 0 -8 -9v-524q0 -14 14 -14h369q76 0 134 -25.5t97 -71t58.5 -107.5t19.5 -134q0 -70 -21.5 -130.5t-61.5 -106.5t-97.5 -72.5t-128.5 -26.5h-414q-16 0 -17 14zM152 55q0 -6 3 -9t15 -3 h365q61 0 110 23.5t83 64.5t52.5 93.5t18.5 111.5t-17.5 113.5t-51.5 94.5t-83 63.5t-112 23.5h-369q-14 0 -14 -17v-559z" />
<glyph unicode="&#x412;" horiz-adv-x="962" d="M131 12v1239q0 12 10 13h383q135 0 223.5 -76t88.5 -225q0 -41 -9.5 -82t-31 -79t-57.5 -69t-87 -47q-6 -2 -6 -5t6 -5q57 -16 98.5 -50t68 -78t39.5 -97.5t13 -104.5q0 -76 -22.5 -139.5t-65.5 -109.5t-103.5 -71.5t-135.5 -25.5h-402q-10 0 -10 12zM178 53q0 -8 4 -8 h11h350q66 0 118 23.5t87.5 64.5t54 95.5t18.5 115.5q0 68 -21.5 125t-61.5 99t-94 65.5t-118 23.5h-336q-12 0 -12 -12v-592zM178 713q0 -6 1 -8.5t11 -2.5h338q113 0 186.5 68t73.5 191q0 117 -67.5 188.5t-196.5 71.5h-334q-12 0 -12 -11v-497z" />
<glyph unicode="&#x413;" horiz-adv-x="800" d="M129 10v1241q0 12 14 13h637q10 0 11 -13v-20q0 -10 -11 -10h-587q-14 0 -15 -11v-249v-162.5v-107.5v-79v-77.5t-1 -107.5t-1 -166v-251q0 -10 -10 -10h-25q-12 0 -12 10z" />
<glyph unicode="&#x414;" horiz-adv-x="1058" d="M10 33q0 12 13 16l57 2q70 53 102.5 142.5t40.5 212.5l49 845q0 10 13 11h602q10 0 10 -11v-1192q0 -14 14 -16h64q12 -2 12 -16v-287q0 -16 -10 -16h-27q-10 0 -10 16v248q0 12 -12 12h-858q-12 0 -13 -12v-248q0 -16 -10 -16h-27q-10 0 -10 16v293zM146.5 48 q0.5 -5 15.5 -5h676q12 0 12 12v1151q0 12 -12 13h-510q-12 0 -13 -13l-49 -817q-6 -111 -32.5 -190.5t-83.5 -141.5q-4 -4 -3.5 -9z" />
<glyph unicode="&#x415;" horiz-adv-x="866" d="M127 12v1239q0 12 10 13h623q10 0 10 -13v-20q0 -10 -10 -10h-572q-14 0 -14 -11v-528q0 -6 1 -8t11 -2h510q10 0 11 -13v-20q0 -10 -11 -10h-510q-12 0 -12 -13v-563q0 -10 14 -10h607q10 0 10 -10v-21q0 -12 -10 -12h-658q-10 0 -10 12z" />
<glyph unicode="&#x416;" horiz-adv-x="1536" d="M92 12l27 389q4 53 18.5 110.5t49 106t98 79t166.5 30.5q29 0 71.5 -4t71.5 -14t8 16l-469 522q-4 4 -5 9.5t9 5.5h27q10 0 22 -13l545 -604q6 -8 12 -8q10 0 11 14v596q0 16 10 17h24q10 0 11.5 -4.5t1.5 -12.5v-600q0 -10 10 -10q6 0 12 8l533 604q12 12 22 13h27 q10 0 9 -5.5t-5 -9.5l-457 -522q-20 -27 9 -16q29 10 74.5 14t74.5 4q98 0 157.5 -30.5t91.5 -79t43 -105.5t15 -111l27 -389q0 -12 -12 -12h-21q-10 0 -12 14l-27 365q-4 47 -10 100t-31.5 99.5t-81 76t-153.5 29.5q-96 0 -153.5 -22.5t-89.5 -61.5t-42 -88t-10 -102v-398 q0 -12 -13 -12h-24q-10 0 -10 14v396q0 57 -10.5 107t-42 87t-90 58.5t-152.5 21.5q-98 0 -155.5 -29.5t-87.5 -76t-40 -99.5t-12 -100l-27 -365q-2 -14 -12 -14h-21q-12 0 -12 12z" />
<glyph unicode="&#x417;" horiz-adv-x="870" d="M34 114.5q-1 4.5 9 12.5l16 10q8 4 10.5 4t14.5 -14q20 -25 52 -44.5t70 -31.5t77 -18t73 -6q68 0 130.5 22.5t111.5 66.5t78 108.5t29 148.5q0 70 -25 126t-66 94t-92 58.5t-106 20.5h-180q-10 0 -11 10v23q0 12 11 12h180q49 0 95 18.5t83 51t59.5 78.5t22.5 104 q0 53 -21.5 101t-61.5 84t-96.5 57.5t-125.5 21.5q-76 0 -153 -25.5t-114 -72.5q-8 -14 -22 -5l-16 13q-10 8 0 18q43 55 130 85t175 30q74 0 138 -20.5t112.5 -60.5t76 -96.5t27.5 -125.5q0 -57 -20.5 -105.5t-50 -83t-63.5 -57t-61 -29.5q-8 -2 -8 -6t8 -6 q45 -10 86 -37.5t71 -69.5t47.5 -93.5t17.5 -106.5q0 -96 -32 -169t-85 -123t-126 -75.5t-155 -25.5q-47 0 -94 7t-89 22.5t-77 37t-55 49.5q-4 8 -5 12.5z" />
<glyph unicode="&#x418;" horiz-adv-x="995" d="M115 10v1241q0 12 10 13h27q12 0 12 -13v-1151q0 -4 2 -5t6 5l643 1153q6 10 19 11h36q10 0 11 -11v-1241q0 -12 -11 -12h-26q-12 0 -13 12v1151q0 4 -2 5t-6 -5l-643 -1153q-6 -10 -18 -10h-37q-10 0 -10 10z" />
<glyph unicode="&#x419;" horiz-adv-x="995" d="M115 10v1241q0 12 10 13h27q12 0 12 -13v-1151q0 -4 2 -5t6 5l643 1153q6 10 19 11h36q10 0 11 -11v-1241q0 -12 -11 -12h-26q-12 0 -13 12v1151q0 4 -2 5t-6 -5l-643 -1153q-6 -10 -18 -10h-37q-10 0 -10 10zM270 1518q0 8 9 8h18q8 0 12 -19q10 -72 62.5 -113.5 t117.5 -41.5q68 0 122.5 42t64.5 113q2 8 3 13.5t7 5.5h19q8 0 8 -8q0 -49 -20.5 -89t-53.5 -67t-72 -41t-78 -14t-77.5 14t-70.5 42t-51.5 67t-19.5 88z" />
<glyph unicode="&#x41a;" horiz-adv-x="931" d="M123 12v1235q0 8 1 12.5t11 4.5h25q10 0 10 -17v-635q0 -14 10 -14q6 0 13 8l579 643q12 12 23 13h26q10 0 9 -5.5t-5 -9.5l-467 -520q-20 -27 9 -16q29 10 66.5 13t66.5 3q98 0 161.5 -30.5t100.5 -79t52 -105.5t20 -111l26 -389q0 -12 -12 -12h-21q-10 0 -12 14 l-27 365q-4 47 -14 100t-41 99.5t-90 76t-158 29.5q-96 0 -156.5 -29.5t-96 -74.5t-49 -98.5t-13.5 -100.5v-367q0 -14 -10 -14h-25q-12 0 -12 12z" />
<glyph unicode="&#x41b;" horiz-adv-x="985" d="M6 8q-4 10 10 17q63 25 108.5 79t72 163.5t39 288.5t12.5 456v241q0 10 12 11h596q10 0 10 -11v-1243q0 -10 -10 -10h-25q-12 0 -12 10v1198q0 12 -12 13h-500q-12 0 -12 -13v-196q0 -295 -14.5 -482.5t-45 -301t-82 -168t-124.5 -80.5q-12 -4 -17 8z" />
<glyph unicode="&#x41c;" horiz-adv-x="1222" d="M113 12v1231q0 4 3 12.5t15 8.5h31q14 0 18 -11l426 -1136q4 -16 10 0l426 1136q4 10 19 11h31q14 0 16 -8.5t2 -12.5v-1231q0 -12 -10 -12h-27q-12 0 -12 12v1123q0 4 -2 5t-6 -5l-408 -1067q-8 -14 -18 -15h-29q-16 0 -20 13l-408 1069q-4 6 -6 5t-2 -5v-1123 q0 -12 -12 -12h-27q-10 0 -10 12z" />
<glyph unicode="&#x41d;" horiz-adv-x="999" d="M123 10v1243q0 10 12 11h25q10 0 10 -11v-571q0 -6 1 -8t11 -2h635q10 0 11 2t1 8v571q0 10 13 11h24q10 0 11 -11v-1243q0 -10 -11 -10h-24q-12 0 -13 10v606q0 12 -12 13h-635q-12 0 -12 -13v-606q0 -10 -10 -10h-25q-12 0 -12 10z" />
<glyph unicode="&#x41e;" horiz-adv-x="954" d="M119 338v604q0 68 24.5 129.5t70.5 107.5t111.5 72.5t149.5 26.5q86 0 153.5 -25.5t113.5 -71.5t70 -107.5t24 -131.5v-618q0 -72 -24 -134.5t-69 -107.5t-111.5 -70.5t-154.5 -25.5q-96 0 -163.5 28.5t-110.5 77.5t-63.5 112.5t-20.5 133.5zM166 342q0 -59 16.5 -115.5 t53 -100.5t96 -70.5t145.5 -26.5q150 0 230.5 82t80.5 217v610q0 57 -17 110.5t-56 94.5t-98.5 65.5t-141.5 24.5q-78 0 -135 -24.5t-96 -64.5t-58.5 -94.5t-19.5 -111.5v-596z" />
<glyph unicode="&#x41f;" horiz-adv-x="999" d="M123 10v1243q0 10 12 11h731q10 0 11 -11v-1243q0 -10 -11 -10h-24q-12 0 -13 10v1198q0 12 -12 13h-635q-12 0 -12 -13v-1198q0 -10 -10 -10h-25q-12 0 -12 10z" />
<glyph unicode="&#x420;" horiz-adv-x="899" d="M133 10v1239q0 14 17 15h403q72 0 129 -23.5t97 -65.5t61.5 -99.5t21.5 -127.5q0 -145 -84 -232t-225 -87h-358q-14 0 -15 -15v-604q0 -10 -10 -10h-25q-12 0 -12 10zM180 688q0 -16 15 -16h358q133 0 198.5 77.5t65.5 198.5q0 117 -70.5 195t-193.5 78h-354 q-12 0 -15.5 -3.5t-3.5 -9.5v-520z" />
<glyph unicode="&#x421;" horiz-adv-x="827" d="M119 317v641q0 63 25.5 122t71.5 103t112.5 69.5t146.5 25.5q88 0 167 -30.5t122 -86.5q10 -10 0 -18l-16 -13q-14 -10 -23 5q-37 47 -106.5 73.5t-143.5 26.5q-68 0 -124 -21.5t-97 -59.5t-64.5 -89t-23.5 -111v-632q0 -59 20.5 -112.5t60.5 -93.5t97 -63.5t133 -23.5 q68 0 139.5 23.5t112.5 74.5q12 14 16.5 14t8.5 -4l10 -8q10 -8 10 -13.5t-6 -11.5q-102 -119 -291 -118q-86 0 -152.5 25.5t-112.5 70.5t-69.5 105.5t-23.5 129.5z" />
<glyph unicode="&#x422;" horiz-adv-x="800" d="M20 1231v20q0 12 11 13h739q10 0 10 -13v-20q0 -10 -10 -10h-334q-14 0 -14 -11v-1200q0 -10 -10 -10h-23q-14 0 -14 10v1200q0 10 -13 11h-331q-10 0 -11 10z" />
<glyph unicode="&#x423;" horiz-adv-x="815" d="M18 1251q-4 12 9 13h28q10 0 15 -13l348 -884q4 -8 8 0l309 884q4 8 6 10.5t11 2.5h28q14 0 6 -17l-372 -1054q-23 -61 -41.5 -101.5t-42 -63t-54 -31.5t-75.5 -9h-29q-8 0 -8 10v27q0 12 8 12h47q49 0 79 31.5t48 83.5l27 69q8 27 12 44.5t3 32.5t-6 29.5t-13 37.5z" />
<glyph unicode="&#x424;" horiz-adv-x="1056" d="M86 444v410q0 74 29.5 136.5t83 108.5t127 73.5t161.5 31.5q16 0 17 15v34q0 10 12 11h25q10 0 10 -11v-32q0 -16 18 -17q90 -4 164 -30.5t126 -71.5t81 -107.5t29 -136.5v-409q0 -74 -34 -135.5t-89 -106.5t-128 -70.5t-151 -27.5q-16 0 -16 -15v-84q0 -10 -10 -10h-25 q-12 0 -12 10v84q0 14 -12 15q-86 4 -160 31.5t-129.5 72.5t-86 104.5t-30.5 126.5zM131 442q0 -55 26.5 -106t74 -91t114 -65.5t146.5 -27.5q12 -2 12 10v985q0 14 -17 14q-84 -4 -149.5 -28.5t-111.5 -65.5t-70.5 -95t-24.5 -116v-414zM551 164q0 -12 14 -12 q72 2 137.5 24.5t114.5 61t78 92t29 116.5v418q0 61 -23.5 114.5t-69 93.5t-112 63.5t-150.5 25.5q-18 0 -18 -16v-981z" />
<glyph unicode="&#x425;" horiz-adv-x="808" d="M10 5q-2 5 2 9l357 631q8 12 6 16.5t-4 8.5l-326 579q-8 14 6 15h29q12 0 14 -4l301 -541q4 -6 7.5 -5t5.5 5l303 541q2 4 14 4h29q12 0 6 -15l-324 -575q-8 -12 -5 -18.5t5 -10.5l359 -631q4 -4 2 -9t-9 -5h-26h-7t-7 4l-338 598q-4 8 -7.5 6t-5.5 -4l-338 -600 q-4 -4 -7 -4h-7h-27q-6 0 -8 5z" />
<glyph unicode="&#x426;" horiz-adv-x="1013" d="M123 10v1243q0 10 12 11h25q10 0 10 -11v-1198q0 -12 12 -12h635q12 0 12 12v1198q0 10 13 11h24q10 0 11 -11v-1194q0 -16 14 -16h59q12 0 13 -16v-287q0 -16 -11 -16h-26q-10 0 -11 16v248q0 12 -12 12h-768q-12 0 -12 10z" />
<glyph unicode="&#x427;" horiz-adv-x="991" d="M117 887v368q0 10 10 11h25q12 0 12 -11v-358q0 -70 18.5 -129t58.5 -102t101 -67t147 -24q98 0 182.5 46.5t133.5 113.5q10 14 13 24.5t3 20.5v475q0 10 10 11h21q14 0 14 -11v-1245q0 -10 -12 -10h-23q-10 0 -10 10v656q0 27 -14 6q-51 -61 -142.5 -101.5t-179.5 -40.5 q-98 0 -168.5 29t-114.5 78t-64.5 113.5t-20.5 136.5z" />
<glyph unicode="&#x428;" horiz-adv-x="1499" d="M123 10v1243q0 10 12 11h25q10 0 10 -11v-1198q0 -12 12 -12h523q8 0 8 12v1198q0 10 12 11h25q10 0 10 -11v-1198q0 -12 8 -12h549q12 0 12 12v1198q0 10 12 11h25q10 0 10 -11v-1243q0 -10 -10 -10h-1231q-12 0 -12 10z" />
<glyph unicode="&#x429;" horiz-adv-x="1517" d="M123 10v1243q0 10 12 11h25q10 0 10 -11v-1198q0 -12 12 -12h523q8 0 8 12v1198q0 10 12 11h25q10 0 10 -11v-1198q0 -12 8 -12h549q12 0 12 12v1198q0 10 12 11h25q10 0 10 -11l2 -1194q0 -16 15 -16h59q12 0 12 -16v-287q0 -16 -10 -16h-27q-10 0 -10 16v248 q0 12 -12 12h-1270q-12 0 -12 10z" />
<glyph unicode="&#x42a;" horiz-adv-x="1230" d="M20 1231v20q0 12 11 13h461q10 0 10 -11v-565q0 -14 14 -14h369q76 0 134 -25.5t97 -71t58.5 -107.5t19.5 -134q0 -70 -21.5 -130.5t-61.5 -106.5t-97.5 -72.5t-128.5 -26.5h-414q-16 0 -16 14v1196q0 10 -11 11h-413q-10 0 -11 10zM502 55q0 -6 3 -9t15 -3h365 q61 0 110 23.5t83 64.5t52.5 93.5t18.5 111.5t-17.5 113.5t-51 94.5t-83 63.5t-112.5 23.5h-369q-14 0 -14 -17v-559z" />
<glyph unicode="&#x42b;" horiz-adv-x="1191" d="M123 14v1239q0 10 12 11h25q10 0 10 -11v-565q0 -14 14 -14h369q76 0 134 -25.5t97 -71t58.5 -107.5t19.5 -134q0 -70 -21.5 -130.5t-61.5 -106.5t-97 -72.5t-129 -26.5h-414q-16 0 -16 14zM170 55q0 -6 3 -9t15 -3h365q61 0 110.5 23.5t83 64.5t52 93.5t18.5 111.5 t-17.5 113.5t-51 94.5t-83 63.5t-112.5 23.5h-369q-14 0 -14 -17v-559zM1022 10v1243q0 10 12 11h25q10 0 10 -11v-1243q0 -10 -10 -10h-25q-12 0 -12 10z" />
<glyph unicode="&#x42c;" horiz-adv-x="899" d="M123 14v1239q0 10 12 11h25q10 0 10 -11v-565q0 -14 14 -14h369q76 0 134 -25.5t97 -71t58.5 -107.5t19.5 -134q0 -70 -21.5 -130.5t-61.5 -106.5t-97 -72.5t-129 -26.5h-414q-16 0 -16 14zM170 55q0 -6 3 -9t15 -3h365q61 0 110.5 23.5t83 64.5t52 93.5t18.5 111.5 t-17.5 113.5t-51 94.5t-83 63.5t-112.5 23.5h-369q-14 0 -14 -17v-559z" />
<glyph unicode="&#x42d;" horiz-adv-x="835" d="M57 115.5q0 5.5 11 13.5l10 8q4 4 8 4t16 -14q41 -51 113 -74.5t139 -23.5q76 0 133.5 23.5t97.5 63.5t60.5 93t20.5 113v315q0 8 -11 8h-428q-10 0 -10 10v21q0 12 10 12h428q10 0 11 8v258q0 119 -73 200t-220 81q-74 0 -148.5 -26.5t-111.5 -73.5q-8 -14 -23 -5 l-16 13q-10 8 0 18q43 55 127 86t172 31t151.5 -25.5t105.5 -69.5t62.5 -102.5t20.5 -122.5v-641q0 -70 -23.5 -130t-70 -105t-113 -70.5t-152.5 -25.5q-189 -1 -291 118q-6 6 -6 11.5z" />
<glyph unicode="&#x42e;" horiz-adv-x="1251" d="M123 10v1243q0 10 12 11h25q10 0 10 -11v-571q0 -6 1 -8t11 -2h258q10 0 11.5 2t1.5 8v291q0 68 24.5 124t69.5 96t106.5 62.5t134.5 22.5q74 0 136.5 -21.5t107.5 -60.5t70.5 -96.5t25.5 -126.5v-680q0 -145 -92 -226t-245 -81q-154 0 -246 84t-92 223v323q0 12 -13 13 h-258q-12 0 -12 -13v-606q0 -10 -10 -10h-25q-12 0 -12 10zM500 297q0 -59 22.5 -108.5t61.5 -85t92 -55t115 -19.5q55 0 108 15t93 48t64.5 83t24.5 122v672q0 57 -21.5 106t-59 84t-92 55.5t-120.5 20.5q-61 0 -114 -19.5t-91 -55.5t-60.5 -85t-22.5 -106v-672z" />
<glyph unicode="&#x42f;" horiz-adv-x="950" d="M63 12l254 539q8 16 2 21.5t-10 9.5q-39 27 -74.5 63.5t-62.5 80.5t-43 96t-16 108q0 147 86 239.5t250 92.5h362q20 0 20 -17v-1235q0 -10 -12 -10h-24q-10 0 -11 10v547q0 14 -14 14h-364q-16 0 -23.5 -5t-13.5 -21l-250 -533q-4 -12 -17 -12h-30q-14 0 -9 12zM160 922 q0 -72 42 -154t122 -141q4 -4 15 -9.5t34 -5.5h397q14 0 14 17v575q0 16 -22 17h-291q-92 0 -152.5 -28t-95.5 -72t-49 -97t-14 -102z" />
<glyph unicode="&#x430;" horiz-adv-x="727" d="M45 274q0 61 19.5 115.5t57.5 95.5t94 65.5t130 24.5q84 0 147.5 -34.5t94.5 -91.5q4 -8 7 -5.5t3 9.5v147q0 43 -9 89t-35 83t-74 60.5t-128 23.5q-51 0 -114.5 -11t-104.5 -30q-10 -8 -16 4l-8 19q-2 8 8 16q49 23 115.5 34t121.5 11q152 0 221.5 -74.5t69.5 -220.5 v-594q0 -10 -12 -10h-25q-10 0 -10 10v103q0 12 -4 12t-8 -8q-39 -59 -103.5 -93t-152.5 -34q-135 0 -210 77.5t-75 206.5zM90 276q0 -53 13.5 -98t43 -78.5t76.5 -53t115 -19.5q55 0 103 20.5t82 55t53.5 81t19.5 99.5q0 51 -18.5 98t-51 81t-79 54.5t-101.5 20.5 q-61 0 -109.5 -21.5t-81 -56.5t-49 -83t-16.5 -100z" />
<glyph unicode="&#x431;" horiz-adv-x="835" d="M102 311v416q0 92 20.5 177t65.5 157t116 124t171 81q53 14 100.5 26.5t96.5 28.5q16 6 18 -6l8 -23q2 -8 -10 -14q-47 -18 -104.5 -30.5t-116.5 -28.5q-92 -27 -152.5 -80.5t-97.5 -120t-52 -139t-15 -140.5q0 -4 1 -6t5 2q39 63 111.5 100t166.5 37q145 0 224 -88 t79 -227v-250q0 -141 -79.5 -229t-239.5 -88q-154 0 -235 84t-81 237zM147 313q0 -135 72 -209.5t197 -74.5q129 0 202.5 74.5t73.5 205.5v246q0 117 -67.5 196.5t-200.5 79.5q-61 0 -112.5 -21.5t-87.5 -58t-56.5 -88t-20.5 -110.5v-240z" />
<glyph unicode="&#x432;" horiz-adv-x="821" d="M109 14v858q0 14 12 15h346q49 0 92 -14.5t76 -42t52.5 -68.5t19.5 -94t-30 -109.5t-102 -85.5q-10 -4 0 -8q78 -29 116 -93.5t38 -135.5q0 -109 -69.5 -172.5t-192.5 -63.5h-346q-12 0 -12 14zM152 53q0 -12 12 -12h297q117 0 168 55.5t51 139.5q0 92 -63.5 151 t-163.5 59h-293q-8 0 -8 -8v-385zM152 498q0 -8 8 -9h295q86 0 143 48.5t57 128.5q0 78 -53 129t-151 51h-289q-10 0 -10 -15v-333z" />
<glyph unicode="&#x433;" horiz-adv-x="651" d="M88 14v858q0 14 16 15h514q10 0 11.5 -4t1.5 -11v-12q0 -14 -13 -14h-466q-12 0 -14.5 -6t-2.5 -17v-809q0 -14 -12 -14h-21q-14 0 -14 14z" />
<glyph unicode="&#x434;" horiz-adv-x="851" d="M16 20q0 14 13 17q8 2 20.5 5t22.5 7q68 51 88 138t28 204l29 483q0 10 12 11h498q10 0 10 -11v-821q0 -12 15 -12h32q12 0 13 -14v-240q0 -16 -11 -16h-24q-10 0 -10 16v201q0 12 -13 12h-665q-12 0 -13 -12v-201q0 -16 -10 -16h-24q-10 0 -11 16v233zM136 46 q1 -5 16 -5h528q12 0 12 12v776q0 12 -12 13h-410q-12 0 -12 -13l-29 -452q-6 -109 -22.5 -185.5t-67.5 -136.5q-4 -4 -3 -9z" />
<glyph unicode="&#x435;" horiz-adv-x="804" d="M98 305v270q0 78 24.5 137.5t67.5 100.5t100.5 62.5t123.5 21.5t124 -19.5t101 -59.5t68.5 -103.5t25.5 -151.5v-84q0 -29 -22 -28h-547q-20 0 -21 -21v-127q0 -119 70 -196.5t207 -77.5q86 0 135 26.5t86 69.5q8 10 11 11t7 -3l15 -10q12 -6 4 -19q-49 -66 -112.5 -90 t-149.5 -24q-152 0 -235 86t-83 229zM143 516q0 -23 21 -22h506q18 0 18 22v62q0 123 -74.5 200.5t-199.5 77.5q-57 0 -106.5 -20.5t-86.5 -57.5t-57.5 -87t-20.5 -109v-66z" />
<glyph unicode="&#x436;" horiz-adv-x="1329" d="M76 10l10 215q2 53 15.5 110.5t47 104.5t93 78t151.5 31q10 0 24.5 -1t24.5 -3t11.5 3t-9.5 15l-340 311q-8 12 5 13h34q10 0 14.5 -2t12.5 -8l451 -422q4 -4 10 -6.5t8 8.5v420q0 10 10 10h25q12 0 12 -10v-416q0 -16 6 -14t13 6l450 424q8 6 12 8t15 2h35q12 0 4 -13 l-340 -311q-10 -10 -9.5 -15t11.5 -3q10 2 24.5 3t24.5 1q92 0 151.5 -31t93 -78t47 -104t15.5 -111l10 -215q0 -10 -12 -10h-25q-10 0 -10 10l-10 215q-2 49 -15.5 99.5t-43 90.5t-78.5 65.5t-125 25.5q-51 0 -95 -17.5t-76 -47t-51.5 -69.5t-21.5 -85v-277q0 -10 -12 -10 h-25q-10 0 -10 10v277q-2 45 -21.5 85t-52.5 69.5t-77 47t-93 17.5q-76 0 -125 -25.5t-78.5 -65.5t-43 -90.5t-15.5 -99.5l-10 -215q0 -10 -10 -10h-25q-12 0 -12 10z" />
<glyph unicode="&#x437;" horiz-adv-x="712" d="M32 113.5q-1 5.5 7 9.5l20 14q10 8 21 -8q29 -41 84 -70.5t127 -29.5q39 0 86 9t88 33.5t68.5 68.5t27.5 114q0 45 -17.5 82t-44 62.5t-59 39t-65.5 13.5h-144q-12 0 -12 12v16q0 12 14 13h136q27 0 59.5 9t59 28.5t45 53t18.5 83.5q0 53 -20.5 89t-54.5 57.5t-76 30.5 t-87 9q-59 0 -118.5 -26.5t-98.5 -71.5q-4 -4 -8 -5t-8 3l-23 16q-8 6 0 16q43 47 109.5 80t152.5 33q141 0 212 -63.5t71 -169.5q0 -55 -32.5 -110.5t-94.5 -72.5q-16 -4 0 -12q43 -20 69.5 -50t41 -60.5t19.5 -59.5t5 -45q0 -119 -80.5 -193.5t-230.5 -74.5 q-98 0 -160.5 31.5t-103.5 86.5q-2 4 -3 9.5z" />
<glyph unicode="&#x438;" horiz-adv-x="825" d="M102 14v858q0 14 13 15h20q14 0 15 -15v-784q0 -10 3 -6t5 6l504 789q4 6 7 8t15 2h25q14 0 14 -15v-858q0 -14 -14 -14h-19q-14 0 -14 14v783q0 12 -3 8t-7 -8l-504 -787v2q-4 -12 -21 -12h-26q-12 0 -13 14z" />
<glyph unicode="&#x439;" horiz-adv-x="825" d="M102 14v858q0 14 13 15h20q14 0 15 -15v-784q0 -10 3 -6t5 6l504 789q4 6 7 8t15 2h25q14 0 14 -15v-858q0 -14 -14 -14h-19q-14 0 -14 14v783q0 12 -3 8t-7 -8l-504 -787v2q-4 -12 -21 -12h-26q-12 0 -13 14zM201 1253q0 8 8 9h16q10 0 15 -19q10 -72 65 -111.5 t115 -39.5q29 0 59.5 10t57 29.5t45 48t24.5 63.5q4 18 12 19h17q8 0 8 -9q0 -49 -20.5 -89t-53 -66.5t-71.5 -41t-78 -14.5t-78 14.5t-70.5 42t-51 66.5t-19.5 88z" />
<glyph unicode="&#x43a;" horiz-adv-x="808" d="M102 10v867q0 10 13 10h24q10 0 11 -10v-441q0 -16 6 -14t12 6l471 449q8 6 12 8t15 2h34q12 0 5 -13l-340 -321q-10 -10 -9.5 -15.5t11.5 -2.5q10 2 24.5 3t24.5 1q92 0 151.5 -29t93 -74t47 -101t15.5 -110l10 -215q0 -10 -12 -10h-25q-10 0 -10 10l-10 215 q-2 49 -15.5 98.5t-43 87.5t-79 61.5t-124.5 23.5q-55 0 -104.5 -21.5t-84.5 -57.5t-55 -80t-20 -89v-238q0 -10 -11 -10h-24q-12 0 -13 10z" />
<glyph unicode="&#x43b;" horiz-adv-x="811" d="M6 6q-2 8 10 14q33 14 65 34t58.5 77t43 168t16.5 309v269q0 10 12 10h485q8 0 9 -10v-869q0 -10 -9 -10h-26q-12 0 -13 10v828q0 10 -12 10h-389q-10 0 -10 -10v-228q0 -207 -19.5 -325.5t-50.5 -182t-70.5 -86t-78.5 -34.5q-10 -2 -15 8z" />
<glyph unicode="&#x43c;" horiz-adv-x="1015" d="M102 14v858q0 14 15 15h24q16 0 21 -13l235 -520l105 -233q6 -12 12 0l102 229l234 520q10 16 22 17h27q14 0 14 -15v-858q0 -14 -14 -14h-16q-18 0 -19 14v750q0 12 -3 7t-7 -9l-86 -195l-227 -493q-4 -8 -7.5 -11.5t-13.5 -3.5h-22q-10 0 -14.5 3.5t-10.5 13.5 l-231 508l-82 184l-7 7t-3 -9v-752q0 -14 -15 -14h-18q-14 0 -15 14z" />
<glyph unicode="&#x43d;" horiz-adv-x="825" d="M102 14v860q0 8 6.5 11.5t10.5 3.5h16q14 0 15 -15v-372q0 -23 20 -23h485q20 0 21 23v372q0 14 14 15h17q16 0 16 -15v-860q0 -14 -16 -14h-17q-14 0 -14 14v402q0 20 -21 20h-485q-20 0 -20 -20v-402q0 -14 -15 -14h-16q-4 0 -10.5 3t-6.5 11z" />
<glyph unicode="&#x43e;" horiz-adv-x="835" d="M102 307v275q0 70 22.5 127t64.5 99t101.5 65.5t131.5 23.5q147 0 231 -86t84 -231v-269q0 -154 -82 -237.5t-233 -83.5q-158 0 -239 88t-81 229zM147 309q0 -131 72 -205.5t205 -74.5t200.5 74.5t67.5 209.5v265q0 121 -67.5 199.5t-202.5 78.5q-59 0 -109.5 -21.5 t-87.5 -58.5t-57.5 -87t-20.5 -109v-271z" />
<glyph unicode="&#x43f;" horiz-adv-x="841" d="M102 10v867q0 10 11 10h616q10 0 10 -10v-867q0 -10 -10 -10h-24q-12 0 -13 10v819q0 16 -12 17h-518q-12 0 -12 -17v-819q0 -10 -11 -10h-24q-12 0 -13 10z" />
<glyph unicode="&#x440;" horiz-adv-x="841" d="M113 -358v1235q0 10 12 10h25q10 0 10 -10v-93q0 -20 14 -4q41 57 112.5 87t147.5 30t135.5 -23.5t98.5 -65.5t59.5 -99.5t20.5 -122.5v-262q0 -57 -15.5 -117t-52.5 -108t-97.5 -78.5t-148.5 -30.5q-78 0 -145.5 29.5t-114.5 93.5q-14 20 -14 -7v-464q0 -10 -10 -11h-25 q-12 0 -12 11zM158 313q0 -57 20.5 -108t56 -90t86 -61.5t109.5 -22.5q68 0 119 22.5t85 61.5t51 91t17 111v263q0 127 -70.5 202.5t-201.5 75.5q-61 0 -111.5 -20.5t-86 -56.5t-55 -86t-19.5 -109v-273z" />
<glyph unicode="&#x441;" horiz-adv-x="727" d="M92 307v275q0 70 23.5 128t66.5 99t101.5 64.5t128.5 23.5q82 0 148.5 -29.5t107.5 -83.5q8 -10 0 -16l-21 -16q-8 -8 -16 2q-37 49 -95.5 75.5t-123.5 26.5q-61 0 -111.5 -21.5t-86.5 -58.5t-56.5 -87t-20.5 -109v-271q0 -131 75 -204.5t202 -73.5q72 0 129 23.5 t90 70.5q12 14 20 8l15 -10q12 -6 4 -19q-37 -59 -105.5 -86.5t-154.5 -27.5q-154 0 -237 88t-83 229z" />
<glyph unicode="&#x442;" horiz-adv-x="698" d="M31 860v12q0 14 16 15h604q16 0 17 -15v-12q0 -14 -17 -14h-280v-832q0 -8 -2 -11t-13 -3h-16q-4 0 -10 3t-6 11v832h-277q-16 0 -16 14z" />
<glyph unicode="&#x443;" horiz-adv-x="688" d="M8 877q-2 10 10 10h25q8 0 12 -10l275 -826q2 -6 5 -7t7 7l281 826q4 10 12 10h24q12 0 11 -10l-418 -1242q-2 -10 -14 -10h-25q-8 0 -8 10l119 359v2q0 4 -5 4h-8q-12 0 -14 10z" />
<glyph unicode="&#x444;" horiz-adv-x="1024" d="M104 358v207q0 66 25 125.5t71 104.5t114.5 73.5t154.5 34.5q10 0 14 7.5t4 17.5v358q0 4 1 11.5t10 7.5h28q8 0 9 -19v-358q0 -23 18 -25q86 -6 154.5 -34.5t116.5 -73.5t73 -104.5t25 -125.5v-207q0 -80 -26 -145.5t-74 -114.5t-115.5 -78.5t-149.5 -35.5 q-23 0 -22 -21v-321q0 -10 -11 -11h-24q-12 0 -13 11v321q0 10 -2 15.5t-18 5.5q-84 6 -150.5 34.5t-113.5 77.5t-73 116t-26 146zM152 360q0 -66 20.5 -124t61 -103t99 -72.5t136.5 -33.5q14 0 16 5t2 15v791q0 8 -2 16t-16 6q-72 -6 -130 -30.5t-100 -64.5t-64.5 -93.5 t-22.5 -114.5v-197zM535 47q0 -16 9 -18t21 -2q150 14 229.5 108t79.5 225v197q0 61 -23.5 115.5t-65.5 94.5t-101 64.5t-131 28.5q-10 0 -14 -3t-4 -19v-791z" />
<glyph unicode="&#x445;" horiz-adv-x="665" d="M16 12l275 437q8 12 9 18t-9 20l-242 387q-8 12 8 13h23q10 0 15 -2t11 -13l220 -354q4 -10 12 2l219 352q6 10 11 12.5t16 2.5h22q16 0 8 -13l-243 -391q-8 -12 -6 -18t6 -12l278 -441q8 -12 -8 -12h-23q-16 0 -26 14l-252 404q-8 14 -16 0l-250 -404q-10 -14 -27 -14 h-22q-16 0 -9 12z" />
<glyph unicode="&#x446;" horiz-adv-x="841" d="M102 14v858q0 8 6.5 11.5t10.5 3.5h16q14 0 15 -15v-819q0 -10 4 -11t8 -1h497q12 0 13 12v819q0 14 14 15h14q16 0 17 -15v-819q0 -12 14 -12h47q12 0 13 -14v-240q0 -16 -11 -16h-24q-10 0 -11 16v201q0 12 -12 12h-614q-4 0 -10.5 3t-6.5 11z" />
<glyph unicode="&#x447;" horiz-adv-x="806" d="M72 674v203q0 10 10 10h24q12 0 13 -10v-209q0 -59 12 -111.5t41 -90.5t79 -60.5t128 -22.5q33 0 71.5 10t75.5 28.5t69 44.5t52 56q4 4 7 12.5t3 30.5v312q0 10 11 10h24q12 0 13 -10v-867q0 -10 -13 -10h-24q-10 0 -11 10v436q0 12 -2 14.5t-12 -7.5q-57 -57 -135 -85 t-139 -28q-96 0 -153.5 29.5t-90.5 78t-43 107.5t-10 119z" />
<glyph unicode="&#x448;" horiz-adv-x="1288" d="M102 14v858q0 8 6.5 11.5t10.5 3.5h14q14 0 14 -15v-813q0 -4 2.5 -11t14.5 -7h430q12 0 14 7t2 11v813q0 14 15 15h18q16 0 16 -15v-813q0 -4 2.5 -11t14.5 -7h448q12 0 14.5 7t2.5 11v813q0 14 16 15h14q10 0 12.5 -3t2.5 -12v-856q0 -16 -19 -16h-1048q-4 0 -10.5 3 t-6.5 11z" />
<glyph unicode="&#x449;" horiz-adv-x="1318" d="M102 14v858q0 8 6.5 11.5t10.5 3.5h14q14 0 14 -15v-813q0 -4 2.5 -11t14.5 -7h430q12 0 14 6t2 12v813q0 14 15 15h18q16 0 16 -15v-813q0 -4 2.5 -11t14.5 -7h457q12 0 12 12v819q0 14 14 15h19q10 0 12 -3t2 -12v-819q0 -12 14 -12h49q12 0 13 -14v-240q0 -16 -11 -16 h-24q-10 0 -10 16v201q0 12 -13 12h-1091q-4 0 -10.5 3t-6.5 11z" />
<glyph unicode="&#x44a;" horiz-adv-x="1042" d="M20 860v12q0 14 17 15h348q16 0 16 -15v-325q0 -4 1 -8t12 -4h313q63 0 111.5 -23t80 -60.5t47 -86t15.5 -99.5q0 -49 -15.5 -97t-47 -85t-79.5 -60.5t-112 -23.5h-354q-6 0 -12.5 4t-6.5 12v815q0 14 -16 15h-301q-16 0 -17 14zM401 53q0 -12 13 -12h313q53 0 92 20.5 t64.5 53t38 72.5t12.5 79t-13.5 80t-40 73t-65.5 52.5t-88 20.5h-313q-10 0 -11.5 -4.5t-1.5 -6.5v-428z" />
<glyph unicode="&#x44b;" horiz-adv-x="995" d="M102 16v856q0 14 15 15h16q16 0 17 -15v-325q0 -4 1 -8t11 -4h315q59 0 106.5 -23t79 -60.5t49 -86t17.5 -99.5q0 -49 -17.5 -97t-50 -85t-79.5 -60.5t-105 -23.5h-356q-18 0 -19 16zM150 53q0 -12 12 -12h315q47 0 85 20.5t64.5 53t41 72.5t14.5 79t-14.5 80t-40 73 t-63.5 52.5t-87 20.5h-311q-12 0 -14 -4.5t-2 -6.5v-428zM844 14v860q0 14 18 15h17q10 0 12 -3t2 -12v-860q0 -8 -2 -11t-12 -3h-17q-18 0 -18 14z" />
<glyph unicode="&#x44c;" horiz-adv-x="790" d="M102 16v856q0 14 15 15h16q16 0 17 -15v-325q0 -4 1 -8t11 -4h315q59 0 106.5 -23t79 -60.5t49 -86t17.5 -99.5q0 -49 -17.5 -97t-50 -85t-79.5 -60.5t-105 -23.5h-356q-18 0 -19 16zM150 53q0 -12 12 -12h315q47 0 85 20.5t64.5 53t41 72.5t14.5 79t-14.5 80t-40 73 t-63.5 52.5t-87 20.5h-311q-12 0 -14 -4.5t-2 -6.5v-428z" />
<glyph unicode="&#x44d;" horiz-adv-x="710" d="M30 113.5q-1 5.5 7 9.5l18 12q10 8 21 -8q33 -47 89 -73.5t128 -26.5q123 0 198.5 70.5t75.5 211.5v107q0 16 -20 16h-385q-6 0 -6 4v4v25q0 10 8 10h383q20 0 20 23v82q0 119 -66.5 198.5t-199.5 79.5q-66 0 -125 -29.5t-96 -78.5q-4 -4 -8 -5.5t-9 3.5l-22 16 q-8 6 0 16q51 57 116.5 88t147.5 31q156 0 231.5 -88t75.5 -229v-275q0 -141 -83 -230t-236 -89q-86 0 -152.5 30.5t-107.5 85.5q-2 4 -3 9.5z" />
<glyph unicode="&#x44e;" horiz-adv-x="1032" d="M102 14v858q0 8 6.5 11.5t10.5 3.5h14q14 0 14 -15v-378q0 -14 19 -15h168q12 0 12 15v88q0 139 77 227t222 88q147 0 221 -86t74 -231v-269q0 -154 -71.5 -237.5t-223.5 -83.5q-158 0 -228.5 88t-70.5 229v115q0 14 -16 14h-160q-16 0 -19.5 -4t-3.5 -12v-406 q0 -14 -14 -14h-14q-4 0 -10.5 3t-6.5 11zM391 309q0 -131 66.5 -205.5t189.5 -74.5q125 0 186.5 74.5t61.5 209.5v265q0 121 -63.5 199.5t-186.5 78.5q-121 0 -187.5 -79t-66.5 -197v-271z" />
<glyph unicode="&#x44f;" horiz-adv-x="782" d="M45 16l178 371q4 8 0 12q-59 41 -100 107.5t-41 140.5q0 109 61.5 174.5t178.5 65.5h337q10 0 15.5 -6.5t5.5 -12.5v-852q0 -16 -14 -16h-19q-14 0 -14 16v371q0 6 -6 6h-340q-12 0 -17 -12l-174 -369q-6 -12 -14 -12h-31q-14 0 -6 16zM131 641q0 -45 26.5 -100.5 t82.5 -94.5q10 -6 17 -7t17 -1h353q6 0 6 6v381q0 16 -15 17h-296q-61 0 -99.5 -18.5t-58 -48.5t-26.5 -65.5t-7 -68.5z" />
<glyph unicode="&#x451;" horiz-adv-x="804" d="M98 305v270q0 78 24.5 137.5t67.5 100.5t100.5 62.5t123.5 21.5t124 -19.5t101 -59.5t68.5 -103.5t25.5 -151.5v-84q0 -29 -22 -28h-547q-20 0 -21 -21v-127q0 -119 70 -196.5t207 -77.5q86 0 135 26.5t86 69.5q8 10 11 11t7 -3l15 -10q12 -6 4 -19q-49 -66 -112.5 -90 t-149.5 -24q-152 0 -235 86t-83 229zM143 516q0 -23 21 -22h506q18 0 18 22v62q0 123 -74.5 200.5t-199.5 77.5q-57 0 -106.5 -20.5t-86.5 -57.5t-57.5 -87t-20.5 -109v-66zM213 1165q0 18 12.5 30.5t28.5 12.5t28.5 -11.5t12.5 -31.5q0 -18 -12.5 -30.5t-28.5 -12.5 t-28.5 13.5t-12.5 29.5zM518 1165q0 18 12.5 30.5t28.5 12.5t29.5 -12.5t13.5 -30.5q0 -16 -13.5 -29.5t-29.5 -13.5t-28.5 13.5t-12.5 29.5z" />
<glyph unicode="&#x452;" horiz-adv-x="901" d="M16 1051v18q0 10 11 10h129q10 2 10 15v200q0 10 12 11h25q10 0 10 -11v-202q0 -4 2 -8.5t10 -4.5h398q10 0 10 -10v-18q0 -12 -10 -13h-398q-12 0 -12 -12v-244q0 -27 14 -6q47 63 115 92t145 29q90 0 150.5 -29.5t97.5 -78t52.5 -107.5t15.5 -119v-252 q0 -57 -16.5 -116.5t-53.5 -107.5t-97.5 -79t-148.5 -31q-14 0 -25 -1t-22 4q-10 4 -8 14l2 16q0 12 15 13q4 -2 16 -2.5t18 -0.5q68 0 119 23t85 61.5t51.5 91t17.5 109.5v264q0 55 -17.5 107.5t-51.5 91.5t-85 62.5t-119 23.5q-59 0 -109 -22.5t-86 -60.5t-55.5 -89 t-19.5 -109v-563q0 -10 -10 -10h-25q-12 0 -12 10v1018q-2 10 -14 10h-125q-10 0 -11 13z" />
<glyph unicode="&#x453;" horiz-adv-x="651" d="M88 14v858q0 14 16 15h514q10 0 11.5 -4t1.5 -11v-12q0 -14 -13 -14h-466q-12 0 -14.5 -6t-2.5 -17v-809q0 -14 -12 -14h-21q-14 0 -14 14zM301 1012l133 254q6 14 25 6l30 -15q12 -6 13.5 -13t-2.5 -11l-166 -240q-8 -14 -19 -6l-10 6q-10 6 -4 19z" />
<glyph unicode="&#x454;" horiz-adv-x="727" d="M92 307v275q0 70 23.5 128t66.5 99t101.5 64.5t128.5 23.5q82 0 148.5 -29.5t107.5 -83.5q8 -10 0 -16l-23 -16q-8 -8 -16 2q-37 49 -94.5 75.5t-122.5 26.5q-61 0 -111.5 -21.5t-86.5 -58.5t-56.5 -87t-20.5 -109v-82q0 -23 21 -23h383q8 0 8 -10v-25v-4q0 -4 -6 -4 h-385q-20 0 -21 -16v-107q0 -131 77 -205.5t200 -74.5q145 0 213 96q10 16 20 8l21 -10q8 -4 7 -9.5t-3 -9.5q-41 -55 -107.5 -84.5t-152.5 -29.5q-154 0 -237 88t-83 229z" />
<glyph unicode="&#x455;" horiz-adv-x="651" d="M39 131q-8 12 6 19l16 8q12 8 17 -6q33 -53 98.5 -89t136.5 -36q111 0 176.5 49t65.5 137q0 49 -21.5 85t-53 61.5t-70.5 43t-74 29.5q-43 16 -92 35.5t-90 47.5t-68 68t-27 95t23.5 96t61.5 68.5t85 41t95 13.5q80 0 145.5 -25.5t105.5 -66.5q10 -10 3 -19l-17 -18 q-10 -6 -18 2q-39 39 -98.5 62.5t-120.5 23.5q-25 0 -63 -8t-71.5 -28.5t-58.5 -54.5t-25 -85q0 -49 27 -83t67 -58.5t85 -42t82 -29.5q45 -16 88 -37.5t75.5 -51.5t52 -70t19.5 -95q0 -41 -16.5 -81t-50 -71.5t-88 -52t-130.5 -20.5q-82 0 -159.5 35.5t-118.5 107.5z" />
<glyph unicode="&#x456;" horiz-adv-x="327" d="M123 1137q0 18 13.5 30.5t29.5 12.5t27.5 -12.5t11.5 -30.5t-11.5 -30.5t-27.5 -12.5t-29.5 12t-13.5 31zM139 10v867q0 10 13 10h24q10 0 10 -10v-867q0 -10 -10 -10h-24q-12 0 -13 10z" />
<glyph unicode="&#x457;" horiz-adv-x="319" d="M-39 1165q0 18 12.5 30.5t28.5 12.5t28.5 -11.5t12.5 -31.5q0 -18 -12.5 -30.5t-28.5 -12.5t-28.5 13.5t-12.5 29.5zM127 10v867q0 10 12 10h25q10 0 10 -10v-867q0 -10 -10 -10h-25q-12 0 -12 10zM266 1165q0 18 12.5 30.5t28.5 12.5t29.5 -12.5t13.5 -30.5 q0 -16 -13 -29.5t-30 -13.5q-16 0 -28.5 13.5t-12.5 29.5z" />
<glyph unicode="&#x458;" horiz-adv-x="280" d="M-127 -336l6 25q2 8 12 6q16 -4 42 -9t44 -5q76 0 109 44t33 136v1016q0 10 10 10h27q12 0 12 -10v-1014q0 -123 -47 -174t-146 -51q-57 0 -96 14q-8 2 -6 12zM102 1137q0 18 13.5 30.5t29.5 12.5t27.5 -12.5t11.5 -30.5t-11 -30.5t-28 -12.5q-16 0 -29.5 12t-13.5 31z " />
<glyph unicode="&#x459;" horiz-adv-x="1247" d="M6 6q-2 8 10 14q33 14 65 34t58.5 77t43 168t16.5 309v269q0 10 12 10h375q16 0 16 -17v-323q0 -4 1 -8t11 -4h320q61 0 107 -23t79 -60.5t49.5 -86t16.5 -99.5q0 -49 -17.5 -97t-50.5 -85t-80 -60.5t-104 -23.5h-359q-18 0 -18 16v813q0 16 -16 17h-285q-10 0 -10 -10 v-228q0 -207 -19.5 -325.5t-50.5 -182t-70.5 -86t-78.5 -34.5q-10 -2 -15 8zM602 53q0 -12 12 -12h320q47 0 85 20.5t64.5 53t41 72.5t14.5 79t-13.5 80t-39 73t-64.5 52.5t-88 20.5h-316q-12 0 -14 -4.5t-2 -6.5v-428z" />
<glyph unicode="&#x45a;" horiz-adv-x="1277" d="M102 14v860q0 8 6.5 11.5t10.5 3.5h16q14 0 15 -15v-339q0 -4 1 -8.5t11 -4.5h418q10 0 11 4t1 9v337q0 14 18 15h13q16 0 16 -17v-335q0 -4 1 -8.5t11 -4.5h316q57 0 103 -21.5t79 -58t50.5 -84t17.5 -98.5q0 -49 -17.5 -96t-49.5 -83t-79 -58.5t-104 -22.5h-355 q-20 0 -20 16v453q0 2 -2 6t-15 4h-409q-12 0 -14 -4t-2 -6v-455q0 -14 -15 -14h-16q-4 0 -10.5 3t-6.5 11zM639 53q0 -12 12 -12h314q47 0 84.5 19.5t64.5 51t41 70.5t14 78t-14 79t-39.5 70.5t-63.5 50t-87 19.5h-310q-12 0 -14 -4t-2 -6v-416z" />
<glyph unicode="&#x45b;" horiz-adv-x="858" d="M20 1087v15q0 12 11 12h78q10 0 13 3t3 16v161q0 10 12 11h25q10 0 10 -11v-161q0 -8 2 -13.5t12 -5.5h416q10 0 10 -12v-15q0 -10 -10 -10h-416q-14 0 -14 -16v-279q0 -27 14 -6q47 63 115 92t145 29q90 0 150.5 -29.5t97.5 -78t52.5 -107.5t15.5 -119v-553 q0 -10 -10 -10h-25q-12 0 -12 10v559q0 55 -17.5 107.5t-51.5 92.5t-85 64.5t-119 24.5q-59 0 -109 -22.5t-86 -61.5t-55.5 -91t-19.5 -110v-563q0 -10 -10 -10h-25q-12 0 -12 10v1051q0 16 -19 16h-75q-10 0 -11 10z" />
<glyph unicode="&#x45c;" horiz-adv-x="808" d="M102 10v867q0 10 13 10h24q10 0 11 -10v-441q0 -16 6 -14t12 6l471 449q8 6 12 8t15 2h34q12 0 5 -13l-340 -321q-10 -10 -9.5 -15.5t11.5 -2.5q10 2 24.5 3t24.5 1q92 0 151.5 -29t93 -74t47 -101t15.5 -110l10 -215q0 -10 -12 -10h-25q-10 0 -10 10l-10 215 q-2 49 -15.5 98.5t-43 87.5t-79 61.5t-124.5 23.5q-55 0 -104.5 -21.5t-84.5 -57.5t-55 -80t-20 -89v-238q0 -10 -11 -10h-24q-12 0 -13 10zM313 1036l133 254q6 14 25 6l31 -14q12 -6 13 -13t-3 -12l-166 -239q-8 -14 -18 -6l-11 6q-10 6 -4 18z" />
<glyph unicode="&#x45e;" horiz-adv-x="688" d="M8 877q-2 10 10 10h25q8 0 12 -10l275 -826q2 -6 5 -7t7 7l281 826q4 10 12 10h24q12 0 11 -10l-418 -1242q-2 -10 -14 -10h-25q-8 0 -8 10l119 359v2q0 4 -5 4h-8q-12 0 -14 10zM111 1257q0 8 8 9h16q10 0 15 -19q10 -72 65 -111.5t115 -39.5q29 0 59.5 10t57 29.5 t45 48t24.5 63.5q4 18 12 19h17q8 0 8 -9q0 -49 -20.5 -89t-53.5 -66.5t-71.5 -40.5t-77.5 -14t-78 14t-70.5 41.5t-51 66.5t-19.5 88z" />
<glyph unicode="&#x45f;" horiz-adv-x="841" d="M102 14v858q0 8 6.5 11.5t10.5 3.5h18q14 0 15 -15v-823q0 -8 8 -8h522q10 0 10 10v821q0 14 15 15h16q16 0 16 -15v-858q0 -14 -16 -14h-268q-8 0 -9 -8v-217q0 -16 -12 -17h-26q-10 0 -11 17v217q0 8 -12 8h-266q-4 0 -10.5 3t-6.5 11z" />
<glyph unicode="&#x490;" horiz-adv-x="790" d="M129 10v1241q0 12 14 13h562q14 0 14 10l24 239q2 16 11 17h8q8 0 8 -17v-282q0 -10 -10 -10h-567q-14 0 -15 -11v-249v-162.5v-107.5v-79v-77.5t-1 -107.5t-1 -166v-251q0 -10 -10 -10h-25q-12 0 -12 10z" />
<glyph unicode="&#x491;" horiz-adv-x="651" d="M88 14v858q0 14 16 15h465q12 0 13 14l16 180q2 10 4 12.5t16 2.5q10 0 11.5 -3t1.5 -16v-217q0 -14 -13 -14h-462q-16 0 -17 -15v-817q0 -14 -12 -14h-25q-14 0 -14 14z" />
<glyph unicode="&#x4d9;" horiz-adv-x="804" d="M84 326v84q0 29 22 28h547q20 0 21 21v127q0 119 -75 196.5t-202 77.5q-72 0 -127 -25.5t-88 -72.5q-10 -16 -20 -8l-19 12q-6 6 -6 10t2 8q41 55 108.5 85t153.5 30q147 0 232.5 -86t85.5 -229v-271q0 -78 -25.5 -137t-68.5 -100t-100.5 -62.5t-121.5 -21.5 q-66 0 -124 19.5t-101 59.5t-68.5 103.5t-25.5 151.5zM129 311q0 -123 75 -200.5t199 -77.5q57 0 106.5 20.5t86.5 57t57.5 87t20.5 109.5v66q0 23 -21 22h-506q-18 0 -18 -22v-62z" />
<glyph unicode="&#x2000;" horiz-adv-x="776" />
<glyph unicode="&#x2001;" horiz-adv-x="1552" />
<glyph unicode="&#x2002;" horiz-adv-x="776" />
<glyph unicode="&#x2003;" horiz-adv-x="1552" />
<glyph unicode="&#x2004;" horiz-adv-x="517" />
<glyph unicode="&#x2005;" horiz-adv-x="388" />
<glyph unicode="&#x2006;" horiz-adv-x="258" />
<glyph unicode="&#x2007;" horiz-adv-x="258" />
<glyph unicode="&#x2008;" horiz-adv-x="194" />
<glyph unicode="&#x2009;" horiz-adv-x="310" />
<glyph unicode="&#x200a;" horiz-adv-x="86" />
<glyph unicode="&#x2010;" horiz-adv-x="569" d="M127 471v35q0 12 10 12h299q10 0 10 -12v-35q0 -10 -10 -10h-299q-10 0 -10 10z" />
<glyph unicode="&#x2011;" horiz-adv-x="569" d="M127 471v35q0 12 10 12h299q10 0 10 -12v-35q0 -10 -10 -10h-299q-10 0 -10 10z" />
<glyph unicode="&#x2012;" horiz-adv-x="569" d="M127 471v35q0 12 10 12h299q10 0 10 -12v-35q0 -10 -10 -10h-299q-10 0 -10 10z" />
<glyph unicode="&#x2013;" horiz-adv-x="1024" d="M51 473v19q0 12 10 12h897q10 0 11 -12v-19q0 -10 -11 -10h-897q-10 0 -10 10z" />
<glyph unicode="&#x2014;" horiz-adv-x="2048" d="M51 473v19q0 12 10 12h1907q10 0 10 -12v-19q0 -10 -10 -10h-1907q-10 0 -10 10z" />
<glyph unicode="&#x2018;" horiz-adv-x="339" d="M113 985l59 297q2 14 14 14h17q10 0 10 -16l-16 -301q0 -12 -17 -12h-53q-16 0 -14 18z" />
<glyph unicode="&#x2019;" horiz-adv-x="339" d="M123 983l16 301q0 12 17 12h53q16 0 14 -18l-59 -297q-4 -14 -14 -14h-17q-10 0 -10 16z" />
<glyph unicode="&#x201a;" horiz-adv-x="294" d="M92 -190l17 280q0 12 16 12h57q20 0 15 -18l-64 -277q-2 -14 -14 -14h-17q-10 0 -10 17z" />
<glyph unicode="&#x201c;" horiz-adv-x="466" d="M92 985l60 297q2 14 14 14h16q10 0 11 -16l-17 -301q0 -12 -16 -12h-54q-16 0 -14 18zM260 985l59 297q2 14 15 14h16q10 0 10 -16l-16 -301q0 -12 -16 -12h-54q-16 0 -14 18z" />
<glyph unicode="&#x201d;" horiz-adv-x="466" d="M113 983l16 301q0 12 16 12h54q16 0 14 -18l-59 -297q-4 -14 -15 -14h-16q-10 0 -10 16zM281 983l16 301q0 12 16 12h54q16 0 14 -18l-59 -297q-4 -14 -15 -14h-16q-10 0 -10 16z" />
<glyph unicode="&#x201e;" horiz-adv-x="432" d="M92 -190l17 280q0 12 16 12h57q20 0 15 -18l-64 -277q-2 -14 -14 -14h-17q-10 0 -10 17zM256 -190l16 280q0 12 17 12h57q20 0 14 -18l-63 -277q-2 -14 -14 -14h-17q-10 0 -10 17z" />
<glyph unicode="&#x2026;" horiz-adv-x="1042" d="M115 41q0 20 14 34.5t35 14.5q25 0 39 -13t14 -36t-14.5 -37t-38.5 -14q-20 0 -34.5 14t-14.5 37zM463 41q0 20 14.5 34.5t34.5 14.5q25 0 39 -13t14 -36t-14 -37t-39 -14q-20 0 -34.5 14t-14.5 37zM819 41q0 20 14.5 34.5t34.5 14.5q25 0 39.5 -13t14.5 -36t-14.5 -37 t-39.5 -14q-20 0 -34.5 14t-14.5 37z" />
<glyph unicode="&#x202f;" horiz-adv-x="310" />
<glyph unicode="&#x2039;" horiz-adv-x="606" d="M143 387q-10 14 0 27l269 325q6 8 9 9.5t13 1.5h29q16 0 6 -15l-270 -327q-4 -6 -4 -8.5t4 -6.5l270 -338q6 -8 3 -11t-9 -3h-29h-11t-11 8z" />
<glyph unicode="&#x203a;" horiz-adv-x="606" d="M138 44q-3 3 3 11l271 338q4 4 4 6t-4 9l-271 327q-10 14 6 15h29q10 0 13.5 -1t9.5 -10l268 -325q10 -12 0 -27l-268 -338q-6 -8 -11.5 -8h-11.5h-29q-6 0 -9 3z" />
<glyph unicode="&#x205f;" horiz-adv-x="388" />
<glyph unicode="&#x20ac;" d="M86 563v17q0 10 10 10h549q10 0 10 -10v-17q0 -12 -10 -12h-391q-16 0 -16 -14v-240q0 -121 74.5 -195.5t195.5 -74.5q68 0 131 24.5t104 75.5q10 12 15.5 13t11.5 -3l14 -10q10 -6 9.5 -11t-5.5 -14q-41 -57 -114.5 -86.5t-165.5 -29.5q-154 0 -236 84t-82 223v242 q0 16 -14 16h-80q-10 0 -10 12zM86 709v16q0 10 10 10h80q14 0 14 17v221q0 63 21.5 119.5t61.5 97.5t98.5 64.5t134.5 23.5q88 0 160.5 -30.5t115.5 -86.5q10 -10 0 -18l-16 -13q-14 -10 -23 5q-37 47 -100 73.5t-137 26.5q-123 0 -195.5 -74t-72.5 -192v-217q0 -16 16 -17 h391q10 0 10 -10v-16q0 -12 -10 -13h-549q-10 0 -10 13z" />
<glyph unicode="&#x2122;" horiz-adv-x="1171" d="M49 1243v12q0 8 6 9h385q8 0 9 -9v-12q0 -8 -9 -8h-170q-8 0 -8 -6v-596q0 -6 -8 -6h-14q-8 0 -9 6v596q0 6 -8 6h-168q-6 0 -6 8zM545 637v618q0 8 6 9h22q6 0 11 -9l227 -534q4 -6 8 0l228 534q4 8 12 9h20q4 0 4 -9v-618q0 -6 -6 -6h-18q-6 0 -6 6v539q0 8 -6 0 l-211 -492q-6 -8 -11 -8h-20q-10 0 -12 8l-211 492q-2 4 -3 4t-1 -4v-539q0 -6 -9 -6h-18q-6 0 -6 6z" />
<glyph unicode="&#xe000;" horiz-adv-x="890" d="M0 0v891h891v-891h-891z" />
</font>
</defs>
</svg>
