<?xml version="1.0" standalone="no"?>
<!DOCTYPE svg PUBLIC "-//W3C//DTD SVG 1.1//EN" "http://www.w3.org/Graphics/SVG/1.1/DTD/svg11.dtd" >
<svg xmlns="http://www.w3.org/2000/svg">
<metadata></metadata>
<defs>
<font id="pf_handbook_prothin" horiz-adv-x="911" >
<font-face units-per-em="2048" ascent="1536" descent="-512" />
<missing-glyph horiz-adv-x="409" />
<glyph horiz-adv-x="2048" />
<glyph horiz-adv-x="2048" />
<glyph unicode="&#xd;" horiz-adv-x="2048" />
<glyph unicode=" "  horiz-adv-x="409" />
<glyph unicode="&#x09;" horiz-adv-x="409" />
<glyph unicode="&#xa0;" horiz-adv-x="409" />
<glyph unicode="!" horiz-adv-x="507" d="M184 59q0 29 21.5 50.5t50.5 21.5q33 0 53.5 -20.5t20.5 -51.5t-20.5 -51t-53.5 -20q-29 0 -50.5 21.5t-21.5 49.5zM201 1243q0 18 20 19h62q23 0 20 -19l-20 -905q0 -16 -17 -16h-18q-16 0 -17 16z" />
<glyph unicode="&#x22;" horiz-adv-x="444" d="M100 872v379q0 12 15 13h45q14 0 14 -13v-379q0 -12 -14 -12h-45q-14 0 -15 12zM272 872v379q0 12 17 13h45q14 0 12 -13v-379q0 -12 -12 -12h-45q-16 0 -17 12z" />
<glyph unicode="#" d="M47 397q2 4 3 12.5t5 28.5q4 14 21 15h121q14 0 16 14l70 326q6 18 -13 18h-139q-14 0 -10 12q2 4 4 17.5t4 21.5q4 14 16 15h146q12 0 14 14l53 246q2 10 15 10h43q16 0 12 -17l-51 -235q-4 -18 14 -18h234q10 0 14 14l53 246q2 10 17 10h41q16 0 12 -17l-49 -233 q-2 -10 0 -15t16 -5h121q10 0 12 -6.5t0 -12.5l-8 -33q-2 -14 -16 -14h-127q-18 0 -21 -14l-69 -324q-2 -20 14 -20h147q12 0 9 -15l-7 -39q-4 -12 -16 -12h-152q-16 0 -18 -12l-59 -281q-4 -10 -15 -10h-41q-18 0 -14 16l59 271q0 8 -2 12t-14 4h-229q-16 0 -19 -12 l-61 -281q-4 -10 -15 -10h-41q-18 0 -14 16q0 2 10.5 43t20.5 93q12 57 29 133q2 10 -0.5 14t-14.5 4h-119q-12 0 -12 10zM285 469q-2 -10 1 -13t15 -3h231q14 0 17 16l69 326q2 8 0 12t-14 4h-227q-18 0 -23 -16z" />
<glyph unicode="$" d="M109 924q0 63 24.5 116.5t64.5 92t92 63.5t109 33q12 2 13 16v115q0 14 14 14h35q14 0 14 -14v-115q0 -12 17 -14q143 -6 258 -86q8 -12 0 -25l-31 -39q-12 -12 -25 2q-57 43 -118.5 60.5t-120.5 17.5q-45 0 -92.5 -14t-85 -44t-61 -75t-23.5 -108q0 -55 26.5 -94.5 t67.5 -67t90 -45t92 -29.5q63 -18 122.5 -46t106.5 -65.5t76 -91t29 -125.5t-24.5 -127t-66.5 -95t-99.5 -62.5t-120.5 -30.5q-16 0 -17 -16v-138q0 -14 -14 -14h-35q-14 0 -14 14v138q0 14 -19 14q-78 4 -143.5 25.5t-128.5 66.5q-10 10 0 23l33 39q10 10 22 -3 q49 -37 114.5 -58t137.5 -21q55 0 108.5 14t93.5 43t64.5 74t24.5 104q0 61 -25.5 104.5t-63.5 73t-82 48t-83 30.5q-55 16 -117.5 38t-116 58.5t-88 91t-34.5 134.5z" />
<glyph unicode="%" horiz-adv-x="1320" d="M86 686v387q0 92 60.5 146.5t162.5 54.5t165 -52.5t63 -148.5v-387q0 -94 -59.5 -147.5t-168.5 -53.5q-104 0 -163.5 54.5t-59.5 146.5zM162 688q0 -59 39 -99t108 -40q68 0 111 36t43 103v385q0 59 -41 98t-113 39q-68 0 -107.5 -38.5t-39.5 -98.5v-385zM332 -49 l579 1362q8 12 19 12h31q16 0 12 -14l-580 -1360q-4 -12 -18 -12h-35q-14 0 -8 12zM782 193v387q0 92 60.5 146t163.5 54q102 0 163.5 -53t61.5 -147v-387q0 -96 -58.5 -148.5t-166.5 -52.5q-104 0 -164 53t-60 148zM856 193q0 -61 40 -101.5t110 -40.5q68 0 110.5 36 t42.5 106v387q0 59 -41 98t-112 39q-70 0 -110 -40t-40 -97v-387z" />
<glyph unicode="&#x26;" horiz-adv-x="1167" d="M143 332v471q0 70 27 128t73 101t110.5 66.5t142.5 23.5h284q18 0 19 -14v-45q0 -16 -17 -16h-286q-59 0 -107.5 -18.5t-84.5 -50.5t-55.5 -77t-19.5 -100v-465q0 -55 16.5 -104.5t49.5 -88.5t82 -61.5t117 -22.5h38q70 0 121.5 23.5t84 63.5t48 90.5t15.5 105.5v254 q0 4 -2 10t-17 6h-286q-14 0 -15 15v43q0 16 17 16h393q76 0 137.5 16.5t132.5 63.5q8 4 13 4q10 0 12 -8l22 -35q4 -8 4 -12q0 -8 -8 -15q-78 -49 -150.5 -66.5t-146.5 -21.5q-20 0 -20 -22v-205q0 -82 -19.5 -153.5t-62.5 -126t-110.5 -86t-162.5 -31.5h-38 q-82 0 -147.5 25.5t-111 71.5t-69 109.5t-23.5 137.5z" />
<glyph unicode="'" horiz-adv-x="313" d="M117 872v379q0 12 14 13h47q14 0 15 -13l-3 -379q0 -12 -12 -12h-45q-16 0 -16 12z" />
<glyph unicode="(" horiz-adv-x="606" d="M154 543q0 121 29.5 244.5t75.5 237.5t101.5 210t106.5 162q10 14 27 4l24 -12q12 -10 6 -21q-59 -88 -109 -186.5t-86 -205t-56.5 -216t-20.5 -217.5q0 -117 22.5 -228.5t60.5 -214t87 -193.5t102 -167q10 -14 -4 -21l-28 -18q-16 -14 -27 2q-59 70 -115.5 164 t-99.5 203.5t-69.5 229.5t-26.5 243z" />
<glyph unicode=")" horiz-adv-x="606" d="M133 -260q51 76 100.5 167t88 193.5t61.5 214t23 228.5q0 109 -20.5 218t-56.5 215.5t-86 205t-110 186.5q-6 10 6 21l25 12q16 10 26 -4q51 -66 106.5 -162t101.5 -210t76 -237.5t30 -244.5q0 -123 -26.5 -243t-69.5 -229.5t-99.5 -203.5t-115.5 -164q-10 -16 -27 -2 l-29 18q-14 6 -4 21z" />
<glyph unicode="*" horiz-adv-x="720" d="M84 1104l14 43q8 25 31 14l195 -80q10 -6 10 9l-17 210q0 10 4.5 16.5t20.5 6.5h43q27 0 23 -23l-17 -208q-2 -16 10 -11l193 78q25 10 31 -12l16 -43q6 -25 -14 -27l-203 -49q-18 -4 -6 -16l133 -160q16 -20 -2 -31l-35 -24q-23 -16 -35 4l-106 178q-8 12 -21 -2 l-108 -176q-12 -20 -33 -4l-35 24q-20 12 -4 33l135 158q4 4 4 8t-10 6l-201 51q-23 6 -16 27z" />
<glyph unicode="+" d="M66 465v41q0 18 16 18h319q10 0 11 13v335q0 16 18 17h41q16 0 16 -17v-337q0 -10 13 -11h325q18 0 19 -18v-39q0 -18 -19 -18h-325q-12 0 -13 -11v-336q0 -16 -16 -16h-41q-18 0 -18 16v336q0 10 -13 11h-317q-16 0 -16 16z" />
<glyph unicode="," horiz-adv-x="342" d="M98 -193l19 310q0 20 20 20h84q27 0 19 -26l-76 -308q-6 -18 -21 -18h-30q-18 0 -15 22z" />
<glyph unicode="-" horiz-adv-x="610" d="M121 461v55q0 14 14 14h338q12 0 12 -14v-55q0 -14 -12 -15h-338q-14 0 -14 15z" />
<glyph unicode="." horiz-adv-x="337" d="M98 57q0 29 20.5 49.5t49.5 20.5q33 0 52.5 -19.5t19.5 -50.5q0 -29 -19.5 -49t-52.5 -20q-29 0 -49.5 20.5t-20.5 48.5z" />
<glyph unicode="/" horiz-adv-x="581" d="M8 -121l496 1485q6 16 22 16h29q18 0 14 -16l-497 -1485q-6 -16 -19 -16h-30q-20 0 -15 16z" />
<glyph unicode="0" d="M125 307v654q0 145 91 231t245 86t246 -84t92 -233v-654q0 -154 -88 -237.5t-248 -83.5q-158 0 -248 86t-90 235zM211 309q0 -111 67.5 -179.5t182.5 -68.5q111 0 181.5 62.5t70.5 185.5v647q0 109 -67.5 177.5t-184.5 68.5q-113 0 -181.5 -68.5t-68.5 -177.5v-647z" />
<glyph unicode="1" d="M227 1034v58q0 20 13 28l206 131q8 4 13.5 7.5t15.5 3.5h45q10 0 10 -11v-1237q0 -14 -12 -14h-61q-12 0 -13 12v1125q0 14 -12 6l-188 -115q-16 -10 -17 6z" />
<glyph unicode="2" d="M86 18v31q0 33 12 47l455 598q66 86 101.5 163t35.5 126q0 100 -65.5 159.5t-175.5 59.5q-70 0 -134.5 -27.5t-97.5 -72.5q-16 -20 -31 -8l-36 26q-18 10 -5 25q47 66 129 99.5t175 33.5q68 0 128 -17.5t104 -52t70.5 -89t26.5 -130.5q0 -61 -34.5 -143t-122.5 -197 l-422 -557q-12 -14 8 -14h561q14 0 14 -15v-49q0 -14 -12 -14h-664q-20 0 -20 18z" />
<glyph unicode="3" d="M80 119q-8 16 8 28l31 25q10 8 14 6t14 -12t22.5 -21.5t23.5 -21.5q76 -63 184 -64q55 0 104 19.5t85 55.5t57.5 86t21.5 112v84q0 10 -1 22.5t-3 22.5q-12 82 -70.5 137t-156.5 55h-135q-14 0 -15 15v49q0 14 12 14h138q45 0 87 16.5t72.5 46t49 71.5t18.5 96 q0 100 -60.5 170.5t-185.5 70.5q-72 0 -129 -25.5t-92 -72.5q-12 -23 -31 -10l-41 26q-8 4 -6 12.5t6 12.5q47 66 124 99.5t169 33.5q160 0 247 -85t87 -226q0 -51 -16.5 -96.5t-41 -81t-55 -59t-61.5 -32.5q-8 0 -8 -6q0 -4 8 -8q49 -12 82 -41t54.5 -65.5t30.5 -77.5 t9 -78v-82q0 -80 -25.5 -144.5t-71.5 -110.5t-112.5 -71.5t-146.5 -25.5q-59 0 -111.5 10t-95.5 39q-55 37 -88 82z" />
<glyph unicode="4" d="M82 324v32q0 20 2 30.5t10 25.5l443 837q6 14 22 15h55q23 0 11 -23l-449 -842q-4 -6 -3 -12t11 -6h389q12 0 13.5 6t1.5 14v385q0 14 16 15h53q14 0 15 -15v-383q0 -10 3 -16t15 -6h156q14 0 14 -14v-45q0 -14 -14 -15h-154q-10 0 -14 -2t-4 -14v-277q0 -14 -15 -14h-55 q-16 0 -16 14v277q0 16 -17 16h-471q-18 0 -18 17z" />
<glyph unicode="5" d="M131 137q0 4 10 13l41 24q10 4 14.5 3t14.5 -11q80 -104 219 -105q117 0 188.5 66t71.5 182v174q0 106 -66.5 175t-187.5 69q-35 0 -79 -14.5t-72 -34.5q-25 -23 -47 -10l-45 26q-10 6 -15.5 12.5t-5.5 22.5v520q0 14 16 15h547q14 0 15 -15v-49q0 -12 -15 -12h-461 q-14 0 -14 -14v-404q0 -25 27 -10q43 27 83 36t76 9q160 0 245 -88t85 -228v-167q0 -162 -94 -249t-252 -87q-207 0 -295 137q-4 10 -4 14z" />
<glyph unicode="6" d="M127 307v633q0 76 26.5 138.5t72.5 107.5t109.5 68.5t139.5 23.5q188 0 293 -129q12 -14 -2 -23l-39 -32q-16 -10 -27 6q-37 47 -93 74.5t-128 27.5q-123 0 -194.5 -75.5t-71.5 -186.5v-266q0 -18 16 -6q94 113 248 112q78 0 140.5 -23.5t105.5 -65.5t65.5 -98t22.5 -124 v-158q0 -152 -91 -238.5t-251 -86.5q-74 0 -137.5 21.5t-108.5 62.5t-70.5 100t-25.5 137zM213 313q0 -113 69.5 -183.5t186.5 -70.5q123 0 188.5 71t67.5 187v146q0 115 -72.5 177t-185.5 62q-51 0 -97 -19t-81 -53t-55.5 -79t-20.5 -96v-142z" />
<glyph unicode="7" d="M127 1059v190q0 14 16 15h633q23 0 23 -19v-33q0 -10 -3 -21t-8 -17q-139 -317 -249 -570q-47 -109 -92.5 -212t-82 -185t-59 -134.5t-24.5 -56.5q-4 -10 -9.5 -13t-15.5 -3h-61q-18 0 -13 18l508 1151q8 18 -14 19h-451q-18 0 -18 -17v-112q0 -14 -14 -15h-52 q-14 0 -14 15z" />
<glyph unicode="8" d="M94 344q0 121 56.5 206t132.5 116q8 2 8 7t-8 9q-86 39 -127 117t-41 153q0 72 24.5 132.5t69.5 103.5t108.5 67.5t141.5 24.5q160 0 252 -90t92 -236q0 -82 -45 -156.5t-121 -115.5q-6 -4 -8 -8t6 -8q86 -43 135 -120t49 -194q0 -90 -29.5 -158.5t-80 -114.5t-118 -69.5 t-142.5 -23.5q-78 0 -142.5 22.5t-112 66.5t-74 111.5t-26.5 157.5zM184 340q0 -135 77 -207t188 -72q53 0 103 16.5t90 51.5t63.5 88t23.5 127q0 70 -21.5 124t-59.5 91t-88 56.5t-105 19.5q-53 0 -102.5 -19.5t-86.5 -56.5t-59.5 -92t-22.5 -127zM203 950q0 -51 20.5 -95 t55 -75.5t81 -50t97.5 -18.5t97 17t81 49t56.5 76t21.5 99q0 111 -66.5 181.5t-189.5 70.5q-113 0 -183.5 -70.5t-70.5 -183.5z" />
<glyph unicode="9" d="M102 801v143q0 152 96.5 243t258.5 91q150 0 239.5 -89t89.5 -249v-592q0 -88 -27.5 -155.5t-74.5 -113.5t-113.5 -69.5t-142.5 -23.5q-96 0 -171 35.5t-122 101.5q-12 16 2 24l41 27q18 8 27 -6q37 -47 92 -77t127 -30q119 0 197.5 75t78.5 216v240q0 20 -14 6 q-98 -113 -250 -113q-78 0 -139 25t-104 66.5t-67 99t-24 125.5zM188 805q0 -115 71 -179.5t190 -64.5q51 0 97 19.5t79.5 53.5t54 79t20.5 96v135q0 113 -66.5 186.5t-182.5 73.5q-61 0 -110.5 -20.5t-83.5 -55t-51.5 -82t-17.5 -102.5v-139z" />
<glyph unicode=":" horiz-adv-x="337" d="M98 55q0 29 19.5 49.5t48.5 20.5q33 0 53.5 -19.5t20.5 -48.5q0 -31 -20.5 -50t-53.5 -19q-29 0 -48.5 19.5t-19.5 47.5zM98 702q0 29 19.5 48.5t48.5 19.5q33 0 53.5 -19.5t20.5 -48.5t-20.5 -50t-53.5 -21q-29 0 -48.5 21.5t-19.5 49.5z" />
<glyph unicode=";" horiz-adv-x="354" d="M96 -193l19 310q0 20 22 20h84q25 0 19 -26l-78 -308q-2 -18 -21 -18h-30q-14 0 -15 22zM111 702q0 29 19.5 49.5t47.5 20.5q33 0 53.5 -20.5t20.5 -49.5t-20.5 -49t-53.5 -20q-29 0 -48 20.5t-19 48.5z" />
<glyph unicode="&#x3c;" d="M51 502v35q0 18 23 30l755 404q10 4 18.5 3t8.5 -16v-38q0 -20 -22 -31l-672 -363q-8 -2 -8 -8q0 -2 8 -8l672 -356q16 -8 19 -15.5t3 -17.5v-43q0 -14 -12 -15q-2 0 -15 5l-749 399q-29 14 -29 35z" />
<glyph unicode="=" d="M70 303v35q0 18 16 18h737q16 0 17 -18v-33q0 -18 -17 -18h-737q-16 0 -16 16zM70 674v35q0 18 16 18h737q16 0 17 -18v-33q0 -18 -17 -19h-737q-16 0 -16 17z" />
<glyph unicode="&#x3e;" d="M51 78v43q0 10 4 17t19 16l674 356q12 6 0 12l-672 367q-25 10 -25 31v38q0 16 15 17q4 0 12 -4l760 -404q20 -10 20 -26v-39q0 -12 -8 -19.5t-23 -15.5l-749 -399l-15 -5q-12 0 -12 15z" />
<glyph unicode="?" horiz-adv-x="905" d="M164 1145q47 66 125 101.5t172 35.5q68 0 127 -20.5t102 -59.5t67.5 -95t24.5 -130q0 -84 -50 -167t-154 -151q-96 -59 -142.5 -117.5t-46.5 -148.5v-96q0 -16 -12 -16h-55q-18 0 -19 18v107q0 76 38 147.5t114 122.5q47 31 90 63.5t76.5 67.5t53 77t19.5 91q0 35 -11 75 t-38 74.5t-73 57t-115 22.5q-70 0 -129.5 -28.5t-94.5 -75.5q-10 -16 -26 -4l-41 26q-16 8 -2 23zM272 57q0 29 21.5 48.5t50.5 19.5q31 0 51.5 -19.5t20.5 -48.5t-20.5 -50t-51.5 -21q-29 0 -50.5 21.5t-21.5 49.5z" />
<glyph unicode="@" horiz-adv-x="1462" d="M117 596q0 139 47 259t132 209t205 139t265 50q127 0 237.5 -38.5t192.5 -110.5t129 -177.5t47 -236.5q0 -113 -24.5 -194.5t-65.5 -135t-96.5 -79t-116.5 -25.5q-31 0 -78 14.5t-73 55.5q-4 8 -7 8q-4 0 -10 -6q-37 -41 -86 -59.5t-90 -18.5q-47 0 -89 16.5t-75 46 t-51 71.5t-18 93q0 49 18 90t49 71t74 46t92 16q45 0 86 -16t70 -49q2 -2 6 -2q12 0 12 16v37q0 35 -8 65.5t-28.5 53t-55.5 36t-88 13.5q-37 0 -77 -12.5t-73 -26.5q-18 -8 -22 8l-10 35q-2 4 -2 8t10 11q39 16 88 27t94 11q129 0 184.5 -65.5t55.5 -171.5v-244 q0 -43 20.5 -76.5t81.5 -33.5q55 0 98 26.5t73 74.5t46.5 114.5t16.5 146.5q0 125 -47.5 219t-122 157.5t-170 96.5t-191.5 33q-129 0 -236.5 -44t-185.5 -123t-121 -188.5t-43 -240.5q0 -135 44 -245.5t123 -188.5t189.5 -121t243.5 -43q94 0 178.5 17.5t155.5 45.5 q12 4 17 5q8 0 14 -15l12 -31q4 -14 -20 -24q-86 -31 -171 -47.5t-177 -16.5q-152 0 -277 46.5t-214 132.5t-138 208.5t-49 276.5zM563 477q0 -66 47 -114t115 -48q78 0 120 48t42 114q0 63 -41 111.5t-121 48.5q-66 0 -114 -46t-48 -114z" />
<glyph unicode="A" d="M29 3q-2 2 -2 5.5t2 9.5l358 1231q4 14 16 15h97q16 0 18 -15l363 -1226q2 -7 2 -12q0 -11 -13 -11h-61q-16 0 -21 12l-88 299q-2 8 -12 8h-473q-8 0 -10 -6q-2 -10 -15.5 -55t-28 -95t-27.5 -95t-15 -56q-4 -12 -19 -12h-57q-10 0 -14 3zM231 410q-1 -4 -1 -7q0 -8 8 -8 h428q12 0 10 13l-144 489l-75 270q-2 7 -5 7l-6 -7l-75 -272z" />
<glyph unicode="B" horiz-adv-x="966" d="M125 16v1231q0 16 14 17h377q147 0 237.5 -79t90.5 -233q0 -76 -40 -152.5t-128 -113.5q-4 -2 -4 -5t4 -5q51 -18 90 -51t63.5 -76t37 -93.5t12.5 -99.5q0 -78 -24 -143.5t-68 -112.5t-106.5 -73.5t-141.5 -26.5h-400q-14 0 -14 16zM213 90q0 -10 14 -10h310 q59 0 106 21.5t80 58.5t50.5 86t17.5 106q0 59 -18.5 111.5t-54.5 91.5t-86 61.5t-114 22.5h-293q-12 0 -12 -14v-535zM213 731q0 -8 1 -11t11 -3h293q109 0 173.5 64.5t64.5 170.5q0 104 -61.5 169t-178.5 65h-291q-6 0 -9 -1t-3 -11v-443z" />
<glyph unicode="C" horiz-adv-x="845" d="M119 322v626q0 70 25.5 130.5t73.5 104.5t114.5 69.5t146.5 25.5q92 0 173 -30.5t136 -98.5q6 -6 6 -12q0 -7 -8 -15l-36 -30q-12 -12 -29 6q-39 49 -106.5 75.5t-135.5 26.5q-123 0 -197.5 -72.5t-74.5 -181.5v-620q0 -55 18.5 -102.5t53 -83.5t87 -56.5t119.5 -20.5 q66 0 129.5 26t108.5 73q20 23 35 10l30 -27q9 -8 9 -16q0 -5 -4 -10q-57 -63 -135 -97t-173 -34q-86 0 -153.5 24.5t-114.5 68.5t-72.5 105.5t-25.5 135.5z" />
<glyph unicode="D" horiz-adv-x="968" d="M127 16v1231q0 16 14 17h383q340 0 340 -330v-592q0 -166 -90 -254t-252 -88h-381q-14 0 -14 16zM215 90q0 -12 14 -12h293q117 0 184.5 63.5t67.5 192.5v596q0 55 -12 102t-42 81t-79 53.5t-123 19.5h-289q-6 0 -10 -1t-4 -11v-1084z" />
<glyph unicode="E" horiz-adv-x="878" d="M125 16v1231q0 16 16 17h635q14 0 15 -17v-47q0 -14 -15 -14h-547q-8 0 -12 -1t-4 -11v-469q0 -12 14 -13h478q14 0 14 -16v-47q0 -14 -14 -15h-478q-14 0 -14 -14v-510q0 -12 14 -12h574q16 0 16 -15v-47q0 -16 -16 -16h-660q-16 0 -16 16z" />
<glyph unicode="F" horiz-adv-x="813" d="M125 14v1233q0 16 18 17h639q14 0 15 -15v-49q0 -14 -15 -14h-553q-6 0 -10 -1t-4 -11v-472q0 -8 1 -10t11 -2h469q14 0 15 -16v-49q0 -14 -15 -15h-467q-14 0 -14 -14l-2 -582q0 -14 -12 -14h-60q-16 0 -16 14z" />
<glyph unicode="G" horiz-adv-x="944" d="M119 317v635q0 70 27.5 129.5t76.5 103.5t116 68.5t144 24.5q92 0 179.5 -33t134.5 -98q10 -14 -4 -27l-37 -28q-16 -14 -31 6q-39 53 -106.5 77.5t-133.5 24.5q-61 0 -112 -19.5t-88 -54t-57.5 -82t-20.5 -100.5v-622q0 -59 21.5 -106.5t59.5 -81.5t88 -52.5t109 -18.5 q119 0 196 67t77 192v262q0 14 -13 14h-180q-16 0 -16 14v50q0 16 16 16h264q18 0 19 -16v-343q0 -72 -25.5 -133t-74 -106t-115 -69.5t-148.5 -24.5q-80 0 -146.5 22.5t-115.5 65.5t-76.5 104.5t-27.5 138.5z" />
<glyph unicode="H" horiz-adv-x="1021" d="M125 14v1235q0 14 16 15h58q14 0 14 -15v-547q0 -12 14 -12h570q10 0 11 3t1 9v547q0 14 16 15h58q16 0 16 -15v-1235q0 -14 -14 -14h-60q-16 0 -16 14v584q0 14 -12 14h-570q-14 0 -14 -14v-584q0 -14 -14 -14h-58q-16 0 -16 14z" />
<glyph unicode="I" horiz-adv-x="411" d="M160 14v1235q0 14 16 15h57q16 0 17 -15v-1235q0 -14 -17 -14h-57q-16 0 -16 14z" />
<glyph unicode="J" horiz-adv-x="464" d="M-55 -168q-1 4 -1 8q0 12 15 19q86 31 136 64.5t77 78.5t35 104.5t8 137.5v1001q0 16 16 17h54q18 0 18 -17v-993q0 -106 -12 -181t-47 -129.5t-97.5 -93t-162.5 -73.5q-4 -1 -9 -1h-5q-9 1 -13 13z" />
<glyph unicode="K" horiz-adv-x="962" d="M123 12v1233q0 18 16 19h62q12 0 12 -19v-583q0 -12 3 -17.5t15 8.5l533 596q12 12 24 13h62q12 0 13 -6.5t-3 -12.5l-438 -495q-10 -10 -6 -13.5t14 -3.5q25 6 54.5 8t54.5 2q88 -2 147 -30.5t96 -74.5t54.5 -104.5t21.5 -119.5l27 -398q0 -14 -15 -14h-53q-14 0 -14 14 l-27 375q-4 47 -13 96.5t-38 90t-82 67.5t-141 27q-84 0 -139.5 -26t-88 -66.5t-47 -91t-14.5 -99.5v-373q0 -14 -12 -14h-62q-16 0 -16 12z" />
<glyph unicode="L" horiz-adv-x="808" d="M117 16v1233q0 14 16 15h57q14 0 15 -15v-1157q0 -12 14 -12h555q14 0 14 -14v-50q0 -16 -14 -16h-639q-18 0 -18 16z" />
<glyph unicode="M" horiz-adv-x="1234" d="M106 14v1223q0 10 5.5 18.5t19.5 8.5h47q23 0 29 -19l291 -772q29 -76 55.5 -150.5t54.5 -150.5q6 -14 15 0l110 303q74 195 146.5 386.5t144.5 385.5q4 8 10 12.5t19 4.5h47q16 0 20 -8.5t4 -18.5v-1223q0 -14 -14 -14h-55q-16 0 -17 14v1014q0 10 -8 2l-180 -477 q-47 -123 -93 -243t-93 -242q-10 -18 -27 -19h-45q-10 0 -16.5 3t-10.5 14q-49 131 -98 261t-100 261l-166 440q-6 6 -8 0v-1014q0 -14 -15 -14h-55q-16 0 -17 14z" />
<glyph unicode="N" horiz-adv-x="1017" d="M119 16v1221q0 27 22 27h47q14 0 19.5 -5.5t11.5 -13.5l588 -1069q8 -12 8 0v1071q0 16 14 17h58q14 0 14 -15v-1224q0 -14 -7 -19.5t-17 -5.5h-46q-14 0 -20 4t-10 12q-12 23 -57.5 105t-107 192.5t-130 236.5t-130 236.5t-106.5 191.5t-57 103q-8 12 -8 0v-1065 q0 -16 -17 -16h-55q-14 0 -14 16z" />
<glyph unicode="O" horiz-adv-x="974" d="M119 338v600q0 74 26.5 135.5t73.5 107.5t114.5 71.5t151.5 25.5t153 -24.5t117 -69.5t74.5 -107.5t26.5 -138.5v-610q0 -76 -24.5 -138.5t-72.5 -107.5t-117 -70.5t-155 -25.5q-90 0 -159.5 26.5t-115.5 74.5t-69.5 112.5t-23.5 138.5zM207 342q0 -55 16.5 -105.5 t50 -88t87 -61.5t126.5 -24q135 0 208 74t73 195v602q0 53 -17.5 101t-52 84t-87 57.5t-124.5 21.5q-68 0 -121 -21.5t-87.5 -57.5t-53 -84t-18.5 -101v-592z" />
<glyph unicode="P" d="M133 14v1233q0 16 19 17h385q78 0 139 -26t104 -70t66.5 -105t23.5 -135t-23.5 -134.5t-67.5 -105.5t-105.5 -69.5t-134.5 -24.5h-303q-14 0 -15 -16v-564q0 -14 -16 -14h-55q-16 0 -17 14zM219 686q0 -16 17 -16h301q121 0 184 71.5t63 188.5q0 51 -16 98t-48 82 t-78 55.5t-105 20.5h-299q-18 0 -19 -12v-488z" />
<glyph unicode="Q" horiz-adv-x="974" d="M119 326v622q0 74 28.5 134.5t78.5 103.5t117 67.5t142 24.5q78 0 145.5 -23.5t118 -66.5t79 -103.5t28.5 -136.5v-629q0 -137 -83 -225t-228 -104q-10 -2 -12.5 -6t-2.5 -13q0 -33 3.5 -61.5t15.5 -50t35.5 -33.5t64.5 -12q27 0 58.5 5t66.5 19q18 8 25 -8l14 -37 q4 -12 1 -17t-11 -9q-37 -16 -79 -24.5t-77 -8.5q-61 0 -100 18.5t-61.5 50t-32 74.5t-9.5 94q0 18 -14 19q-141 16 -226 108t-85 228zM207 330q0 -115 73.5 -191t206.5 -76q123 0 202 70t79 191v620q0 53 -19.5 99.5t-56.5 81t-89 55t-116 20.5q-61 0 -113 -20.5t-89 -55 t-57.5 -81t-20.5 -99.5v-614z" />
<glyph unicode="R" horiz-adv-x="952" d="M125 14v1229q0 18 22 19h369q174 0 262 -92t88 -246q0 -61 -16 -114.5t-44 -97.5t-64.5 -78t-75.5 -59q-10 -6 -2 -18l247 -534q3 -7 3 -11t-2 -6q-5 -6 -13 -6h-53q-16 0 -22.5 5t-10.5 18l-235 507q-4 12 -11.5 18.5t-23.5 6.5h-314q-16 0 -16 -16v-525q0 -14 -14 -14 h-58q-16 0 -16 14zM213 647q0 -16 14 -16h353q16 0 25 3t13 7q72 39 115 111.5t43 158.5q0 47 -11 95.5t-43 88.5t-87 65.5t-141 25.5h-261q-20 0 -20 -17v-522z" />
<glyph unicode="S" horiz-adv-x="874" d="M68 143l26 27q12 12 29 0q49 -41 125.5 -74t148.5 -33q135 0 225.5 65t90.5 194q0 63 -20.5 108t-56.5 78t-85 57.5t-105 46.5q-59 23 -123.5 50.5t-117.5 65.5t-89 92t-36 132q0 80 29.5 140.5t78 102.5t110.5 62.5t130 20.5q82 0 165 -21.5t150 -72.5q10 -6 8.5 -12.5 t-6.5 -14.5l-24 -37q-6 -10 -14.5 -8t-14.5 6q-53 39 -122.5 59.5t-133.5 20.5q-47 0 -95 -13.5t-87 -42t-62.5 -75.5t-23.5 -115q0 -53 27.5 -92t69.5 -68.5t93.5 -52t98.5 -41.5q66 -27 128 -56.5t110 -72.5t77 -100t29 -139q0 -84 -31 -147.5t-85 -106.5t-128 -64.5 t-158 -21.5q-98 0 -189 33.5t-147 93.5q-6 6 -6 11t11 15z" />
<glyph unicode="T" horiz-adv-x="819" d="M25 1200v47q0 16 14 17h741q14 0 15 -15v-49q0 -14 -15 -14h-313q-8 0 -12 -1t-4 -11v-1160q0 -14 -15 -14h-55q-18 0 -19 14v1160q0 12 -14 12h-309q-14 0 -14 14z" />
<glyph unicode="U" horiz-adv-x="980" d="M121 326v923q0 14 16 15h58q14 0 14 -15v-919q0 -55 18.5 -103.5t54 -85.5t89 -57.5t123.5 -20.5q68 0 120 20.5t86.5 56.5t53 84t18.5 104v921q0 14 16 15h58q14 0 14 -15v-923q0 -78 -27.5 -140.5t-76.5 -106.5t-117 -68.5t-147 -24.5q-86 0 -156 25.5t-117 70.5 t-72.5 107.5t-25.5 136.5z" />
<glyph unicode="V" horiz-adv-x="858" d="M20 1243q-2 5 -2 9q0 11 17 12h59q14 0 21 -15l200 -727l113 -420q4 -12 8 0q2 8 10.5 41t20.5 76t25.5 93t25.5 93.5t20.5 76t10.5 40.5l196 727q4 14 21 15h59q15 0 17 -8q1 -3 0 -6q0 -5 -2 -11l-351 -1227q-2 -12 -18 -12h-84q-12 0 -16 14z" />
<glyph unicode="W" horiz-adv-x="1304" d="M4 1245v6q0 12 14 13h62q14 0 18 -19q43 -201 88 -400.5t86 -402.5q18 -80 34 -158.5t32 -158.5q2 -4 5 -4t5 4l62 289q4 16 8 34.5t11 52.5t18.5 89t31 142t47 213t66.5 304q2 6 5 10.5t15 4.5h66q14 0 18 -19q39 -168 79 -338t79 -340l100 -442q2 -6 6.5 -7t4.5 7 l90 450q35 168 69.5 336t69.5 336q6 16 20 17h60q15 0 15 -11q0 -5 -1 -12l-270 -1229q-4 -12 -17 -12h-88q-10 0 -14 10q-39 170 -77 337t-79 337l-96 422q0 4 -2 4t-4 -4l-92 -426l-148 -670q-6 -10 -18 -10h-86q-10 0 -14 10z" />
<glyph unicode="X" horiz-adv-x="845" d="M20 6q-1 2 0 4q0 4 3 10l342 621q10 16 7 23.5t-7 11.5l-312 569q-10 18 10 19h64q20 0 25 -11l266 -497q4 -4 8 -4t6 4q6 10 26.5 49t48.5 90t60.5 109.5t60 109.5t48 89t26.5 50q4 10 23 11h59q20 0 13 -19q-8 -16 -33 -59t-56.5 -101.5t-68.5 -124t-68.5 -124 t-55 -102.5t-32.5 -58q-8 -12 -6 -20.5t6 -12.5q8 -16 34 -63.5t61.5 -112t76.5 -136t77 -136t62.5 -112.5t34.5 -63q2 -6 2 -10q0 -10 -12 -10h-61h-14.5t-10.5 10l-301 551q-6 14 -14 2l-301 -553q-6 -10 -11.5 -10h-13.5h-59q-11 0 -13 6z" />
<glyph unicode="Y" horiz-adv-x="825" d="M29 1243q-3 6 -3 11q0 9 15 10h57q10 0 15.5 -4.5t9.5 -12.5l285 -647l6 -6t6 6q6 16 27.5 65.5t51 116t62.5 142t62.5 142.5t51 116t27.5 65q6 10 10.5 13.5t16.5 3.5h57q15 0 15 -10q0 -5 -4 -13l-330 -725q-8 -16 -9 -27.5t-1 -21.5v-453q0 -14 -15 -14h-57 q-16 0 -16 14v443q0 16 -1 26.5t-8 24.5z" />
<glyph unicode="Z" horiz-adv-x="804" d="M37 18v33q0 18 8 39l606 1081q10 14 -10 15h-557q-18 0 -18 16v45q0 16 16 17h657q23 0 23 -21v-31q0 -12 -4 -23t-8 -20l-598 -1073q-10 -16 8 -16h594q16 0 16 -17v-47q0 -16 -14 -16h-699q-20 0 -20 18z" />
<glyph unicode="[" horiz-adv-x="622" d="M193 -276v1646q0 16 14 16h256q12 0 12 -16v-45q0 -12 -12 -12h-168q-16 0 -16 -15v-1503q0 -14 16 -14h168q12 0 12 -12v-45q0 -14 -12 -15h-256q-14 0 -14 15z" />
<glyph unicode="\" horiz-adv-x="581" d="M12 1364q-6 16 13 16h28q16 0 23 -16l497 -1485q2 -8 -3 -12t-11 -4h-31q-14 0 -18 16z" />
<glyph unicode="]" horiz-adv-x="624" d="M109 -233q0 14 12 14h168q16 0 16 14v1503q0 12 -16 13h-168q-12 0 -12 14v45q0 14 12 14h256q14 0 14 -14v-1649q0 -14 -12 -14h-258q-12 0 -12 14v46z" />
<glyph unicode="^" horiz-adv-x="1028" d="M147 815l326 449q8 10 11 13t12 3h34q14 0 25 -16l332 -449q12 -12 -4 -24l-23 -19q-12 -8 -24 4l-312 373q-8 10 -11 10t-11 -10l-301 -365q-4 -4 -8.5 -10t-14.5 0l-26 21q-12 10 -5 20z" />
<glyph unicode="_" horiz-adv-x="1024" d="M-8 -178q0 14 16 14h1010q12 0 12 -14v-41q0 -12 -12 -12h-1010q-14 0 -14 12z" />
<glyph unicode="`" horiz-adv-x="823" d="M258 1262.5q0 7.5 18 17.5l46 25q25 12 36 -9l140 -254q4 -6 5 -12t-11 -14l-23 -12q-10 -6 -16.5 -2t-10.5 10l-176 233q-8 10 -8 17.5z" />
<glyph unicode="a" horiz-adv-x="782" d="M57 283q0 63 20.5 118.5t59.5 96.5t97.5 65.5t134.5 24.5q63 0 121.5 -22.5t93.5 -63.5q8 -8 13 -5t5 13v94q0 43 -9 83t-33.5 70.5t-69 50t-111.5 19.5q-25 0 -53.5 -3t-58 -9t-57.5 -14t-48 -17q-14 -10 -21 7l-18 43q-2 12 10 18q51 25 121 38t131 13q164 0 233.5 -79 t69.5 -226v-584q0 -14 -14 -14h-53q-12 0 -13 12v80q0 14 -6 14t-12 -8q-79 -108 -235 -108h-3q-141 0 -218 81t-77 212zM137 287q0 -96 53.5 -162t174.5 -66q104 0 168.5 68t64.5 164q0 94 -60.5 161.5t-166.5 67.5q-55 0 -99.5 -18.5t-74 -50t-45 -74.5t-15.5 -90z" />
<glyph unicode="b" horiz-adv-x="841" d="M104 12v1278q0 14 17 15h57q12 0 12 -13v-483q0 -12 5.5 -16.5t15.5 6.5q43 47 102.5 74.5t139.5 27.5q90 0 150.5 -29.5t97 -78t53 -108.5t16.5 -122v-254q0 -68 -20.5 -126t-60.5 -101t-100.5 -67.5t-142.5 -24.5q-76 0 -139 26.5t-100 71.5q-10 10 -15.5 8t-5.5 -12 v-70q0 -14 -14 -14h-51q-16 0 -17 12zM188 309q0 -53 18.5 -98t51.5 -79t78 -52.5t100 -18.5q133 0 190.5 70t57.5 182v254q0 51 -13.5 98.5t-43 83t-75.5 57t-114 21.5q-55 0 -100 -20.5t-79 -55t-52.5 -81.5t-18.5 -99v-262z" />
<glyph unicode="c" horiz-adv-x="759" d="M92 313v262q0 74 25.5 134.5t70.5 102.5t106.5 65.5t133.5 23.5q176 0 274 -129q10 -16 -4 -24l-36 -31q-12 -8 -27 6q-35 49 -90.5 76.5t-118.5 27.5q-111 0 -180.5 -70.5t-69.5 -178.5v-265q0 -117 70.5 -183.5t181.5 -66.5q74 0 125 28t86 75q8 14 23 4l36 -23 q12 -10 12 -17q0 -4 -3 -9q-47 -68 -120 -99.5t-161 -31.5q-158 0 -246 88t-88 235z" />
<glyph unicode="d" horiz-adv-x="856" d="M98 309v258q0 61 18.5 121t57.5 108t100.5 76.5t147.5 28.5q78 0 139.5 -27.5t93.5 -74.5q10 -12 15.5 -8t5.5 16v483q0 14 14 15h58q14 0 14 -13v-1280q0 -12 -14 -12h-54q-12 0 -12 14v70q0 10 -6 13t-17 -7q-35 -47 -98 -73.5t-139 -26.5q-78 0 -138.5 23.5 t-101.5 66.5t-62.5 101.5t-21.5 127.5zM182 313q0 -111 62.5 -181.5t185.5 -70.5q55 0 100 18.5t78 52.5t51.5 79t18.5 98v262q0 51 -18.5 98.5t-51.5 81t-78 54t-100 20.5q-66 0 -113 -21.5t-76.5 -56t-44 -82t-14.5 -98.5v-254z" />
<glyph unicode="e" horiz-adv-x="835" d="M98 311v258q0 78 26 139.5t70 104.5t104 65.5t130 22.5q72 0 133.5 -21.5t105.5 -63.5t69.5 -105.5t25.5 -149.5v-88q0 -18 -9.5 -26.5t-19.5 -8.5h-526q-25 0 -25 -26v-99q0 -106 67.5 -178t182.5 -72q68 0 120 27t87 74q12 16 27 6l39 -25q12 -10 8 -22 q-43 -66 -117 -99.5t-166 -33.5q-154 0 -243 87t-89 234zM182 532q0 -22 23 -22h2h450q18 0 19 22v48q0 109 -67.5 178t-180.5 69q-53 0 -97 -18t-78 -52t-52.5 -79t-18.5 -96v-50z" />
<glyph unicode="f" horiz-adv-x="526" d="M35 831v46q0 14 12 14h96q18 0 19 18v146q0 133 69.5 198.5t186.5 65.5q35 0 71.5 -4t63.5 -15q10 -4 13 -6q1 -1 1 -3q0 -3 -2 -9l-10 -47q-4 -16 -20 -10q-20 8 -48 13t-57 5q-104 0 -144 -56.5t-40 -148.5v-129q0 -18 16 -18h242q12 0 12 -14v-48q0 -12 -12 -12h-246 q-12 -2 -12 -18v-787q0 -12 -15 -12h-57q-14 0 -14 12v787q0 16 -13 18h-100q-12 0 -12 14z" />
<glyph unicode="g" horiz-adv-x="849" d="M88 590q0 61 24.5 117.5t67.5 99.5t102.5 68.5t131.5 25.5q47 0 105.5 -15.5t105.5 -56.5q8 -8 14 -8t14 8q35 29 80 47.5t92 22.5h6q14 0 15 -20v-62q0 -16 -12 -16h-7q-31 0 -69.5 -8.5t-55.5 -16.5q-10 -4 -10 -10q0 -4 8 -21q20 -31 30.5 -71.5t10.5 -79.5 q0 -74 -27.5 -133.5t-73.5 -100.5t-105.5 -63.5t-124.5 -22.5h-35t-33 5q-16 0 -23.5 -3.5t-17.5 -9.5q-20 -14 -41.5 -34.5t-38 -44t-28 -48t-11.5 -49.5q0 -31 7.5 -37t29.5 -2q27 6 59.5 11.5t66.5 9.5t65.5 6t56.5 2q74 0 142.5 -13.5t122.5 -43t87 -75.5t33 -114 q0 -72 -41 -134t-106 -101q-8 -4 -15 -7h-3q-6 0 -13 9l-27 37q-8 14 8 26q39 25 74 68t35 96q0 51 -26.5 84t-68.5 53.5t-94.5 28.5t-103.5 8q-66 0 -146.5 -9t-158.5 -20q-18 -4 -29.5 1.5t-21.5 29.5q-14 31 -15 90q0 41 36 102.5t102 108.5q6 2 6 8q0 2 -8 11h-3 q-68 41 -106.5 110.5t-38.5 155.5zM174 588q0 -47 16.5 -90t46 -77t73.5 -54.5t100 -20.5q57 0 103 20.5t78 54.5t48 79t16 92t-16 90t-48 74.5t-76 50t-99 18.5t-99.5 -19.5t-76 -52t-49 -75.5t-17.5 -90z" />
<glyph unicode="h" horiz-adv-x="876" d="M111 12v1278q0 14 14 15h57q12 0 13 -15v-485q0 -12 6 -15.5t14 7.5q47 53 111.5 78.5t136.5 25.5q86 0 145.5 -28.5t97 -74.5t54 -107.5t16.5 -125.5v-551q0 -14 -14 -14h-57q-14 0 -15 12v555q0 51 -13 99.5t-43 83t-77 56t-115 21.5q-55 0 -100 -20.5t-77 -55 t-50 -80.5t-18 -100v-557q0 -14 -15 -14h-57q-14 0 -14 12z" />
<glyph unicode="i" horiz-adv-x="352" d="M111 1151q0 27 18 44t43 17q27 0 44 -17t17 -44t-18 -45.5t-43 -18.5t-43 17.5t-18 46.5zM127 12v865q0 14 14 14h58q14 0 14 -14v-865q0 -12 -14 -12h-58q-14 0 -14 12z" />
<glyph unicode="j" horiz-adv-x="335" d="M-100 -336l10 45q4 12 20 10q16 -4 37 -6t37 -2q78 0 102.5 41t24.5 123v1002q0 14 14 14h58q14 0 14 -14v-1008q0 -117 -49 -176.5t-158 -59.5q-29 0 -55.5 3.5t-42.5 9.5q-14 2 -12 18zM113 1151q0 27 18.5 44t42.5 17q27 0 44.5 -17t17.5 -44t-18.5 -45.5t-41.5 -18.5 q-27 0 -45 17.5t-18 46.5z" />
<glyph unicode="k" horiz-adv-x="831" d="M106 12v1278q0 14 15 15h59q12 0 13 -13v-817q0 -16 7 -17t15 5l420 418q12 10 29 10h71q8 0 11.5 -5t-1.5 -9l-319 -322q-10 -10 -6 -14t10 -2q8 2 15.5 2h13.5q145 0 219 -85t82 -233l10 -205q0 -18 -16 -18h-54q-16 0 -16 16l-10 207q-2 49 -15.5 94t-42 79 t-72.5 53.5t-108 19.5q-51 0 -96 -18.5t-78 -51t-51 -74.5t-18 -87v-224q0 -14 -13 -14h-57q-16 0 -17 12z" />
<glyph unicode="l" horiz-adv-x="399" d="M143 166v1124q0 14 13 15h57q14 0 14 -15v-1095q0 -61 18.5 -93t80.5 -32h20q12 0 14 -5.5t2 -13.5v-47q0 -14 -16 -14h-39q-53 0 -85 14t-49 38t-23.5 55.5t-6.5 68.5z" />
<glyph unicode="m" horiz-adv-x="1359" d="M104 12v580q0 70 25 127t67 98t98 62.5t122 21.5q72 0 140.5 -32.5t117.5 -110.5q10 -12 20 0q41 68 117 105.5t150 37.5q145 0 220.5 -83t75.5 -226v-578q0 -14 -12 -14h-59q-14 0 -15 12v580q0 100 -53 167.5t-172 67.5q-43 0 -83 -18t-70.5 -51t-49 -75t-18.5 -91 v-578q0 -14 -14 -14h-58q-14 0 -14 12v580q0 49 -17.5 92t-47 75t-69.5 50t-85 18q-115 0 -172.5 -67.5t-57.5 -167.5v-578q0 -14 -12 -14h-59q-14 0 -15 12z" />
<glyph unicode="n" horiz-adv-x="874" d="M109 12v865q0 14 14 14h55q12 0 12 -14v-76q0 -12 5.5 -14.5t15.5 8.5q45 51 111.5 78.5t138.5 27.5q86 0 145.5 -27.5t97 -74.5t54 -107.5t16.5 -126.5v-551q0 -14 -12 -14h-60q-14 0 -14 12v555q0 51 -13 99.5t-42 83t-77 56t-116 21.5q-55 0 -100 -20.5t-77 -55 t-50 -80.5t-18 -100v-557q0 -14 -15 -14h-57q-14 0 -14 12z" />
<glyph unicode="o" horiz-adv-x="862" d="M100 315v263q0 145 89.5 234t244.5 89q154 0 242 -87t88 -239v-256q0 -158 -87 -243.5t-243 -85.5q-162 0 -248 88t-86 237zM184 317q0 -117 63.5 -186.5t186.5 -69.5t184.5 70t61.5 188v254q0 111 -61.5 182.5t-184.5 71.5q-111 0 -180.5 -70.5t-69.5 -181.5v-258z" />
<glyph unicode="p" horiz-adv-x="870" d="M113 -356v1233q0 14 14 14h53q14 0 15 -14v-76q0 -23 20 -2q37 47 99.5 74.5t138.5 27.5q154 0 238.5 -89t84.5 -230v-256q0 -61 -17.5 -123t-55 -109t-98 -76.5t-146.5 -29.5q-80 0 -138.5 27.5t-101.5 76.5q-20 20 -20 -8v-440q0 -12 -15 -13h-57q-14 0 -14 13z M197 319q0 -53 18 -99t51 -82t78 -56.5t100 -20.5q66 0 113 20.5t77 55.5t44 83t14 102v253q0 113 -60.5 182.5t-187.5 69.5q-111 0 -179 -69.5t-68 -175.5v-263z" />
<glyph unicode="q" horiz-adv-x="856" d="M86 326v254q0 70 22.5 129t63.5 102t101.5 66.5t136.5 23.5t138 -26.5t99 -73.5q10 -10 15.5 -7t5.5 13v70q0 14 14 14h53q14 0 15 -14v-1239q0 -14 -15 -15h-57q-14 0 -14 15v444q0 12 -5.5 16t-15.5 -8q-37 -47 -98.5 -74.5t-138.5 -27.5q-90 0 -150.5 27.5t-98.5 73.5 t-54.5 107.5t-16.5 129.5zM170 322q0 -51 12.5 -98.5t42 -82.5t76.5 -56.5t117 -21.5q55 0 100 20.5t78 55.5t51.5 81t18.5 99v261q0 109 -69 178t-179 69q-117 0 -182.5 -68.5t-65.5 -180.5v-256z" />
<glyph unicode="r" horiz-adv-x="520" d="M115 12v865q0 14 14 14h53q12 0 13 -14v-99q0 -27 16 -4q37 53 96.5 92t130.5 39q14 0 30.5 -1t29.5 -5q16 -6 14 -20l-14 -60q-2 -16 -23 -12q-10 2 -24.5 3t-26.5 1q-109 0 -166 -73.5t-57 -186.5v-537q0 -14 -13 -14h-57q-16 0 -16 12z" />
<glyph unicode="s" horiz-adv-x="696" d="M49 152q-3 4 -3 8q0 6 9 10l45 23q8 4 12.5 -0.5l8.5 -8.5q31 -55 93 -90t134 -35q94 0 152.5 44t58.5 118q0 41 -17.5 71t-44 51.5t-60.5 37.5t-66 29q-45 16 -97.5 35.5t-97.5 49t-74.5 71.5t-29.5 104q0 57 24.5 100t63.5 71.5t89 44t101 15.5q82 0 151.5 -26.5 t116.5 -75.5q10 -12 -2 -25l-28 -33q-12 -12 -27 2q-41 39 -97 61.5t-114 22.5q-29 0 -62.5 -8t-63 -26.5t-49 -47t-19.5 -69.5t20.5 -69.5t53 -49t69.5 -36t72 -27.5q51 -18 99 -40t87 -52.5t62.5 -74t23.5 -104.5q0 -43 -17.5 -86t-54 -75.5t-93 -53t-132.5 -20.5 q-92 0 -174 40t-123 124z" />
<glyph unicode="t" horiz-adv-x="569" d="M37 831v46q0 14 12 14h115q14 0 14 16v209q0 14 15 17l55 14h3q13 0 13 -14v-226q0 -16 12 -16h228q14 0 14 -14v-46q0 -14 -14 -14h-225q-14 0 -15 -18v-551q0 -96 32 -140.5t105 -44.5q29 0 68 6.5t61 12.5q12 4 16.5 -1t6.5 -11l8 -41q2 -14 -10 -19q-31 -12 -80 -16 t-82 -4q-63 0 -104 18.5t-64.5 51t-33 77.5t-9.5 96v566q0 18 -16 18h-113q-12 0 -12 14z" />
<glyph unicode="u" horiz-adv-x="872" d="M104 326v551q0 14 13 14h59q12 0 12 -14v-555q0 -51 12.5 -97.5t42 -82.5t77 -56t116.5 -20q55 0 100.5 19t78 54t50 81t17.5 99v558q0 14 14 14h58q16 0 16 -14v-863q0 -14 -16 -14h-56q-12 0 -12 12v76q0 33 -20 8q-43 -53 -111 -79.5t-139 -26.5q-90 0 -149.5 27.5 t-95.5 74.5t-51.5 107.5t-15.5 126.5z" />
<glyph unicode="v" horiz-adv-x="759" d="M25 872q-1 4 -1 8q0 10 13 11h51q12 0 17.5 -5t9.5 -16l170 -489l88 -268q6 -18 14 0l86 262l168 493q4 10 8 16.5t19 6.5h53q13 0 13 -11q0 -4 -1 -8l-305 -854q-4 -10 -7 -14t-15 -4h-50q-23 0 -26 16z" />
<glyph unicode="w" horiz-adv-x="1155" d="M20 872q-1 3 -1 6q0 10 12 11h53q12 0 16 -4t9 -15l124 -495l60 -254q4 -8 8 -8t4 8l72 252l147 495q4 12 7.5 16.5t15.5 4.5h51q10 0 15 -3t10 -18l153 -499l72 -248q4 -8 8 -8t4 8l58 248l120 499q4 20 27 21h51q12 0 14 -4q1 -2 2 -5q0 -3 -2 -8l-229 -854 q-4 -12 -8 -15t-14 -3h-48q-14 0 -18 2t-8 12l-156 490l-71 239q0 8 -4.5 9.5t-6.5 -9.5l-69 -243l-150 -484q-4 -12 -8 -14t-14 -2h-50q-12 0 -17 2t-9 14z" />
<glyph unicode="x" horiz-adv-x="702" d="M20 18l269 426q10 16 10 23.5t-10 21.5l-238 383q-4 6 -2 12.5t12 6.5h54q14 0 20 -2t15 -17l196 -321q8 -16 16 2l195 319q8 14 14.5 16.5t20.5 2.5h53q10 0 12 -6t-2 -13l-239 -385q-10 -16 -7 -23t7 -13l272 -433q4 -6 4 -10q0 -8 -14 -8h-55q-12 0 -19.5 3t-15.5 15 l-226 367q-4 10 -9 8t-9 -8l-225 -367q-8 -12 -15.5 -15t-17.5 -3h-55q-15 0 -15 8q0 4 4 10z" />
<glyph unicode="y" horiz-adv-x="739" d="M16 872q-1 3 -1 6q0 12 16 13h51q16 0 24 -17l240 -782q4 -10 8 -10q8 0 11 10l262 780q2 6 6 12.5t16 6.5h49q18 0 17 -19l-412 -1224q-4 -23 -31 -23h-41q-20 0 -14 25l111 338q4 12 -6 12h-13q-18 0 -24 18z" />
<glyph unicode="z" horiz-adv-x="692" d="M49 18v29q0 23 8 33l459 719q12 18 -10 18h-424q-16 0 -16 14v43q0 16 14 17h530q20 0 21 -21v-30q0 -25 -6 -33l-459 -715q-10 -18 12 -18h463q16 0 16 -15v-45q0 -14 -14 -14h-575q-18 0 -19 18z" />
<glyph unicode="{" horiz-adv-x="616" d="M84 537v43q0 16 7 20t18 8q86 35 116.5 97.5t30.5 148.5v276q0 145 52 209t188 62h34q12 0 13 -15v-45q0 -12 -13 -12h-38q-94 0 -124 -40t-30 -140v-332q0 -72 -37 -143.5t-113 -104.5q-16 -10 0 -14q74 -29 112 -101.5t38 -162.5v-344q0 -100 29.5 -140t124.5 -40h38 q12 0 13 -13v-45q0 -14 -13 -14h-34q-135 -2 -187.5 61.5t-52.5 208.5v303q0 84 -28.5 146.5t-114.5 97.5q-14 6 -21.5 10t-7.5 15z" />
<glyph unicode="|" horiz-adv-x="403" d="M164 -217v1585q0 14 14 14h43q12 0 12 -12v-1587q0 -12 -12 -12h-43q-14 0 -14 12z" />
<glyph unicode="}" horiz-adv-x="616" d="M88 -246q0 14 12 15h41q45 0 75 9t47.5 30.5t23.5 55.5t6 85v342q0 90 38 162.5t111 101.5q16 4 0 14q-76 33 -112.5 104.5t-36.5 143.5v332q0 100 -30 140t-122 40h-41q-12 0 -12 12v45q0 14 14 15h35q135 2 187.5 -61.5t52.5 -209.5v-276q0 -86 29.5 -147.5 t115.5 -98.5q10 -4 17.5 -8t7.5 -20v-43q0 -10 -6 -14.5t-23 -10.5q-86 -35 -114.5 -97.5t-28.5 -146.5v-303q0 -145 -51.5 -208.5t-186.5 -61.5h-35q-14 0 -14 14v45z" />
<glyph unicode="~" d="M29 574.5q0 5.5 4 11.5q45 63 102.5 93t116.5 30q47 0 93 -16.5t87 -39.5q53 -29 108.5 -55.5t110.5 -26.5q47 0 88 30t68 65q12 20 24 8l39 -31q8 -6 8 -11t-4 -11q-41 -63 -100 -98.5t-121 -35.5q-59 0 -116.5 22.5t-110.5 49.5q-41 23 -87 45.5t-89 22.5 q-47 0 -87 -26t-75 -69q-8 -8 -18 0l-35 31q-6 6 -6 11.5z" />
<glyph unicode="&#xa2;" d="M147 311v232q0 141 64.5 237.5t198.5 114.5q16 2 21 5t5 15v127q0 14 17 15h34q16 0 17 -15v-129q0 -16 16 -16q76 -4 133.5 -37t102.5 -86q8 -10 6 -15t-8 -11l-39 -33q-16 -8 -27 6q-39 53 -95 78.5t-122 25.5q-59 0 -103 -20.5t-74 -54t-45.5 -78.5t-15.5 -94v-267 q0 -104 61.5 -176t172.5 -72q78 0 129 26t94 77q6 10 12.5 9t12.5 -5l39 -25q12 -8 12 -13t-4 -13q-82 -115 -244 -127q-4 0 -9 -2t-5 -13v-139q0 -14 -12 -14h-41q-14 0 -15 12v144q0 10 -14 14q-135 10 -205 99t-70 218z" />
<glyph unicode="&#xa3;" d="M68 618v48q0 14 14 14h92q6 0 12.5 3t6.5 17v269q2 66 28.5 122t71.5 98t107.5 65.5t136.5 23.5q100 -4 171.5 -36t120.5 -91q14 -14 -2 -29l-36 -30q-14 -14 -25 2q-37 49 -99.5 78.5t-127.5 29.5q-55 0 -102.5 -17.5t-83.5 -49t-55 -76.5t-19 -98v-267q0 -14 12 -14 h260q12 0 12 -14v-48q0 -14 -12 -14h-260q-12 0 -12 -14v-238q0 -78 -9.5 -144.5t-52.5 -117.5q-2 -2 -2 -8t10 -6h545q14 0 14 -15v-47q0 -14 -12 -14h-688q-14 0 -14 12v37q0 20 22 33q57 35 79 94.5t22 159.5v256q-2 10 -15 10h-96q-14 0 -14 16z" />
<glyph unicode="&#xa5;" d="M84 1245q-10 18 10 19h60q10 0 14 -4.5t8 -12.5q41 -88 84 -172t84 -172l105 -221q6 -18 14 -2l123 262l147 303q6 10 10.5 14.5t14.5 4.5h55q14 0 14 -9q0 -4 -4 -12l-278 -571q-4 -10 -6 -19.5t14 -9.5h256q14 0 14 -12v-37q0 -14 -14 -14h-692q-14 0 -15 14v35 q0 14 15 14h239q18 0 11 16zM102 438v37q0 12 15 12h692q14 0 14 -12v-37q0 -14 -14 -14h-293q-18 0 -18 -21v-391q0 -12 -15 -12h-57q-14 0 -14 12v391q0 6 -3 13.5t-16 7.5h-276q-14 0 -15 14z" />
<glyph unicode="&#xa8;" horiz-adv-x="833" d="M211 1149q0 27 17.5 44t41.5 17q25 0 42.5 -17t17.5 -44t-18.5 -44.5t-41.5 -17.5q-25 0 -42 18.5t-17 43.5zM524 1149q0 27 17.5 44t42.5 17t43 -17t18 -44q0 -25 -17.5 -43.5t-41.5 -18.5q-27 0 -44.5 18.5t-17.5 43.5z" />
<glyph unicode="&#xa9;" horiz-adv-x="1433" d="M131 487v289q0 111 43 201t120 153.5t185.5 98.5t241.5 35q131 0 240.5 -33t187.5 -95.5t122 -152.5t44 -207v-289q0 -117 -44 -207t-122 -152t-187.5 -95t-240.5 -33q-133 0 -241.5 35t-185.5 98.5t-120 153.5t-43 200zM184 481q0 -88 34 -166.5t101.5 -138t168 -94.5 t231.5 -35q129 0 230.5 34t171 93t106.5 138t37 169v301q0 92 -37 171t-106.5 137.5t-171 92.5t-230.5 34q-131 0 -231.5 -35t-168 -93.5t-101.5 -138.5t-34 -168v-301zM473 506v219q0 109 71.5 177.5t188.5 68.5q147 -1 219 -101q6 -12 -4 -18l-26 -18q-14 -10 -23 2 q-27 37 -71 58t-97 21q-86 0 -141 -53t-55 -139v-213q0 -86 57 -140.5t141 -54.5q49 0 93 20.5t73 57.5q8 10 12 11.5t11 -3.5l28 -20q8 -4 8 -9t-4 -12q-37 -47 -93 -73.5t-128 -26.5q-117 0 -188.5 66.5t-71.5 179.5z" />
<glyph unicode="&#xab;" horiz-adv-x="915" d="M147 381q-16 25 0 47l259 315q8 10 14 14.5t22 4.5h52q29 0 10 -23l-264 -323q-6 -10 -5 -13.5t5 -9.5l264 -330q8 -10 4 -16t-14 -6h-52q-12 0 -20 3t-19 15zM446 428l259 315q8 10 14 14.5t22 4.5h52q29 0 10 -23l-264 -323q-8 -10 -6 -13.5t6 -9.5l264 -330 q8 -10 4 -16t-14 -6h-52q-10 0 -18 3t-18 15l-256 322q-18 25 -3 47z" />
<glyph unicode="&#xad;" horiz-adv-x="610" d="M121 461v55q0 14 14 14h338q12 0 12 -14v-55q0 -14 -12 -15h-338q-14 0 -14 15z" />
<glyph unicode="&#xae;" horiz-adv-x="823" d="M88 893v162q0 117 85 191.5t235 74.5q147 0 235 -72.5t88 -193.5v-162q0 -119 -81.5 -192.5t-241.5 -73.5q-150 0 -235 75.5t-85 190.5zM127 895q0 -100 72.5 -165.5t208.5 -65.5q135 0 208.5 63.5t73.5 167.5v158q0 104 -73.5 166.5t-208.5 62.5t-208 -64.5t-73 -164.5 v-158zM301 797v352q0 14 16 14h111q57 0 85 -28.5t28 -73.5q0 -33 -22.5 -61.5t-45.5 -38.5q-8 -4 -2 -19l74 -147q4 -10 -10 -11h-23q-8 0 -10 4.5t-6 8.5l-70 143q-6 10 -16 10h-52q-14 0 -14 -14v-139q0 -12 -10 -13h-19q-14 0 -14 13zM344 997q0 -10 3 -11t11 -1h68 q23 0 47.5 21.5t24.5 52.5q0 29 -18.5 47t-47.5 18h-74q-4 0 -9 -1t-5 -11v-115z" />
<glyph unicode="&#xb4;" horiz-adv-x="823" d="M361.5 1027q-3.5 5 3.5 17l139 254q6 10 14 14.5t23 -3.5l43 -27q14 -8 14 -18q0 -4 -2 -7.5t-4 -7.5l-178 -237q-12 -14 -27 -6l-18 12q-4 4 -7.5 9z" />
<glyph unicode="&#xb8;" horiz-adv-x="761" d="M289 -338l16 23q6 10 17 4q25 -16 53 -25.5t57 -9.5q59 0 89 23.5t30 64.5q0 27 -18.5 57.5t-83.5 30.5h-68q-37 0 -37 29q0 8 2 12l37 135q2 4 4 10.5t10 6.5h37q8 0 7 -6.5t-1 -10.5q-2 -4 -6 -20.5t-9 -34t-8 -31.5t-3 -16q0 -4 -1 -5t-1 -3q0 -12 14 -13h27 q72 0 116.5 -36.5t44.5 -102.5q0 -59 -48 -100t-130 -41q-41 0 -82 11t-65 30q-8 8 0 18z" />
<glyph unicode="&#xbb;" horiz-adv-x="915" d="M122 753.5q3 6.5 15 6.5h53q16 0 21.5 -3t13.5 -14l258 -317q18 -23 0 -47l-256 -322q-10 -12 -18 -15t-21 -3h-51q-10 0 -14 7t6 17l262 328l6 9t-6 14l-264 325q-8 8 -5 14.5zM422 753.5q2 6.5 14 6.5h53q14 0 20.5 -3t14.5 -14l258 -317q16 -23 0 -47l-256 -322 q-10 -12 -18 -15t-21 -3h-51q-8 0 -12 7t4 17l264 328q4 6 5 9t-5 14l-266 325q-6 8 -4 14.5z" />
<glyph unicode="&#x2c6;" horiz-adv-x="860" d="M190 1055l193 239q16 16 33 17h51q16 0 31 -17l192 -235q12 -16 0 -27l-16 -14q-8 -8 -14.5 -5t-12.5 7l-198 197q-10 10 -21 0l-192 -197q-12 -16 -27 -4l-16 14q-12 12 -3 25z" />
<glyph unicode="&#x2da;" horiz-adv-x="782" d="M272 1151q0 61 40 104t102 43q59 0 101 -42t42 -103q0 -59 -42 -102t-101 -43q-61 0 -101.5 42t-40.5 101zM328 1153q0 -39 24.5 -65.5t61.5 -26.5q35 0 61.5 26.5t26.5 65.5q0 37 -26.5 63.5t-61.5 26.5q-37 0 -61.5 -26.5t-24.5 -63.5z" />
<glyph unicode="&#x2dc;" horiz-adv-x="786" d="M146.5 1102q0.5 6 5.5 12q51 92 143 92q29 0 57.5 -10t55 -21.5t53 -21.5t51.5 -10q57 0 96 59q4 6 7 8t12 -2l35 -16q12 -5 6 -23q-29 -53 -72 -73.5t-80 -20.5q-33 0 -62.5 10.5t-57 21.5t-55.5 21.5t-54 10.5q-23 0 -45.5 -15.5t-34.5 -38.5q-10 -16 -25 -8l-28 15 q-8 4 -7.5 10z" />
<glyph unicode="&#x401;" horiz-adv-x="878" d="M125 16v1231q0 16 16 17h635q14 0 15 -17v-47q0 -14 -15 -14h-547q-8 0 -12 -1t-4 -11v-469q0 -12 14 -13h478q14 0 14 -16v-47q0 -14 -14 -15h-478q-14 0 -14 -14v-510q0 -12 14 -12h574q16 0 16 -15v-47q0 -16 -16 -16h-660q-16 0 -16 16zM233 1442q0 27 17.5 44 t42.5 17t42 -17t17 -44t-17.5 -44.5t-41.5 -17.5q-25 0 -42.5 17.5t-17.5 44.5zM549 1442q0 27 17.5 44t41.5 17q25 0 42.5 -17t17.5 -44t-17.5 -44.5t-42.5 -17.5t-42 17.5t-17 44.5z" />
<glyph unicode="&#x402;" horiz-adv-x="1228" d="M41 1200v47q0 16 16 17h885q14 0 14 -17v-47q0 -14 -14 -14h-489q-16 0 -17 -12v-439q0 -25 19 -6q25 25 59.5 46.5t74.5 36.5t81 23.5t80 8.5q92 0 158.5 -28t110.5 -76t65.5 -112.5t21.5 -138.5v-184q0 -53 -14.5 -114.5t-51 -112.5t-100 -85t-160.5 -34h-30 q-23 0 -23 14v45q0 16 16 17h29q70 0 118 24.5t75.5 64.5t40 88t12.5 95v166q0 61 -13.5 114.5t-46 92.5t-87 61.5t-136.5 22.5q-90 0 -163.5 -38t-120.5 -93q-14 -20 -15 -41v-578q0 -14 -14 -14h-60q-16 0 -16 14l2 1157q0 14 -14 15h-277q-16 0 -16 14z" />
<glyph unicode="&#x403;" horiz-adv-x="811" d="M141 14v1233q0 16 17 17h639q16 0 16 -15v-49q0 -14 -16 -14h-551q-8 0 -12.5 -1t-4.5 -11v-1160q0 -14 -14 -14h-57q-16 0 -17 14zM340 1343q-10 16 2 25l223 191q16 14 31 -3l39 -47q18 -18 -4 -30l-252 -156q-14 -8 -27 4z" />
<glyph unicode="&#x404;" horiz-adv-x="858" d="M119 322v626q0 70 25.5 130.5t73.5 104.5t114.5 69.5t146.5 25.5q92 0 173 -30.5t136 -98.5q12 -12 -2 -27l-36 -30q-12 -12 -29 6q-39 49 -106.5 75.5t-135.5 26.5q-123 0 -197.5 -72.5t-74.5 -181.5v-248q0 -8 10 -8h416q16 0 16 -16v-47q0 -14 -14 -15h-418 q-10 0 -10 -8v-278q0 -55 18.5 -102.5t53 -83.5t87 -56.5t119.5 -20.5q66 0 129.5 26t108.5 73q20 23 35 10l30 -27q16 -14 5 -26q-57 -63 -135 -97t-173 -34q-86 0 -153.5 24.5t-114.5 68.5t-72.5 105.5t-25.5 135.5z" />
<glyph unicode="&#x405;" horiz-adv-x="874" d="M57 130q2 5 11 13l26 27q12 12 29 0q49 -41 125.5 -74t148.5 -33q135 0 225.5 65t90.5 194q0 63 -20.5 108t-56.5 78t-85 57.5t-105 46.5q-59 23 -123.5 50.5t-117.5 65.5t-89 92t-36 132q0 80 29.5 140.5t78 102.5t110.5 62.5t130 20.5q82 0 165 -21.5t150 -72.5 q10 -6 8.5 -12.5t-6.5 -14.5l-24 -37q-6 -10 -14.5 -8t-14.5 6q-53 39 -122.5 59.5t-133.5 20.5q-47 0 -95 -13.5t-87 -42t-62.5 -75.5t-23.5 -115q0 -53 27.5 -92t69.5 -68.5t93.5 -52t98.5 -41.5q66 -27 128 -56.5t110 -72.5t77 -100t29 -139q0 -84 -31 -147.5t-85 -106.5 t-128 -64.5t-158 -21.5q-98 0 -189 33.5t-147 93.5q-8 8 -6 13z" />
<glyph unicode="&#x406;" horiz-adv-x="411" d="M160 14v1235q0 14 16 15h57q16 0 17 -15v-1235q0 -14 -17 -14h-57q-16 0 -16 14z" />
<glyph unicode="&#x407;" horiz-adv-x="411" d="M-14 1442q0 27 17 44t42 17t42 -17t17 -44t-17 -44.5t-42 -17.5t-42 17.5t-17 44.5zM160 14v1235q0 14 16 15h57q16 0 17 -15v-1235q0 -14 -17 -14h-57q-16 0 -16 14zM301 1442q0 27 17.5 44t41.5 17q25 0 42.5 -17t17.5 -44t-17.5 -44.5t-42.5 -17.5t-42 17.5t-17 44.5z " />
<glyph unicode="&#x408;" horiz-adv-x="464" d="M-55 -168q-6 18 14 27q86 31 136 64.5t77 78.5t35 104.5t8 137.5v1001q0 16 16 17h54q18 0 18 -17v-993q0 -106 -12 -181t-47 -129.5t-97.5 -93t-162.5 -73.5q-6 -2 -14.5 -1t-12.5 13z" />
<glyph unicode="&#x409;" horiz-adv-x="1550" d="M16 29q-4 14 15 22q63 27 105 75t67.5 149.5t36 269.5t10.5 434v270q0 14 16 15h559q14 0 17 -15v-536q0 -14 14 -15h318q80 0 142 -26.5t105 -73.5t65.5 -111.5t22.5 -138.5t-23.5 -137.5t-67.5 -110.5t-106.5 -73.5t-140.5 -26.5h-399q-18 0 -18 16v1158q0 12 -15 12 h-391q-14 0 -14 -12v-193q0 -188 -5 -330.5t-18.5 -248t-35 -178t-52 -122t-72.5 -78t-98 -47.5q-18 -6 -22 11zM842 90q0 -12 18 -12h311q57 0 104.5 22.5t80.5 59.5t50 85t17 101q0 119 -67.5 197t-184.5 78h-315q-14 0 -14 -17v-514z" />
<glyph unicode="&#x40a;" horiz-adv-x="1521" d="M125 14v1235q0 14 16 15h58q14 0 14 -15v-538q0 -12 14 -13h484q14 0 14 15v536q0 14 16 15h56q16 0 16 -15v-536q0 -14 14 -15h324q76 0 137.5 -26.5t104.5 -73.5t65.5 -111.5t22.5 -138.5t-23.5 -137.5t-67.5 -110.5t-106.5 -73.5t-140.5 -26.5h-400q-18 0 -18 18v588 q-4 14 -14 15h-484q-14 0 -14 -15v-592q0 -14 -14 -14h-58q-16 0 -16 14zM813 92q0 -8 3 -11t15 -3h312q57 0 104 22.5t80 59.5t50.5 85t17.5 101q0 119 -67.5 197t-184.5 78h-316q-14 0 -14 -19v-510z" />
<glyph unicode="&#x40b;" horiz-adv-x="1224" d="M41 1200v47q0 16 16 17h881q14 0 14 -17v-47q0 -14 -14 -14h-487q-16 0 -17 -12l-2 -439q0 -25 19 -6q25 25 59.5 46.5t74.5 36.5t81 23.5t79 8.5q92 0 159 -28t111 -76t65.5 -112.5t21.5 -138.5v-475q0 -14 -15 -14h-59q-14 0 -14 14v459q0 61 -13.5 114.5t-46 92.5 t-87 61.5t-136.5 22.5q-90 0 -163.5 -38t-121.5 -93q-14 -20 -14 -41v-578q0 -14 -14 -14h-56q-16 0 -16 14l2 1157q0 14 -14 15h-277q-16 0 -16 14z" />
<glyph unicode="&#x40c;" horiz-adv-x="962" d="M123 12v1233q0 18 16 19h62q12 0 12 -19v-592q0 -12 3 -17t15 9l533 604q12 12 24 13h62q12 0 13 -6.5t-3 -12.5l-438 -504q-10 -10 -6 -13t14 -3q25 6 54.5 8t54.5 2q88 -2 147 -30.5t96 -74.5t54.5 -104.5t21.5 -120.5l27 -389q0 -14 -15 -14h-53q-14 0 -14 14l-27 367 q-4 47 -13 96t-38 90t-82 68t-141 27q-84 0 -139.5 -26t-88 -67t-47 -91t-14.5 -99v-365q0 -14 -12 -14h-62q-16 0 -16 12zM367 1350q-10 16 2 24l223 191q16 14 31 -2l39 -47q18 -18 -5 -31l-251 -156q-14 -8 -27 4z" />
<glyph unicode="&#x40e;" horiz-adv-x="839" d="M18 1243q-8 20 13 21h57q20 0 25 -17l313 -833q4 -4 6 -4l4 4l283 833q6 16 26 17h54q12 0 14 -7.5t-2 -15.5l-319 -913l-56 -158q-20 -53 -39.5 -89t-44 -57.5t-56.5 -30.5t-77 -9h-49q-16 0 -16 16v45q0 20 14 21h49q47 0 74.5 24.5t48.5 71.5l25 63q14 37 12 61.5 t-17 61.5zM197 1513q0 14 12 15h27q10 0 12 -6t6 -17q12 -68 60 -104.5t108 -36.5q57 0 107.5 38t62.5 103q4 10 6 16.5t12 6.5h25q14 0 14 -15q0 -49 -19.5 -91t-52 -70.5t-73.5 -45t-84 -16.5t-83 16.5t-70.5 45t-50 70.5t-19.5 91z" />
<glyph unicode="&#x40f;" horiz-adv-x="1044" d="M133 14v1235q0 14 17 15h57q14 0 14 -15v-1157q0 -14 15 -14h575q12 0 12 14v1157q0 14 17 15h57q14 0 14 -15v-1235q0 -14 -14 -14h-311q-18 0 -19 -14v-269q-2 -16 -6 -20t-12 -4h-55q-16 0 -17 24v269q0 14 -18 14h-309q-16 0 -17 14z" />
<glyph unicode="&#x410;" d="M29 3q-4 3 0 15l358 1231q4 14 16 15h97q16 0 18 -15l363 -1226q8 -23 -11 -23h-61q-16 0 -21 12l-88 299q-2 8 -12 8h-473q-8 0 -10 -6q-2 -10 -15.5 -55t-28 -95t-27.5 -95t-15 -56q-4 -12 -19 -12h-57q-10 0 -14 3zM231 410q-4 -14 7 -15h428q12 0 10 13l-144 489 l-75 270q-2 6 -5 6.5t-6 -6.5l-75 -272z" />
<glyph unicode="&#x411;" horiz-adv-x="909" d="M113 18v1227q0 18 22 19h627q14 0 14 -15v-49q0 -14 -14 -14h-549q-12 0 -12 -10v-463q0 -14 16 -15h315q82 0 144.5 -26.5t105.5 -73.5t64.5 -111.5t21.5 -138.5t-23.5 -137.5t-66.5 -110.5t-105.5 -73.5t-140.5 -26.5h-399q-20 0 -20 18zM201 92q0 -14 18 -14h313 q57 0 103.5 22.5t79.5 59.5t50 85t17 101q0 119 -66.5 197t-183.5 78h-317q-14 0 -14 -19v-510z" />
<glyph unicode="&#x412;" horiz-adv-x="966" d="M125 16v1231q0 16 14 17h377q147 0 237.5 -79t90.5 -233q0 -76 -40 -152.5t-128 -113.5q-4 -2 -4 -5t4 -5q51 -18 90 -51t63.5 -76t37 -93.5t12.5 -99.5q0 -78 -24 -143.5t-68 -112.5t-106.5 -73.5t-141.5 -26.5h-400q-14 0 -14 16zM213 90q0 -10 14 -10h310 q59 0 106 21.5t80 58.5t50.5 86t17.5 106q0 59 -18.5 111.5t-54.5 91.5t-86 61.5t-114 22.5h-293q-12 0 -12 -14v-535zM213 731q0 -8 1 -11t11 -3h293q109 0 173.5 64.5t64.5 170.5q0 104 -61.5 169t-178.5 65h-291q-6 0 -9 -1t-3 -11v-443z" />
<glyph unicode="&#x413;" horiz-adv-x="811" d="M141 14v1233q0 16 17 17h639q16 0 16 -15v-49q0 -14 -16 -14h-551q-8 0 -12.5 -1t-4.5 -11v-1160q0 -14 -14 -14h-57q-16 0 -17 14z" />
<glyph unicode="&#x414;" horiz-adv-x="1085" d="M12 47q0 16 5.5 21.5t15.5 9.5q4 0 25.5 2t25.5 4q66 41 97.5 126t41.5 204q2 12 6 68.5t9.5 136t10.5 173t10 181.5t8 159.5t5 110.5q2 18 23 19h606q18 0 19 -19v-1149q0 -14 14 -16h57q12 -2 15.5 -7t3.5 -16v-309q0 -16 -4.5 -19t-12.5 -3h-45q-16 0 -18 22v240 q0 14 -17 14h-802q-16 0 -19 -16v-238q0 -16 -3 -19t-13 -3h-45q-16 0 -19 20v303zM203 92q-10 -14 10 -14h604q14 0 14 14v1077q0 14 -16 15h-450q-12 0 -13 -15q0 -16 -3 -74.5t-8 -139.5t-10 -171t-10.5 -169.5t-9.5 -137t-6 -71.5q-6 -92 -29.5 -173t-72.5 -141z" />
<glyph unicode="&#x415;" horiz-adv-x="878" d="M125 16v1231q0 16 16 17h635q14 0 15 -17v-47q0 -14 -15 -14h-547q-8 0 -12 -1t-4 -11v-469q0 -12 14 -13h478q14 0 14 -16v-47q0 -14 -14 -15h-478q-14 0 -14 -14v-510q0 -12 14 -12h574q16 0 16 -15v-47q0 -16 -16 -16h-660q-16 0 -16 16z" />
<glyph unicode="&#x416;" horiz-adv-x="1425" d="M27 10v4l30 398q6 63 26.5 120.5t60.5 101.5t99.5 69.5t143.5 25.5q23 0 52.5 -3t45.5 -7q10 -4 12.5 4t-1.5 12l-441 508q-4 8 -4 13.5t15 5.5h61q12 0 25 -13l503 -569q6 -6 12.5 -9t6.5 11v563q0 18 14 19h60q16 0 16 -19v-569q0 -8 5 -10t11 4l498 579q12 12 25 13 h61q14 0 14 -5.5t-4 -13.5l-432 -508q-20 -23 10 -16q20 4 48 7t51 3q86 0 144 -25.5t95 -69.5t55.5 -101.5t22.5 -118.5l31 -400v-4q0 -10 -15 -10h-53q-14 0 -14 14l-31 361q-4 49 -14 99t-36 91t-74 67.5t-126 26.5q-82 0 -135 -21.5t-84 -58t-42 -85t-11 -101.5v-381 q0 -12 -16 -12h-60q-14 0 -14 14v385q0 55 -11.5 102.5t-41 83.5t-82 55t-136.5 19q-78 0 -129 -26.5t-81.5 -66.5t-44 -90t-15.5 -95l-24 -367q0 -14 -15 -14h-53q-14 0 -14 10z" />
<glyph unicode="&#x417;" horiz-adv-x="909" d="M45 136q0 5 12 16l37 24q10 6 15.5 6t15.5 -14q39 -51 114.5 -78t147.5 -27q66 0 124 20.5t102 60.5t70 97.5t26 131.5q0 68 -22.5 119t-61.5 85.5t-88.5 52t-104.5 17.5h-170q-14 0 -14 15v51q0 14 14 14h180q47 0 90 16.5t77 47t53.5 72.5t19.5 95q0 100 -73.5 171 t-202.5 71q-68 0 -139.5 -24.5t-112.5 -75.5q-14 -16 -31 -6l-37 24q-14 12 -2 29q47 66 138.5 98.5t187.5 32.5q80 0 145.5 -22.5t113.5 -63.5t74.5 -99.5t26.5 -127.5q0 -51 -17.5 -97.5t-44 -82t-58.5 -60.5t-62 -33q-6 -2 -6 -6t6 -6q43 -10 82 -38t66.5 -67.5t44 -90 t16.5 -105.5q0 -92 -31 -166t-86 -124t-131 -76.5t-164 -26.5q-49 0 -98 8t-94.5 24.5t-83 42t-60.5 60.5q-4 10 -4 15z" />
<glyph unicode="&#x418;" horiz-adv-x="1017" d="M119 14v1235q0 14 14 15h55q16 0 17 -17v-1069q0 -4 2 -4t6 6l588 1065q4 8 10 13.5t20 5.5h56q14 0 14 -15v-1233q0 -16 -14 -16h-58q-14 0 -14 16v1074q0 12 -8 0q-12 -25 -57 -107t-106.5 -193.5t-130.5 -236.5t-130 -236.5t-106.5 -193.5t-57.5 -107q-6 -10 -11 -13 t-20 -3h-55q-14 0 -14 14z" />
<glyph unicode="&#x419;" horiz-adv-x="1017" d="M119 14v1235q0 14 14 15h55q16 0 17 -17v-1069q0 -4 2 -4t6 6l588 1065q4 8 10 13.5t20 5.5h56q14 0 14 -15v-1233q0 -16 -14 -16h-58q-14 0 -14 16v1074q0 12 -8 0q-12 -25 -57 -107t-106.5 -193.5t-130.5 -236.5t-130 -236.5t-106.5 -193.5t-57.5 -107q-6 -10 -11 -13 t-20 -3h-55q-14 0 -14 14zM276 1513q0 14 13 15h26q10 0 12.5 -6t6.5 -17q12 -68 60 -104.5t108 -36.5q57 0 107 38t63 103q4 10 6 16.5t12 6.5h25q14 0 14 -15q0 -49 -19.5 -91t-52 -70.5t-73.5 -45t-84 -16.5t-83 16.5t-71 45t-50.5 70.5t-19.5 91z" />
<glyph unicode="&#x41a;" horiz-adv-x="962" d="M123 12v1233q0 18 16 19h62q12 0 12 -19v-592q0 -12 3 -17t15 9l533 604q12 12 24 13h62q12 0 13 -6.5t-3 -12.5l-438 -504q-10 -10 -6 -13t14 -3q25 6 54.5 8t54.5 2q88 -2 147 -30.5t96 -74.5t54.5 -104.5t21.5 -120.5l27 -389q0 -14 -15 -14h-53q-14 0 -14 14l-27 367 q-4 47 -13 96t-38 90t-82 68t-141 27q-84 0 -139.5 -26t-88 -67t-47 -91t-14.5 -99v-365q0 -14 -12 -14h-62q-16 0 -16 12z" />
<glyph unicode="&#x41b;" horiz-adv-x="1013" d="M16 29q-6 14 15 22q63 27 105 75t67.5 149.5t36 269.5t10.5 434v270q0 14 16 15h611q14 0 14 -15v-1235q0 -14 -14 -14h-58q-16 0 -16 12v1159q0 14 -12 15h-443q-14 0 -14 -12v-193q0 -188 -5 -330.5t-18.5 -248t-35 -178t-52 -122t-72.5 -78t-98 -47.5q-14 -4 -22 11z " />
<glyph unicode="&#x41c;" horiz-adv-x="1234" d="M106 14v1223q0 10 5.5 18.5t19.5 8.5h47q23 0 29 -19l291 -772q29 -76 55.5 -150.5t54.5 -150.5q6 -14 15 0l110 303q74 195 146.5 386.5t144.5 385.5q4 8 10 12.5t19 4.5h47q16 0 20 -8.5t4 -18.5v-1223q0 -14 -14 -14h-55q-16 0 -17 14v1014q0 10 -8 2l-180 -477 q-47 -123 -93 -243t-93 -242q-10 -18 -27 -19h-45q-10 0 -16.5 3t-10.5 14q-49 131 -98 261t-100 261l-166 440q-6 6 -8 0v-1014q0 -14 -15 -14h-55q-16 0 -17 14z" />
<glyph unicode="&#x41d;" horiz-adv-x="1021" d="M125 14v1235q0 14 16 15h58q14 0 14 -15v-547q0 -12 14 -12h570q10 0 11 3t1 9v547q0 14 16 15h58q16 0 16 -15v-1235q0 -14 -14 -14h-60q-16 0 -16 14v584q0 14 -12 14h-570q-14 0 -14 -14v-584q0 -14 -14 -14h-58q-16 0 -16 14z" />
<glyph unicode="&#x41e;" horiz-adv-x="974" d="M119 338v600q0 74 26.5 135.5t73.5 107.5t114.5 71.5t151.5 25.5t153 -24.5t117 -69.5t74.5 -107.5t26.5 -138.5v-610q0 -76 -24.5 -138.5t-72.5 -107.5t-117 -70.5t-155 -25.5q-90 0 -159.5 26.5t-115.5 74.5t-69.5 112.5t-23.5 138.5zM207 342q0 -55 16.5 -105.5 t50 -88t87 -61.5t126.5 -24q135 0 208 74t73 195v602q0 53 -17.5 101t-52 84t-87 57.5t-124.5 21.5q-68 0 -121 -21.5t-87.5 -57.5t-53 -84t-18.5 -101v-592z" />
<glyph unicode="&#x41f;" horiz-adv-x="1028" d="M133 14v1235q0 14 17 15h747q14 0 14 -15v-1235q0 -14 -14 -14h-57q-16 0 -17 14v1160q0 12 -12 12h-575q-14 0 -15 -12v-1160q0 -14 -14 -14h-57q-16 0 -17 14z" />
<glyph unicode="&#x420;" d="M133 14v1233q0 16 19 17h385q78 0 139 -26t104 -70t66.5 -105t23.5 -135t-23.5 -134.5t-67.5 -105.5t-105.5 -69.5t-134.5 -24.5h-303q-14 0 -15 -16v-564q0 -14 -16 -14h-55q-16 0 -17 14zM219 686q0 -16 17 -16h301q121 0 184 71.5t63 188.5q0 51 -16 98t-48 82 t-78 55.5t-105 20.5h-299q-18 0 -19 -12v-488z" />
<glyph unicode="&#x421;" horiz-adv-x="845" d="M119 322v626q0 70 25.5 130.5t73.5 104.5t114.5 69.5t146.5 25.5q92 0 173 -30.5t136 -98.5q12 -12 -2 -27l-36 -30q-12 -12 -29 6q-39 49 -106.5 75.5t-135.5 26.5q-123 0 -197.5 -72.5t-74.5 -181.5v-620q0 -55 18.5 -102.5t53 -83.5t87 -56.5t119.5 -20.5 q66 0 129.5 26t108.5 73q20 23 35 10l30 -27q16 -14 5 -26q-57 -63 -135 -97t-173 -34q-86 0 -153.5 24.5t-114.5 68.5t-72.5 105.5t-25.5 135.5z" />
<glyph unicode="&#x422;" horiz-adv-x="819" d="M25 1200v47q0 16 14 17h741q14 0 15 -15v-49q0 -14 -15 -14h-313q-8 0 -12 -1t-4 -11v-1160q0 -14 -15 -14h-55q-18 0 -19 14v1160q0 12 -14 12h-309q-14 0 -14 14z" />
<glyph unicode="&#x423;" horiz-adv-x="839" d="M18 1243q-8 20 13 21h57q20 0 25 -17l313 -833q4 -4 6 -4l4 4l283 833q6 16 26 17h54q12 0 14 -7.5t-2 -15.5l-319 -913l-56 -158q-20 -53 -39.5 -89t-44 -57.5t-56.5 -30.5t-77 -9h-49q-16 0 -16 16v45q0 20 14 21h49q47 0 74.5 24.5t48.5 71.5l25 63q14 37 12 61.5 t-17 61.5z" />
<glyph unicode="&#x424;" horiz-adv-x="1093" d="M115 457v389q0 74 28.5 136t79.5 108.5t122 74t157 31.5q18 0 18 14v39q0 14 15 15h57q14 0 14 -15v-37q0 -16 19 -16q88 -4 159.5 -30.5t122.5 -72.5t79 -107.5t28 -135.5v-391q0 -72 -32 -133.5t-86 -106.5t-125 -72.5t-146 -29.5q-18 -2 -19 -19v-84q0 -14 -12 -14 h-59q-14 0 -15 14v84q0 6 -3 12.5t-13 6.5q-82 4 -153.5 31.5t-124 72.5t-82 105.5t-29.5 130.5zM199 455q0 -49 22.5 -95.5t62.5 -81t97 -58t125 -25.5q14 -2 14 12v897q0 16 -16 16q-145 -6 -225 -84t-80 -184v-397zM606 209q0 -14 17 -14q61 2 117.5 22.5t98.5 55 t66.5 81.5t24.5 103v399q0 109 -78 184.5t-227 79.5q-18 0 -19 -16v-895z" />
<glyph unicode="&#x425;" horiz-adv-x="845" d="M20.5 6q-2.5 6 2.5 14l342 621q10 16 7 23.5t-7 11.5l-312 569q-10 18 10 19h64q20 0 25 -11l266 -497q4 -4 8 -4t6 4q6 10 26.5 49t48.5 90t60.5 109.5t60 109.5t48 89t26.5 50q4 10 23 11h59q20 0 13 -19q-8 -16 -33 -59t-56.5 -101.5t-68.5 -124t-68.5 -124 t-55 -102.5t-32.5 -58q-8 -12 -6 -20.5t6 -12.5q8 -16 34 -63.5t61.5 -112t76.5 -136t77 -136t62.5 -112.5t34.5 -63q8 -20 -10 -20h-61h-14.5t-10.5 10l-301 551q-6 14 -14 2l-301 -553q-6 -10 -11.5 -10h-13.5h-59q-10 0 -12.5 6z" />
<glyph unicode="&#x426;" horiz-adv-x="1054" d="M133 14v1235q0 14 17 15h57q14 0 14 -15v-1157q0 -14 15 -14h575q12 0 12 14v1157q0 14 17 15h57q14 0 14 -15v-1155q0 -16 15 -16h63q12 0 15.5 -8.5t3.5 -18.5v-305q0 -23 -19 -22h-43q-10 0 -14 3t-4 19v240q0 14 -19 14h-759q-16 0 -17 14z" />
<glyph unicode="&#x427;" horiz-adv-x="991" d="M98 877v374q0 14 15 15h59q14 0 14 -15v-358q0 -61 16.5 -114.5t52.5 -92.5t90 -61.5t132 -22.5q90 0 166 38t123 93q14 20 14 41v477q0 14 15 15h55q16 0 16 -15v-1237q0 -14 -16 -14h-55q-14 0 -15 14v617q0 25 -18 6q-25 -25 -60.5 -46.5t-75.5 -36.5t-82 -23.5 t-81 -8.5q-92 0 -159.5 28t-114 76t-69 112.5t-22.5 138.5z" />
<glyph unicode="&#x428;" horiz-adv-x="1529" d="M133 14v1235q0 14 17 15h57q14 0 14 -15v-1157q0 -14 15 -14h466q10 0 11 14v1157q0 14 16 15h57q14 0 15 -15v-1157q0 -14 10 -14h483q14 0 15 14v1157q0 14 16 15h57q14 0 15 -15v-1235q0 -14 -15 -14h-1232q-16 0 -17 14z" />
<glyph unicode="&#x429;" horiz-adv-x="1542" d="M133 14v1235q0 14 17 15h57q14 0 14 -15v-1157q0 -14 15 -14h466q10 0 11 14v1157q0 14 16 15h57q14 0 15 -15v-1157q0 -14 10 -14h483q14 0 15 14v1157q0 14 16 15h57q14 0 15 -15l2 -1155q0 -16 14 -16h62q14 0 16 -8.5t2 -18.5v-305q0 -23 -16 -22h-45q-18 0 -19 22 v240q0 14 -18 14h-1245q-16 0 -17 14z" />
<glyph unicode="&#x42a;" horiz-adv-x="1230" d="M25 1200v47q0 16 14 17h467q14 0 14 -15v-536q0 -14 17 -15h317q82 0 144.5 -26.5t104.5 -73.5t63.5 -111.5t21.5 -138.5t-23.5 -137.5t-66.5 -110.5t-105.5 -73.5t-140.5 -26.5h-399q-18 0 -19 18v1156q0 12 -12 12h-383q-14 0 -14 14zM520 92q0 -14 19 -14h313 q57 0 104.5 22.5t80 59.5t50 85t17.5 101q0 119 -67.5 197t-184.5 78h-315q-16 0 -17 -19v-510z" />
<glyph unicode="&#x42b;" horiz-adv-x="1241" d="M127 18v1231q0 14 14 15h58q14 0 14 -15v-536q0 -14 14 -15h326q78 0 139.5 -26.5t103.5 -73.5t63.5 -111.5t21.5 -138.5t-23.5 -137.5t-66.5 -110.5t-105.5 -73.5t-140.5 -26.5h-400q-18 0 -18 18zM213 92q0 -14 18 -14h314q57 0 103 22.5t79 59.5t50.5 85t17.5 101 q0 119 -66.5 197t-183.5 78h-318q-14 0 -14 -19v-510zM1030 14v1235q0 14 17 15h57q14 0 14 -15v-1235q0 -14 -14 -14h-57q-16 0 -17 14z" />
<glyph unicode="&#x42c;" horiz-adv-x="921" d="M125 18v1231q0 14 16 15h58q14 0 14 -15v-536q0 -14 14 -15h322q82 0 143.5 -26.5t103.5 -73.5t63.5 -111.5t21.5 -138.5t-23.5 -137.5t-66.5 -110.5t-105.5 -73.5t-140.5 -26.5h-400q-20 0 -20 18zM213 92q0 -14 18 -14h314q57 0 103 22.5t79 59.5t50.5 85t17.5 101 q0 119 -66.5 197t-183.5 78h-318q-14 0 -14 -19v-510z" />
<glyph unicode="&#x42d;" horiz-adv-x="862" d="M70 119q-12 12 4 26l30 27q14 12 35 -10q45 -47 108.5 -73t129.5 -26q68 0 120 20.5t86.5 56.5t53 83t18.5 103v292q0 8 -10 9h-418q-14 0 -14 14v47q0 16 16 17h416q10 0 10 8v233q0 53 -16 100.5t-50 81t-83 53t-117 19.5t-138.5 -26.5t-109.5 -75.5q-16 -18 -28 -6 l-37 30q-14 14 -2 27q55 68 139 98.5t176 30.5t158.5 -25.5t109.5 -69.5t64.5 -104.5t21.5 -130.5v-626q0 -74 -25.5 -135.5t-72.5 -105.5t-114.5 -68.5t-153.5 -24.5q-94 0 -172 33.5t-135 97.5z" />
<glyph unicode="&#x42e;" horiz-adv-x="1302" d="M125 14v1235q0 14 16 15h58q14 0 14 -15v-547q0 -12 14 -12h230q14 0 14 10v258q0 74 26.5 132.5t73.5 100.5t112 64.5t140 22.5q76 0 141.5 -21.5t112.5 -62.5t75 -100.5t28 -135.5v-651q0 -152 -97.5 -236.5t-257.5 -84.5q-78 0 -143.5 22.5t-112.5 63.5t-72.5 101 t-25.5 134v291q0 14 -14 14h-230q-14 0 -14 -14v-584q0 -14 -14 -14h-58q-16 0 -16 14zM559 311q0 -55 19.5 -100t55.5 -78t84 -51.5t107 -18.5q55 0 103.5 15.5t85.5 46.5t58.5 78t21.5 108v643q0 106 -75 176t-194 70q-117 0 -191.5 -68.5t-74.5 -177.5v-643z" />
<glyph unicode="&#x42f;" horiz-adv-x="968" d="M59 20l248 527q6 10 2 15t-8 9q-76 53 -131 144.5t-55 206.5q0 154 92 247t258 93h360q23 0 23 -19v-1229q0 -14 -17 -14h-57q-14 0 -14 14v525q0 16 -17 16h-311q-16 0 -22.5 -6t-12.5 -19l-239 -510q-4 -12 -9.5 -16t-21.5 -4h-53q-8 0 -14.5 4t-0.5 16zM203 911 q0 -63 35.5 -139t107.5 -129q4 -4 15.5 -8t27.5 -4h356q14 0 15 16v522q0 16 -21 17h-252q-82 0 -137 -25.5t-88 -65.5t-46 -88.5t-13 -95.5z" />
<glyph unicode="&#x430;" horiz-adv-x="782" d="M57 283q0 63 20.5 118.5t59.5 96.5t97.5 65.5t134.5 24.5q63 0 121.5 -22.5t93.5 -63.5q8 -8 13 -5t5 13v94q0 43 -9 83t-33.5 70.5t-69 50t-111.5 19.5q-25 0 -53.5 -3t-58 -9t-57.5 -14t-48 -17q-14 -10 -21 7l-18 43q-2 12 10 18q51 25 121 38t131 13q164 0 233.5 -79 t69.5 -226v-584q0 -14 -14 -14h-53q-12 0 -13 12v80q0 14 -6 14t-12 -8q-80 -109 -238 -108q-141 0 -218 81t-77 212zM137 287q0 -96 53.5 -162t174.5 -66q104 0 168.5 68t64.5 164q0 94 -60.5 161.5t-166.5 67.5q-55 0 -99.5 -18.5t-74 -50t-45 -74.5t-15.5 -90z" />
<glyph unicode="&#x431;" horiz-adv-x="862" d="M100 317v385q0 92 18.5 180.5t64.5 163t121 131t190 87.5q59 14 103 26.5t91 28.5q23 6 25 -10l14 -45q2 -14 -18 -21q-45 -16 -99.5 -28.5t-109.5 -28.5q-84 -25 -143.5 -70t-96.5 -101.5t-53.5 -122t-18.5 -130.5q0 -12 9 -4q41 53 107.5 82.5t148.5 29.5 q150 0 230.5 -89t80.5 -234v-232q0 -150 -86 -237.5t-248 -87.5q-160 0 -245 85t-85 242zM184 319q0 -121 63.5 -189.5t180.5 -68.5t184.5 70t67.5 186v228q0 109 -62.5 180.5t-181.5 71.5q-113 0 -182.5 -72t-69.5 -180v-226z" />
<glyph unicode="&#x432;" horiz-adv-x="849" d="M111 18v854q0 18 16 19h350q111 0 184.5 -59.5t73.5 -169.5q0 -51 -28.5 -104.5t-92.5 -82.5q-14 -6 0 -10q74 -29 109 -90t35 -129q0 -113 -73 -179.5t-202 -66.5h-354q-18 0 -18 18zM193 86q0 -12 10 -12h274q100 0 148.5 49t48.5 123q0 78 -55.5 132t-147.5 54h-270 q-8 0 -8 -10v-336zM193 512q0 -10 8 -10h266q80 0 130 42.5t50 114.5q0 68 -48 113t-136 45h-260q-10 0 -10 -16v-289z" />
<glyph unicode="&#x433;" horiz-adv-x="669" d="M94 16v854q0 18 21 19h522q18 0 18 -17v-36q0 -18 -18 -19h-438q-16 0 -17.5 -7t-1.5 -19v-773q0 -18 -18 -18h-49q-18 0 -19 16z" />
<glyph unicode="&#x434;" horiz-adv-x="849" d="M10 43q0 10 3 15t16 10l34 10q55 41 78 105.5t33 148.5q8 70 13.5 130t10.5 121.5t8 129t7 153.5q0 20 23 21h493q18 0 19 -17v-782q0 -16 18 -16h27q10 0 12 -8.5t2 -16.5v-242q0 -25 -16 -24h-41q-16 0 -17 24v181q0 14 -16 14h-617q-8 0 -12 -2t-4 -12v-181 q0 -25 -16 -24h-41q-16 0 -17 24v238zM176 84q-10 -12 8 -12h465q16 0 17 18v703q0 14 -5.5 17t-15.5 3h-340q-12 0 -15 -4t-3 -12q-6 -135 -14.5 -260t-22.5 -232q-10 -70 -24.5 -121t-49.5 -100z" />
<glyph unicode="&#x435;" horiz-adv-x="835" d="M98 311v258q0 78 26 139.5t70 104.5t104 65.5t130 22.5q72 0 133.5 -21.5t105.5 -63.5t69.5 -105.5t25.5 -149.5v-88q0 -18 -9.5 -26.5t-19.5 -8.5h-526q-25 0 -25 -26v-99q0 -106 67.5 -178t182.5 -72q68 0 120 27t87 74q12 16 27 6l39 -25q12 -10 8 -22 q-43 -66 -117 -99.5t-166 -33.5q-154 0 -243 87t-89 234zM182 532q0 -23 25 -22h450q18 0 19 22v48q0 109 -67.5 178t-180.5 69q-53 0 -97 -18t-78 -52t-52.5 -79t-18.5 -96v-50z" />
<glyph unicode="&#x436;" horiz-adv-x="1366" d="M80 16l12 234q4 61 23.5 115.5t56.5 94.5t91 63.5t126 23.5h14.5t14.5 -2q12 0 12 6t-8 14q-78 78 -158 152t-158 151q0 4 -2 6.5t-2 6.5q0 8 13 8h73q16 0 27 -10q102 -104 199.5 -195.5t199.5 -196.5q6 -6 14.5 -8t8.5 15v385q0 12 12 12h62q10 0 14 -12v-390 q0 -12 7 -12t13 6l402 396q8 10 24 10h74q10 0 10 -8t-4 -13l-313 -303q-8 -8 -8 -14t12 -6q6 2 15.5 2h17.5q78 -2 134 -27.5t92 -68.5t52.5 -99.5t16.5 -118.5l10 -217q0 -16 -16 -16h-54q-16 0 -16 14l-10 215q0 49 -14.5 94.5t-43 79t-72.5 53t-106 19.5 q-49 0 -90 -16.5t-70.5 -44t-47 -65.5t-17.5 -81v-256q0 -12 -14 -12h-58q-14 0 -14 12v254q0 88 -65.5 148.5t-165.5 60.5q-111 0 -170.5 -70.5t-59.5 -171.5l-10 -219q0 -14 -16 -14h-52q-18 0 -18 16z" />
<glyph unicode="&#x437;" horiz-adv-x="741" d="M33 133q0 6 12 14l41 27q14 8 23 -6q33 -43 82 -74t122 -31q37 0 80 8.5t78 31t58.5 61.5t23.5 100q0 41 -14.5 73t-38 53.5t-52 32.5t-59.5 11h-143q-14 0 -15 15v43q0 14 15 14h135q27 0 55.5 7t53 25.5t40 47t15.5 71.5q0 47 -18.5 79t-49.5 51.5t-68.5 27.5t-76.5 8 q-59 0 -114.5 -26.5t-92.5 -73.5q-14 -14 -27 -6l-41 31q-14 8 -4 24q49 57 121 93t164 36q141 0 220 -64.5t79 -181.5q0 -51 -29.5 -104t-89.5 -72q-18 -8 0 -16q39 -18 63.5 -45t38 -55.5t18.5 -55t5 -45.5q0 -127 -86 -201.5t-238 -74.5q-188 0 -282 135q-4 6 -4 12z" />
<glyph unicode="&#x438;" horiz-adv-x="835" d="M104 16v856q0 16 17 17h51q16 0 16 -17v-722q0 -8 5 -9q2 0 6 4l102 166l352 561q6 10 11.5 13.5t21.5 3.5h47q18 0 19 -17v-856q0 -16 -19 -16h-49q-18 0 -18 16v725q0 4 -1 5.5t-1 3.5v2q-4 0 -9 -9l-135 -221l-321 -508q-6 -10 -11.5 -12t-15.5 -2h-51q-16 0 -17 16z " />
<glyph unicode="&#x439;" horiz-adv-x="854" d="M104 16v856q0 16 17 17h51q16 0 16 -17v-722q0 -8 5 -9q2 0 6 4l102 166l352 561q6 10 11.5 13.5t21.5 3.5h47q18 0 19 -17v-856q0 -16 -19 -16h-49q-18 0 -18 16v725q0 4 -1 5.5t-1 3.5v2q-4 0 -9 -9l-135 -221l-321 -508q-6 -10 -11.5 -12t-15.5 -2h-51q-16 0 -17 16z M207 1253q0 12 12 13h27q10 0 12 -5.5t6 -15.5q14 -68 61.5 -104.5t106.5 -36.5q57 0 107.5 37t62.5 104q4 10 6 15.5t13 5.5h24q14 0 14 -13q0 -49 -19 -91t-52 -70.5t-74 -45t-84 -16.5t-83 16.5t-70.5 45t-50 70.5t-19.5 91z" />
<glyph unicode="&#x43a;" horiz-adv-x="831" d="M106 12v865q0 14 15 14h59q12 0 13 -12v-404q0 -16 7 -17t15 5l420 418q12 10 29 10h71q8 0 11.5 -5t-1.5 -9l-319 -322q-10 -10 -6 -14t10 -2q8 2 15.5 2h13.5q145 0 219 -85t82 -233l10 -205q0 -18 -16 -18h-54q-16 0 -16 16l-10 207q-2 49 -15.5 94t-42 79t-72.5 53.5 t-108 19.5q-51 0 -96 -18.5t-78 -51t-51 -74.5t-18 -87v-224q0 -14 -13 -14h-57q-16 0 -17 12z" />
<glyph unicode="&#x43b;" horiz-adv-x="833" d="M8 23q-6 12 15 22q35 18 65.5 38.5t54 74t37 154t13.5 276.5v286q0 16 18 17h500q14 0 14 -17v-860q0 -16 -14 -16h-56q-16 0 -16 16v789q0 14 -14 14h-336q-14 0 -15 -14v-213q0 -193 -18 -307.5t-49 -178t-73 -89t-89 -42.5q-14 -2 -20 11z" />
<glyph unicode="&#x43c;" horiz-adv-x="1001" d="M104 16v854q0 18 19 19h47q16 0 20.5 -4t8.5 -13l233 -505l88 -199q8 -8 10 0l91 201l231 501q6 12 12 15.5t17 3.5h49q18 0 18 -19v-852q0 -18 -18 -18h-45q-23 0 -23 16v666q0 12 -3 10t-7 -10l-78 -168l-205 -432q-4 -8 -8 -14.5t-16 -6.5h-41q-10 0 -15.5 5.5 t-11.5 15.5l-205 432l-71 158q-4 8 -8.5 11t-4.5 -11v-654q0 -18 -18 -18h-45q-20 0 -21 16z" />
<glyph unicode="&#x43d;" horiz-adv-x="858" d="M106 16v858q0 16 19 17h49q18 0 19 -17v-360q0 -20 18 -20h440q18 0 19 20v360q0 16 18 17h47q20 0 21 -17v-856q0 -18 -21 -18h-45q-20 0 -20 16v390q0 18 -19 18h-440q-18 0 -18 -18v-388q0 -18 -21 -18h-45q-20 0 -21 16z" />
<glyph unicode="&#x43e;" horiz-adv-x="862" d="M100 315v263q0 145 89.5 234t244.5 89q154 0 242 -87t88 -239v-256q0 -158 -87 -243.5t-243 -85.5q-162 0 -248 88t-86 237zM184 317q0 -117 63.5 -186.5t186.5 -69.5t184.5 70t61.5 188v254q0 111 -61.5 182.5t-184.5 71.5q-111 0 -180.5 -70.5t-69.5 -181.5v-258z" />
<glyph unicode="&#x43f;" horiz-adv-x="874" d="M104 12v865q0 14 15 14h637q14 0 14 -14v-863q0 -14 -14 -14h-58q-14 0 -14 12v785q0 18 -16 18h-463q-14 0 -15 -16v-785q0 -14 -14 -14h-57q-14 0 -15 12z" />
<glyph unicode="&#x440;" horiz-adv-x="870" d="M113 -356v1233q0 14 14 14h53q14 0 15 -14v-76q0 -23 20 -2q37 47 99.5 74.5t138.5 27.5q154 0 238.5 -89t84.5 -230v-256q0 -61 -17.5 -123t-55 -109t-98 -76.5t-146.5 -29.5q-80 0 -138.5 27.5t-101.5 76.5q-20 20 -20 -8v-440q0 -12 -15 -13h-57q-14 0 -14 13z M197 319q0 -53 18 -99t51 -82t78 -56.5t100 -20.5q66 0 113 20.5t77 55.5t44 83t14 102v253q0 113 -60.5 182.5t-187.5 69.5q-111 0 -179 -69.5t-68 -175.5v-263z" />
<glyph unicode="&#x441;" horiz-adv-x="759" d="M92 313v262q0 74 25.5 134.5t70.5 102.5t106.5 65.5t133.5 23.5q176 0 274 -129q10 -16 -4 -24l-36 -31q-12 -8 -27 6q-35 49 -90.5 76.5t-118.5 27.5q-111 0 -180.5 -70.5t-69.5 -178.5v-265q0 -117 70.5 -183.5t181.5 -66.5q74 0 125 28t86 75q8 14 23 4l36 -23 q10 -8 11.5 -14t-2.5 -12q-47 -68 -120 -99.5t-161 -31.5q-158 0 -246 88t-88 235z" />
<glyph unicode="&#x442;" horiz-adv-x="710" d="M27 836v34q0 18 20 19h615q20 0 20 -17v-36q0 -18 -20 -19h-267v-799q0 -10 -3 -14t-15 -4h-47q-20 0 -21 16v323.5v220.5v136v75t-1 33t-1 11h-15t-35 1t-75 1h-135q-20 0 -20 19z" />
<glyph unicode="&#x443;" horiz-adv-x="739" d="M16 872q-4 18 15 19h51q16 0 24 -17l240 -782q4 -10 8 -10q8 0 11 10l262 780q2 6 6 12.5t16 6.5h49q18 0 17 -19l-412 -1224q-4 -23 -31 -23h-41q-20 0 -14 25l111 338q4 12 -6 12h-13q-18 0 -24 18z" />
<glyph unicode="&#x444;" horiz-adv-x="1036" d="M100 356v203q0 68 23.5 127t70 105.5t112 76t149.5 35.5q18 0 18 25v358q0 6 2 12.5t12 6.5h54q14 0 14 -19q0 -88 -1 -179t-1 -177q0 -16 7 -20.5t18 -6.5q164 -14 261 -105t97 -239v-203q0 -78 -25.5 -142t-71.5 -112.5t-110.5 -77t-144.5 -34.5q-10 -2 -20.5 -6 t-10.5 -21v-317q0 -14 -12 -15h-52q-14 0 -14 13v317q0 18 -7 24.5t-19 6.5q-76 4 -140.5 32.5t-110.5 78t-72 114t-26 139.5zM184 336q0 -53 20.5 -101.5t57.5 -85t87 -59t110 -22.5q14 0 14 22v707q0 25 -16 24q-68 -2 -119 -23.5t-85 -58.5t-51.5 -85t-17.5 -99v-219z M553 90q0 -23 20 -22q61 2 112.5 25.5t88.5 62.5t56.5 90t19.5 110v199q0 111 -74 184.5t-198 83.5q-10 0 -17.5 -3t-7.5 -21v-709z" />
<glyph unicode="&#x445;" horiz-adv-x="702" d="M20 18l269 426q10 16 10 23.5t-10 21.5l-238 383q-4 6 -2 12.5t12 6.5h54q14 0 20 -2t15 -17l196 -321q8 -16 16 2l195 319q8 14 14.5 16.5t20.5 2.5h53q10 0 12 -6t-2 -13l-239 -385q-10 -16 -7 -23t7 -13l272 -433q12 -18 -10 -18h-55q-12 0 -19.5 3t-15.5 15l-226 367 q-4 10 -9 8t-9 -8l-225 -367q-8 -12 -15.5 -15t-17.5 -3h-55q-23 0 -11 18z" />
<glyph unicode="&#x446;" horiz-adv-x="874" d="M109 18v854q0 10 7 13.5t13 3.5h49q18 0 19 -17v-782q0 -14 4 -16t14 -2h436q18 0 19 18v780q0 18 16 19h47q20 0 21 -17v-784q0 -16 16 -16h27q12 0 13 -7.5t1 -15.5v-254q0 -14 -12 -14h-47q-16 0 -17 14v191q0 14 -16 14h-590q-20 0 -20 18z" />
<glyph unicode="&#x447;" horiz-adv-x="819" d="M68 670v209q0 12 12 12h59q14 0 15 -12v-213q0 -53 8 -99.5t32.5 -81t71.5 -55t125 -20.5q66 0 133.5 32.5t96.5 79.5q4 6 7 17.5t3 38.5v301q0 12 12 12h57q16 0 17 -12v-867q0 -12 -15 -12h-59q-12 0 -12 12v398q0 14 -4 14q-2 0 -11 -4q-51 -43 -116.5 -64.5 t-132.5 -21.5q-92 0 -150.5 26.5t-91.5 72.5t-45 107.5t-12 129.5z" />
<glyph unicode="&#x448;" horiz-adv-x="1308" d="M106 16v856q0 18 19 19h47q18 0 18 -19v-782q0 -16 17 -16h381q16 0 16 16v782q0 18 19 19h49q20 0 20 -19v-782q0 -6 2 -11t15 -5h393q14 0 14 16v782q0 18 21 19h47q12 0 15 -4t3 -15v-854q0 -18 -22 -18h-1053q-20 0 -21 16z" />
<glyph unicode="&#x449;" horiz-adv-x="1325" d="M104 16v856q0 16 21 17h47q18 0 18 -17v-782q0 -18 17 -18h379q18 0 18 16v784q0 16 19 17h49q18 0 18 -17v-784q0 -4 3 -10t14 -6h399q12 0 12 12v788q0 16 21 17h47q12 0 15 -3t3 -14v-784q0 -16 17 -16h26q12 0 13.5 -7.5t1.5 -15.5v-254q0 -14 -13 -14h-47 q-16 0 -16 14v191q0 14 -17 14h-1044q-20 0 -21 16z" />
<glyph unicode="&#x44a;" horiz-adv-x="1046" d="M18 836v36q0 16 21 17h360q20 0 21 -17v-313q0 -12 14 -12h275q133 0 207.5 -78t74.5 -197q0 -68 -22.5 -119t-61.5 -84.5t-91 -51t-109 -17.5h-351q-8 0 -15 4t-7 14v781q0 10 -3 14t-16 4h-276q-20 0 -21 19zM420 84q0 -12 14 -12h285q49 0 84 18.5t58.5 47t34.5 64 t11 70.5q0 39 -12 75t-36.5 63.5t-59.5 45t-80 17.5h-283q-16 0 -16 -12v-377z" />
<glyph unicode="&#x44b;" horiz-adv-x="1060" d="M106 20v852q0 18 21 19h43q23 0 23 -19v-311q0 -12 12 -12h289q63 0 113 -22.5t85 -60.5t53.5 -88t18.5 -104q0 -53 -18.5 -102t-53.5 -87t-85 -61.5t-113 -23.5h-365q-23 0 -23 20zM193 86q0 -12 14 -12h287q43 0 77.5 18.5t59 47t37 64.5t12.5 70q0 39 -12.5 75 t-37 63.5t-59 44t-77.5 16.5h-283q-18 0 -18 -12v-375zM868 18v854q0 18 23 19h43q20 0 20 -19v-854q0 -10 -3 -14t-17 -4h-43q-23 0 -23 18z" />
<glyph unicode="&#x44c;" horiz-adv-x="817" d="M106 20v852q0 18 21 19h43q23 0 23 -19v-311q0 -12 12 -12h289q63 0 113 -22.5t85 -60.5t53.5 -88t18.5 -104q0 -53 -18.5 -102t-53.5 -87t-85 -61.5t-113 -23.5h-365q-23 0 -23 20zM193 86q0 -12 14 -12h287q43 0 77.5 18.5t59 47t37 64.5t12.5 70q0 39 -12.5 75 t-37 63.5t-59 44t-77.5 16.5h-283q-18 0 -18 -12v-375z" />
<glyph unicode="&#x44d;" horiz-adv-x="747" d="M26 133q1 6 11 14l41 23q14 10 22 -4q35 -47 84 -75t123 -28q111 0 181.5 67t70.5 183v84q0 16 -11 21.5t-26 5.5h-344q-6 0 -8 4t-2 8v49q0 12 12 13h348q6 0 18.5 4t12.5 24v52q0 109 -57.5 179t-179.5 70q-63 0 -116.5 -27.5t-88.5 -76.5q-14 -14 -27 -6l-41 31 q-14 8 -4 24q47 63 122 96t163 33q154 0 233.5 -89t79.5 -237v-262q0 -147 -88 -235t-246 -88q-88 0 -160.5 31.5t-119.5 99.5q-4 6 -3 12z" />
<glyph unicode="&#x44e;" horiz-adv-x="1097" d="M106 18v854q0 18 19 19h47q18 0 18 -17v-364q0 -14 17 -14h162q12 0 12 14v68q0 145 80 234t231 89q152 0 230.5 -87t78.5 -239v-256q0 -158 -76.5 -243.5t-232.5 -85.5q-160 0 -235.5 88t-75.5 237v97q0 12 -16 12h-156q-12 0 -15.5 -4t-3.5 -10v-392q0 -18 -18 -18h-47 q-18 0 -19 18zM465 317q0 -117 58.5 -186.5t168.5 -69.5q115 0 170.5 70t55.5 188v254q0 111 -56.5 182.5t-169.5 71.5q-111 0 -169 -70.5t-58 -181.5v-258z" />
<glyph unicode="&#x44f;" horiz-adv-x="825" d="M53.5 7q-2.5 7 1.5 18l168 346q2 4 3 7t-3 7q-59 45 -98 110.5t-39 143.5q0 111 65.5 181.5t184.5 70.5h356q14 0 20.5 -7t6.5 -16v-848q0 -20 -19 -20h-49q-18 0 -18 20v340q0 12 -15 13h-288q-14 0 -23 -15l-160 -338q-6 -10 -10 -15t-20 -5h-49q-12 0 -14.5 7z M172 633q0 -41 24.5 -91t75.5 -85q8 -8 35 -8h314q12 0 12 14v336q0 18 -17 18h-272q-53 0 -87 -17.5t-52.5 -44t-25.5 -59t-7 -63.5z" />
<glyph unicode="&#x451;" horiz-adv-x="835" d="M98 311v258q0 78 26 139.5t70 104.5t104 65.5t130 22.5q72 0 133.5 -21.5t105.5 -63.5t69.5 -105.5t25.5 -149.5v-88q0 -18 -9.5 -26.5t-19.5 -8.5h-526q-25 0 -25 -26v-99q0 -106 67.5 -178t182.5 -72q68 0 120 27t87 74q12 16 27 6l39 -25q12 -10 8 -22 q-43 -66 -117 -99.5t-166 -33.5q-154 0 -243 87t-89 234zM182 532q0 -23 25 -22h450q18 0 19 22v48q0 109 -67.5 178t-180.5 69q-53 0 -97 -18t-78 -52t-52.5 -79t-18.5 -96v-50zM207 1153q0 27 17.5 44t41.5 17q25 0 42.5 -17t17.5 -44t-18.5 -44t-41.5 -17q-25 0 -42 18 t-17 43zM520 1153q0 27 17.5 44t42.5 17t43 -17t18 -44q0 -25 -17.5 -43t-41.5 -18q-27 0 -44.5 18t-17.5 43z" />
<glyph unicode="&#x452;" horiz-adv-x="927" d="M12 1051v41q0 14 13 14h120q16 2 17 18v166q0 14 14 15h55q14 0 15 -15v-170q0 -14 14 -14h397q12 0 13 -12v-41q0 -14 -13 -15h-395q-16 0 -16 -16v-217q0 -16 8 -17q6 0 12 9q39 51 106.5 76.5t133.5 25.5q92 0 153.5 -28.5t98.5 -77t52 -110.5t15 -130v-248 q0 -57 -15 -116.5t-52 -108.5t-98.5 -82t-153.5 -35h-33q-25 0 -24 19v36q0 16 20 17h25q70 2 116.5 26.5t76.5 62.5t42 86t12 97v262q0 106 -62.5 180t-184.5 74q-55 0 -100.5 -19.5t-78 -54t-51 -80.5t-18.5 -98v-559q0 -12 -13 -12h-57q-14 0 -14 12v1012q-2 14 -19 14 h-116q-14 0 -15 13z" />
<glyph unicode="&#x453;" horiz-adv-x="657" d="M94 16v854q0 18 21 19h522q18 0 18 -17v-36q0 -18 -18 -19h-438q-16 0 -17.5 -7t-1.5 -19v-773q0 -18 -18 -18h-49q-18 0 -19 16zM296 1027q-3 5 3 17l139 254q6 10 14.5 14.5t22.5 -3.5l43 -27q14 -8 14 -18q0 -4 -2 -7.5t-4 -7.5l-178 -237q-12 -14 -26 -6l-19 12 q-4 4 -7 9z" />
<glyph unicode="&#x454;" horiz-adv-x="751" d="M82 311v262q0 74 25.5 133.5t69.5 102.5t104.5 66.5t132.5 23.5q180 0 278 -127q12 -14 -4 -27l-31 -22q-14 -10 -20 -8t-19 14q-43 43 -90 69.5t-112 26.5q-53 0 -98.5 -18.5t-79 -52t-53 -78.5t-19.5 -98v-56q0 -27 22 -26h359q12 0 12 -13v-49q0 -4 -2 -8t-8 -4h-361 q-20 0 -22 -21v-90q0 -111 70.5 -180.5t181.5 -69.5q74 0 124 28t85 75q8 14 22 4l39 -23q12 -8 12 -12t-4 -14q-47 -68 -119.5 -98.5t-160.5 -30.5q-158 0 -246 87t-88 234z" />
<glyph unicode="&#x455;" horiz-adv-x="696" d="M49 152q-8 12 6 18l45 23q8 4 12.5 -0.5l8.5 -8.5q31 -55 93 -90t134 -35q94 0 152.5 44t58.5 118q0 41 -17.5 71t-44 51.5t-60.5 37.5t-66 29q-45 16 -97.5 35.5t-97.5 49t-74.5 71.5t-29.5 104q0 57 24.5 100t63.5 71.5t89 44t101 15.5q82 0 151.5 -26.5t116.5 -75.5 q10 -12 -2 -25l-28 -33q-12 -12 -27 2q-41 39 -97 61.5t-114 22.5q-29 0 -62.5 -8t-63 -26.5t-49 -47t-19.5 -69.5t20.5 -69.5t53 -49t69.5 -36t72 -27.5q51 -18 99 -40t87 -52.5t62.5 -74t23.5 -104.5q0 -43 -17.5 -86t-54 -75.5t-93 -53t-132.5 -20.5q-92 0 -174 40 t-123 124z" />
<glyph unicode="&#x456;" horiz-adv-x="352" d="M111 1151q0 27 18 44t43 17q27 0 44 -17t17 -44t-18 -45.5t-43 -18.5t-43 17.5t-18 46.5zM127 12v865q0 14 14 14h58q14 0 14 -14v-865q0 -12 -14 -12h-58q-14 0 -14 12z" />
<glyph unicode="&#x457;" horiz-adv-x="352" d="M-45 1149q0 27 17.5 44t41.5 17q25 0 42.5 -17t17.5 -44t-17.5 -44.5t-42.5 -17.5t-42 18.5t-17 43.5zM127 12v865q0 14 14 14h58q14 0 14 -14v-865q0 -12 -14 -12h-58q-14 0 -14 12zM270 1149q0 27 17.5 44t42.5 17t42 -17t17 -44q0 -25 -17.5 -43.5t-41.5 -18.5 q-25 0 -42.5 18.5t-17.5 43.5z" />
<glyph unicode="&#x458;" horiz-adv-x="335" d="M-100 -336l10 45q4 12 20 10q16 -4 37 -6t37 -2q78 0 102.5 41t24.5 123v1002q0 14 14 14h58q14 0 14 -14v-1008q0 -117 -49 -176.5t-158 -59.5q-29 0 -55.5 3.5t-42.5 9.5q-14 2 -12 18zM113 1151q0 27 18.5 44t42.5 17q27 0 44.5 -17t17.5 -44t-18.5 -45.5t-41.5 -18.5 q-27 0 -45 17.5t-18 46.5z" />
<glyph unicode="&#x459;" horiz-adv-x="1275" d="M8 23q-6 12 15 22q35 18 65.5 38.5t54 74t37 154t13.5 276.5v286q0 16 18 17h418q20 0 20 -19v-311q0 -4 1 -8t12 -4h290q63 0 113.5 -22.5t85.5 -60.5t52.5 -88t17.5 -104q0 -53 -18.5 -102t-52.5 -87t-84 -61.5t-114 -23.5h-366q-23 0 -23 20v779q0 18 -18 18h-256 q-14 0 -15 -14v-213q0 -193 -18 -307.5t-49 -178t-73 -89t-89 -42.5q-14 -2 -20 11zM649 86q0 -12 15 -12h288q43 0 78 18.5t59.5 47t37 64.5t12.5 70q0 39 -12.5 75t-36 63.5t-58.5 44t-80 16.5h-286q-16 0 -17 -12v-375z" />
<glyph unicode="&#x45a;" horiz-adv-x="1286" d="M104 16v856q0 18 21 19h47q20 0 21 -19v-327q0 -4 2 -8.5t12 -4.5h354q14 0 14 15v325q0 16 23 17h43q20 0 21 -19v-325q0 -12 14 -13h282q55 0 104.5 -19t87.5 -54t59.5 -84t21.5 -109q0 -49 -16.5 -96t-48 -83t-78 -59.5t-103.5 -27.5h-385q-25 0 -25 18v426 q0 12 -18 13h-350q-10 0 -12 -3t-2 -8v-428q0 -18 -19 -18h-49q-20 0 -21 16zM662 84q0 -12 14 -12h285q45 0 79.5 17t59 45t37 61.5t12.5 68.5q0 78 -49 136.5t-139 58.5h-281q-10 0 -14 -4t-4 -9v-362z" />
<glyph unicode="&#x45b;" horiz-adv-x="897" d="M25 1069v31q0 14 12 14h72q20 0 20 23v141q0 12 14 12h58q14 0 14 -12v-141q0 -23 16 -23h392q14 0 14 -14v-31q0 -14 -12 -14h-394q-16 0 -16 -21v-229q0 -12 5 -15.5t13 7.5q47 53 114 78.5t138 25.5q88 0 147.5 -28.5t95.5 -74.5t51.5 -107.5t15.5 -125.5v-551 q0 -14 -13 -14h-59q-14 0 -14 12v555q0 51 -13.5 99.5t-42 83t-76 56t-116.5 21.5q-55 0 -100.5 -20.5t-77 -55t-50 -80.5t-18.5 -100v-557q0 -14 -14 -14h-58q-14 0 -14 12v1022q0 20 -23 21h-69q-12 0 -12 14z" />
<glyph unicode="&#x45c;" horiz-adv-x="831" d="M106 12v865q0 14 15 14h59q12 0 13 -12v-404q0 -16 7 -17t15 5l420 418q12 10 29 10h71q8 0 11.5 -5t-1.5 -9l-319 -322q-10 -10 -6 -14t10 -2q8 2 15.5 2h13.5q145 0 219 -85t82 -233l10 -205q0 -18 -16 -18h-54q-16 0 -16 16l-10 207q-2 49 -15.5 94t-42 79t-72.5 53.5 t-108 19.5q-51 0 -96 -18.5t-78 -51t-51 -74.5t-18 -87v-224q0 -14 -13 -14h-57q-16 0 -17 12zM322.5 1027q-3.5 5 3.5 17l139 254q6 10 14 14.5t23 -3.5l43 -27q14 -8 14 -18q0 -4 -2 -7.5t-4 -7.5l-178 -237q-12 -14 -27 -6l-18 12q-4 4 -7.5 9z" />
<glyph unicode="&#x45e;" horiz-adv-x="739" d="M16 872q-4 18 15 19h51q16 0 24 -17l240 -782q4 -10 8 -10q8 0 11 10l262 780q2 6 6 12.5t16 6.5h49q18 0 17 -19l-412 -1224q-4 -23 -31 -23h-41q-20 0 -14 25l111 338q4 12 -6 12h-13q-18 0 -24 18zM133 1257q0 12 12 13h25q10 0 13 -5t7 -16q12 -68 60.5 -104.5 t107.5 -36.5q57 0 107.5 37t62.5 104q4 10 6.5 15.5t12.5 5.5h24q14 0 15 -13q0 -51 -20.5 -92t-52.5 -70.5t-73 -45t-84 -15.5t-83 16.5t-70.5 45t-50 70.5t-19.5 91z" />
<glyph unicode="&#x45f;" horiz-adv-x="872" d="M102 18v852q0 10 7.5 14.5t15.5 4.5h45q20 0 20 -19v-784q0 -14 13 -14h469q6 0 9 2t3 12v784q0 18 18 19h46q23 0 22 -19v-854q0 -16 -22 -16h-259q-12 0 -12 -14v-201q0 -25 -16 -25h-47q-18 0 -19 25v199q0 16 -14 16h-256q-23 0 -23 18z" />
<glyph unicode="&#x490;" horiz-adv-x="817" d="M139 12v1235q0 16 17 17h542q16 0 17 10q6 57 12 112.5t14 110.5q2 23 17 23h26q10 0 11.5 -5.5t3.5 -17.5v-299q0 -12 -15 -12h-538q-16 0 -17 -15v-267v-177v-133v-133t-1 -178.5t-1 -270.5q0 -12 -12 -12h-61q-14 0 -15 12z" />
<glyph unicode="&#x491;" horiz-adv-x="657" d="M94 16v854q0 18 21 19h426q10 0 20 2t12 18l17 172q4 20 26 21h15q14 0 17 -4t3 -21v-241q0 -18 -18 -19h-430q-16 0 -19.5 -7t-3.5 -17v-775q0 -18 -18 -18h-49q-18 0 -19 16z" />
<glyph unicode="&#x4d9;" horiz-adv-x="835" d="M88 332v88q0 18 9 26.5t20 8.5h524q27 0 27 26v99q0 106 -68 177.5t-182 71.5q-68 0 -121 -26.5t-86 -73.5q-12 -18 -29 -8l-37 27q-14 10 -8 22q43 66 117 99.5t164 33.5q154 0 244 -87t90 -234v-258q0 -78 -26 -139.5t-71 -104.5t-104 -65.5t-129 -22.5 q-72 0 -133.5 21.5t-105.5 63.5t-69.5 105.5t-25.5 149.5zM172 313q0 -109 68.5 -178t181.5 -69q51 0 96 18t78 52t51.5 78t18.5 97v49q0 23 -25 23h-448q-20 0 -21 -23v-47z" />
<glyph unicode="&#x2000;" horiz-adv-x="785" />
<glyph unicode="&#x2001;" horiz-adv-x="1571" />
<glyph unicode="&#x2002;" horiz-adv-x="785" />
<glyph unicode="&#x2003;" horiz-adv-x="1571" />
<glyph unicode="&#x2004;" horiz-adv-x="523" />
<glyph unicode="&#x2005;" horiz-adv-x="392" />
<glyph unicode="&#x2006;" horiz-adv-x="261" />
<glyph unicode="&#x2007;" horiz-adv-x="261" />
<glyph unicode="&#x2008;" horiz-adv-x="196" />
<glyph unicode="&#x2009;" horiz-adv-x="314" />
<glyph unicode="&#x200a;" horiz-adv-x="87" />
<glyph unicode="&#x2010;" horiz-adv-x="610" d="M121 461v55q0 14 14 14h338q12 0 12 -14v-55q0 -14 -12 -15h-338q-14 0 -14 15z" />
<glyph unicode="&#x2011;" horiz-adv-x="610" d="M121 461v55q0 14 14 14h338q12 0 12 -14v-55q0 -14 -12 -15h-338q-14 0 -14 15z" />
<glyph unicode="&#x2012;" horiz-adv-x="610" d="M121 461v55q0 14 14 14h338q12 0 12 -14v-55q0 -14 -12 -15h-338q-14 0 -14 15z" />
<glyph unicode="&#x2013;" horiz-adv-x="1024" d="M55 461v39q0 16 13 16h884q14 0 15 -16v-39q0 -14 -13 -15h-886q-12 0 -13 15z" />
<glyph unicode="&#x2014;" horiz-adv-x="2048" d="M55 461v39q0 16 13 16h1900q12 0 12 -16v-39q0 -14 -12 -15h-1900q-12 0 -13 15z" />
<glyph unicode="&#x2018;" horiz-adv-x="356" d="M94 963l76 321q2 18 20 19h31q14 0 15 -23l-19 -324q0 -20 -22 -20h-80q-27 0 -21 27z" />
<glyph unicode="&#x2019;" horiz-adv-x="358" d="M113 961l18 323q0 18 23 19h79q27 0 21 -27l-76 -322q-4 -18 -20 -18h-31q-18 0 -14 25z" />
<glyph unicode="&#x201a;" horiz-adv-x="342" d="M98 -193l19 310q0 20 20 20h84q27 0 19 -26l-76 -308q-6 -18 -21 -18h-30q-18 0 -15 22z" />
<glyph unicode="&#x201c;" horiz-adv-x="520" d="M78 963l76 321q2 18 20 19h31q14 0 14 -23l-18 -324q0 -20 -23 -20h-80q-27 0 -20 27zM279 963l73 321q6 18 21 19h28q16 0 17 -23l-19 -324q0 -20 -22 -20h-80q-25 0 -18 27z" />
<glyph unicode="&#x201d;" horiz-adv-x="520" d="M102 961l19 323q0 18 22 19h80q25 0 19 -27l-74 -322q-6 -18 -21 -18h-30q-18 0 -15 25zM301 961l18 323q0 18 23 19h80q25 0 18 -27l-73 -322q-6 -18 -21 -18h-31q-14 0 -14 25z" />
<glyph unicode="&#x201e;" horiz-adv-x="530" d="M98 -193l19 310q0 20 20 20h84q27 0 19 -26l-76 -308q-6 -18 -21 -18h-30q-18 0 -15 22zM303 -193l19 310q0 20 22 20h84q27 0 18 -26l-77 -308q-2 -18 -21 -18h-31q-14 0 -14 22z" />
<glyph unicode="&#x2026;" horiz-adv-x="1161" d="M117 57q0 29 19 49.5t48 20.5q33 0 53.5 -19.5t20.5 -50.5q0 -29 -19.5 -49t-52.5 -20q-29 0 -49 20.5t-20 48.5zM504 57q0 29 19 49.5t48 20.5q33 0 53.5 -19.5t20.5 -50.5q0 -29 -19.5 -49t-52.5 -20q-29 0 -49 20.5t-20 48.5zM895 57q0 29 19.5 49.5t48.5 20.5 q33 0 53 -19.5t20 -50.5q0 -29 -20.5 -49t-52.5 -20q-29 0 -48.5 20.5t-19.5 48.5z" />
<glyph unicode="&#x202f;" horiz-adv-x="314" />
<glyph unicode="&#x2039;" horiz-adv-x="610" d="M131 426l258 317q8 10 14.5 13.5t22.5 3.5h51q12 0 15.5 -6t-3.5 -15l-266 -325q-6 -10 -5 -13.5t5 -9.5l264 -328q8 -10 4 -17t-14 -7h-51q-10 0 -18.5 3t-18.5 15l-256 322q-18 25 -2 47z" />
<glyph unicode="&#x203a;" horiz-adv-x="610" d="M122 753.5q3 6.5 15 6.5h53q16 0 21.5 -3t13.5 -14l258 -317q18 -23 0 -47l-256 -322q-10 -12 -18 -15t-21 -3h-51q-10 0 -14 7t6 17l262 328l6 9t-6 14l-264 325q-8 8 -5 14.5z" />
<glyph unicode="&#x205f;" horiz-adv-x="392" />
<glyph unicode="&#x20ac;" d="M86 535v36q0 12 14 13h555q14 0 15 -15v-34q0 -16 -15 -17h-364q-16 0 -17 -12v-197q0 -111 69 -179.5t179 -68.5q66 0 124.5 27t94.5 74q16 20 35 10l39 -27q12 -10 2 -26q-96 -133 -295 -133q-158 0 -246 86t-88 233v199q0 16 -12 16h-78q-12 0 -12 15zM86 709v36 q0 14 14 15h74q14 0 14 18v180q0 141 89.5 230.5t244.5 89.5q92 0 169 -34t124 -99q12 -14 -4 -25l-41 -26q-16 -10 -27 6q-78 102 -221 102q-113 0 -180.5 -67.5t-67.5 -178.5v-182q0 -16 17 -16h364q14 0 15 -13v-36q0 -14 -15 -15h-557q-12 0 -12 15z" />
<glyph unicode="&#x2122;" horiz-adv-x="1189" d="M47 1225v28q0 10 8 11h394q10 0 10 -11v-28q0 -10 -10 -11h-162q-8 0 -8 -8v-571q0 -8 -11 -8h-32q-12 0 -13 8v571q0 8 -8 8h-160q-8 0 -8 11zM541 637v614q0 10 6 11.5t10 1.5h25q10 0 11 -3.5t5 -9.5l217 -508q2 0 2 -1t2 -1t4 2l217 508q8 12 19 13h31q8 0 8 -11 v-616q0 -8 -13 -8h-28q-4 0 -7 2t-1 6v483q-2 6 -7 2l-194 -444q-10 -12 -21 -12h-20q-10 0 -16 12q-47 111 -96.5 221.5t-96.5 222.5q0 4 -2 3t-2 -5v-483q0 -8 -10 -8h-35q-8 0 -8 8z" />
<glyph unicode="&#xe000;" horiz-adv-x="890" d="M0 0v891h891v-891h-891z" />
</font>
</defs>
</svg>
